SplineFontDB: 3.2
FontName: Inconsolata-Arrows-Regular
FullName: Inconsolata Arrows Regular
FamilyName: Inconsolata Arrows
Weight: Regular
Copyright: Copyright 2006 The Inconsolata Project Authors (https://github.com/cyrealtype/Inconsolata)\nProgramming ligatures added by Ilya Skriblovsky from FiraCode\nFiraCode Copyright (c) 2015 by Nikita Prokopov\nArrows and minor glyph tweaks by Robert Boyd III Copyright (c) 2021
Version: 3.000; ttfautohint (v1.8.3)
ItalicAngle: 0
UnderlinePosition: -175
UnderlineWidth: 50
Ascent: 800
Descent: 200
InvalidEm: 0
sfntRevision: 0x00030000
LayerCount: 2
Layer: 0 1 "Back" 1
Layer: 1 1 "Fore" 0
XUID: [1021 511 82745506 4952464]
StyleMap: 0x0040
FSType: 0
OS2Version: 4
OS2_WeightWidthSlopeOnly: 0
OS2_UseTypoMetrics: 1
CreationTime: 1576097233
ModificationTime: 1639857373
PfmFamily: 81
TTFWeight: 400
TTFWidth: 5
LineGap: 0
VLineGap: 0
Panose: 0 0 0 0 0 0 0 0 0 0
OS2TypoAscent: 859
OS2TypoAOffset: 0
OS2TypoDescent: -190
OS2TypoDOffset: 0
OS2TypoLinegap: 0
OS2WinAscent: 1004
OS2WinAOffset: 0
OS2WinDescent: 454
OS2WinDOffset: 0
HheadAscent: 859
HheadAOffset: 0
HheadDescent: -190
HheadDOffset: 0
OS2SubXSize: 650
OS2SubYSize: 600
OS2SubXOff: 0
OS2SubYOff: 75
OS2SupXSize: 650
OS2SupYSize: 600
OS2SupXOff: 0
OS2SupYOff: 350
OS2StrikeYSize: 50
OS2StrikeYPos: 274
OS2CapHeight: 623
OS2XHeight: 457
OS2Vendor: 'CYRE'
OS2CodePages: 60000193.cdd40000
OS2UnicodeRanges: a00000ff.0000f9eb.00000020.00000000

StartChar: exclam
Encoding: 33 33 6
Width: 500
GlyphClass: 2
Flags: W
LayerCount: 2
Fore
SplineSet
215 194 m 1,0,-1
 190 594 l 2,1,2
 190 629 190 629 203.5 648.5 c 128,-1,3
 217 668 217 668 241 668 c 0,4,5
 264 668 264 668 278 648.5 c 128,-1,6
 292 629 292 629 292 584 c 2,7,-1
 265 194 l 1,8,-1
 215 194 l 1,0,-1
239 -11 m 256,9,10
 215 -11 215 -11 197.5 6 c 128,-1,11
 180 23 180 23 180 47 c 256,12,13
 180 71 180 71 197.5 89 c 128,-1,14
 215 107 215 107 239 107 c 256,15,16
 263 107 263 107 281 89 c 128,-1,17
 299 71 299 71 299 47 c 0,18,19
 299 24 299 24 281 6.5 c 128,-1,20
 263 -11 263 -11 239 -11 c 256,9,10
EndSplineSet
Substitution2: "Single Substitution lookup 8 subtable" CR.10.1
EndChar

StartChar: numbersign
Encoding: 35 35 8
Width: 500
GlyphClass: 2
Flags: W
LayerCount: 2
Fore
SplineSet
270 10 m 1,0,-1
 292 193 l 1,1,-1
 181 193 l 1,2,-1
 160 14 l 1,3,-1
 101 13 l 1,4,-1
 122 191 l 1,5,-1
 25 191 l 1,6,-1
 29 236 l 1,7,-1
 128 236 l 1,8,-1
 148 407 l 1,9,-1
 39 407 l 1,10,-1
 42 453 l 1,11,-1
 153 453 l 1,12,-1
 173 624 l 1,13,-1
 234 626 l 1,14,-1
 213 455 l 1,15,-1
 323 455 l 1,16,-1
 343 622 l 1,17,-1
 405 623 l 1,18,-1
 385 457 l 1,19,-1
 476 457 l 1,20,-1
 470 410 l 1,21,-1
 379 410 l 1,22,-1
 358 241 l 1,23,-1
 457 241 l 1,24,-1
 452 196 l 1,25,-1
 353 196 l 1,26,-1
 331 14 l 1,27,-1
 270 10 l 1,0,-1
187 238 m 1,28,-1
 297 238 l 1,29,-1
 318 408 l 1,30,-1
 207 408 l 1,31,-1
 187 238 l 1,28,-1
EndSplineSet
EndChar

StartChar: dollar
Encoding: 36 36 9
Width: 500
GlyphClass: 2
Flags: W
LayerCount: 2
Fore
SplineSet
235 -47 m 1,0,-1
 235 14 l 1,1,2
 128 21 128 21 60 94 c 1,3,-1
 103 154 l 1,4,5
 107 151 107 151 107 144 c 128,-1,6
 107 137 107 137 110 133 c 0,7,8
 159 80 159 80 235 72 c 1,9,-1
 235 292 l 1,10,11
 157 318 157 318 118 354.5 c 128,-1,12
 79 391 79 391 79 446 c 256,13,14
 79 501 79 501 122.5 541 c 128,-1,15
 166 581 166 581 235 591 c 1,16,-1
 235 651 l 1,17,-1
 299 651 l 2,18,19
 300 650 300 650 300 648 c 256,20,21
 300 646 300 646 297 641.5 c 128,-1,22
 294 637 294 637 293 630 c 2,23,-1
 293 592 l 1,24,25
 386 582 386 582 442 515 c 1,26,-1
 399 461 l 1,27,28
 394 463 394 463 393.5 470 c 128,-1,29
 393 477 393 477 388 482 c 0,30,31
 354 522 354 522 293 533 c 1,32,-1
 293 340 l 1,33,34
 379 312 379 312 419.5 277.5 c 128,-1,35
 460 243 460 243 460 181 c 0,36,37
 460 144 460 144 440 108.5 c 128,-1,38
 420 73 420 73 382.5 48 c 128,-1,39
 345 23 345 23 293 16 c 1,40,-1
 293 -47 l 1,41,-1
 235 -47 l 1,0,-1
235 361 m 1,42,-1
 235 534 l 1,43,44
 190 529 190 529 167.5 506 c 128,-1,45
 145 483 145 483 145 454 c 0,46,47
 145 397 145 397 235 361 c 1,42,-1
293 74 m 1,48,49
 341 83 341 83 368 112.5 c 128,-1,50
 395 142 395 142 395 177 c 0,51,52
 395 213 395 213 371 234.5 c 128,-1,53
 347 256 347 256 293 273 c 1,54,-1
 293 74 l 1,48,49
EndSplineSet
EndChar

StartChar: percent
Encoding: 37 37 10
Width: 500
GlyphClass: 2
Flags: W
LayerCount: 2
Fore
SplineSet
140 373 m 0,0,1
 110 373 110 373 84.5 390 c 128,-1,2
 59 407 59 407 43.5 437 c 128,-1,3
 28 467 28 467 28 504 c 256,4,5
 28 541 28 541 43.5 570 c 128,-1,6
 59 599 59 599 84.5 616.5 c 128,-1,7
 110 634 110 634 140 634 c 0,8,9
 171 634 171 634 196 616.5 c 128,-1,10
 221 599 221 599 236.5 569.5 c 128,-1,11
 252 540 252 540 252 503 c 0,12,13
 252 446 252 446 220 409.5 c 128,-1,14
 188 373 188 373 140 373 c 0,0,1
46 0 m 1,15,-1
 391 623 l 1,16,-1
 448 623 l 1,17,-1
 100 0 l 1,18,-1
 46 0 l 1,15,-1
140 426 m 256,19,20
 159 426 159 426 174 443.5 c 128,-1,21
 189 461 189 461 189 504 c 256,22,23
 189 547 189 547 173 564.5 c 128,-1,24
 157 582 157 582 138 582 c 0,25,26
 120 582 120 582 104.5 564.5 c 128,-1,27
 89 547 89 547 89 504 c 0,28,29
 89 462 89 462 105 444 c 128,-1,30
 121 426 121 426 140 426 c 256,19,20
371 -10 m 256,31,32
 341 -10 341 -10 315.5 7 c 128,-1,33
 290 24 290 24 274.5 53.5 c 128,-1,34
 259 83 259 83 259 119 c 0,35,36
 259 156 259 156 274.5 185 c 128,-1,37
 290 214 290 214 315.5 231.5 c 128,-1,38
 341 249 341 249 371 249 c 0,39,40
 402 249 402 249 427 231.5 c 128,-1,41
 452 214 452 214 467 184.5 c 128,-1,42
 482 155 482 155 482 119 c 256,43,44
 482 83 482 83 467 53.5 c 128,-1,45
 452 24 452 24 426.5 7 c 128,-1,46
 401 -10 401 -10 371 -10 c 256,31,32
372 40 m 256,47,48
 392 40 392 40 407.5 59 c 128,-1,49
 423 78 423 78 423 118 c 0,50,51
 423 153 423 153 409 175.5 c 128,-1,52
 395 198 395 198 370 198 c 0,53,54
 350 198 350 198 334 180 c 128,-1,55
 318 162 318 162 318 120 c 0,56,57
 318 77 318 77 335 58.5 c 128,-1,58
 352 40 352 40 372 40 c 256,47,48
EndSplineSet
EndChar

StartChar: ampersand
Encoding: 38 38 11
Width: 500
GlyphClass: 2
Flags: W
LayerCount: 2
Fore
SplineSet
416 -12 m 1,0,-1
 361 76 l 1,1,2
 330 37 330 37 285.5 13.5 c 128,-1,3
 241 -10 241 -10 192 -10 c 0,4,5
 147 -10 147 -10 111.5 10.5 c 128,-1,6
 76 31 76 31 56 65.5 c 128,-1,7
 36 100 36 100 36 141 c 0,8,9
 36 204 36 204 70.5 257.5 c 128,-1,10
 105 311 105 311 162 343 c 1,11,12
 91 429 91 429 91 498 c 0,13,14
 91 536 91 536 109.5 565.5 c 128,-1,15
 128 595 128 595 159.5 612 c 128,-1,16
 191 629 191 629 228 629 c 0,17,18
 269 629 269 629 299 610 c 128,-1,19
 329 591 329 591 346 561.5 c 128,-1,20
 363 532 363 532 363 498 c 0,21,22
 363 466 363 466 349 432.5 c 128,-1,23
 335 399 335 399 311 372 c 128,-1,24
 287 345 287 345 255 330 c 1,25,-1
 367 173 l 1,26,27
 393 204 393 204 401.5 225.5 c 128,-1,28
 410 247 410 247 412 274 c 0,29,30
 412 280 412 280 416 284 c 1,31,-1
 481 239 l 1,32,33
 464 209 464 209 445 180 c 128,-1,34
 426 151 426 151 405 123 c 1,35,-1
 475 32 l 1,36,-1
 416 -12 l 1,0,-1
221 373 m 1,37,38
 257 390 257 390 277 424.5 c 128,-1,39
 297 459 297 459 297 492 c 256,40,41
 297 525 297 525 276.5 547.5 c 128,-1,42
 256 570 256 570 229 570 c 0,43,44
 201 570 201 570 180.5 550 c 128,-1,45
 160 530 160 530 160 497 c 0,46,47
 160 449 160 449 221 373 c 1,37,38
199 54 m 0,48,49
 235 54 235 54 265.5 73 c 128,-1,50
 296 92 296 92 324 123 c 1,51,-1
 197 296 l 1,52,53
 157 271 157 271 134.5 231 c 128,-1,54
 112 191 112 191 112 152 c 0,55,56
 112 111 112 111 138 82.5 c 128,-1,57
 164 54 164 54 199 54 c 0,48,49
EndSplineSet
EndChar

StartChar: quotesingle
Encoding: 39 39 12
Width: 500
GlyphClass: 2
Flags: W
LayerCount: 2
Fore
SplineSet
210 665 m 1,0,-1
 290 665 l 1,1,2
 290 605 290 605 289 569 c 128,-1,3
 288 533 288 533 285.5 508.5 c 128,-1,4
 283 484 283 484 280 461.5 c 128,-1,5
 277 439 277 439 274 407 c 1,6,-1
 226 407 l 1,7,8
 223 439 223 439 220 461.5 c 128,-1,9
 217 484 217 484 214.5 508 c 128,-1,10
 212 532 212 532 211 568.5 c 128,-1,11
 210 605 210 605 210 665 c 1,0,-1
EndSplineSet
Substitution2: "'ss03' Style Set 3 in Latin lookup 80 subtable" quotesingle.ss03
Substitution2: "'aalt' Access All Alternates in Latin lookup 43 subtable" quotesingle.ss03
EndChar

StartChar: parenleft
Encoding: 40 40 13
Width: 500
GlyphClass: 2
Flags: W
LayerCount: 2
Fore
SplineSet
395 -104 m 1,0,1
 312 -65 312 -65 250.5 0.5 c 128,-1,2
 189 66 189 66 155.5 148.5 c 128,-1,3
 122 231 122 231 122 320 c 256,4,5
 122 409 122 409 155 489.5 c 128,-1,6
 188 570 188 570 248 633.5 c 128,-1,7
 308 697 308 697 389 735 c 1,8,-1
 408 673 l 1,9,10
 344 638 344 638 295.5 583 c 128,-1,11
 247 528 247 528 220 460 c 128,-1,12
 193 392 193 392 193 317 c 256,13,14
 193 242 193 242 220 173 c 128,-1,15
 247 104 247 104 297 48 c 128,-1,16
 347 -8 347 -8 414 -44 c 1,17,-1
 395 -104 l 1,0,1
EndSplineSet
EndChar

StartChar: asterisk
Encoding: 42 42 15
Width: 449
GlyphClass: 2
Flags: W
LayerCount: 2
Fore
SplineSet
160 244 m 1,0,-1
 117 280 l 1,1,-1
 221 400 l 1,2,-1
 83 442 l 1,3,-1
 104 494 l 1,4,-1
 233 433 l 1,5,-1
 220 575 l 1,6,-1
 283 575 l 1,7,-1
 268 433 l 1,8,-1
 396 491 l 1,9,-1
 416 442 l 1,10,-1
 280 400 l 1,11,-1
 380 280 l 1,12,-1
 336 245 l 1,13,-1
 250 378 l 1,14,-1
 160 244 l 1,0,-1
EndSplineSet
Substitution2: "'ss01' Style Set 1 in Latin lookup 78 subtable" asterisk.ss01
Substitution2: "'salt' Stylistic Alternatives in Latin lookup 77 subtable" asterisk.ss01
Substitution2: "'aalt' Access All Alternates in Latin lookup 43 subtable" asterisk.ss01
EndChar

StartChar: plus
Encoding: 43 43 16
Width: 500
GlyphClass: 2
Flags: W
LayerCount: 2
Fore
SplineSet
222 104 m 1,0,-1
 222 291 l 1,1,-1
 45 291 l 1,2,-1
 45 352 l 1,3,-1
 222 352 l 1,4,-1
 222 523 l 1,5,-1
 285 523 l 1,6,-1
 285 352 l 1,7,-1
 456 352 l 1,8,-1
 456 291 l 1,9,-1
 285 291 l 1,10,-1
 285 104 l 1,11,-1
 222 104 l 1,0,-1
EndSplineSet
EndChar

StartChar: comma
Encoding: 44 44 17
Width: 500
GlyphClass: 2
Flags: W
LayerCount: 2
Fore
SplineSet
199 -168 m 1,0,-1
 165 -138 l 1,1,2
 193 -112 193 -112 211.5 -82 c 128,-1,3
 230 -52 230 -52 230 -33 c 0,4,5
 230 -19 230 -19 217.5 -8.5 c 128,-1,6
 205 2 205 2 192 14 c 128,-1,7
 179 26 179 26 179 44 c 0,8,9
 179 69 179 69 195.5 86 c 128,-1,10
 212 103 212 103 238 103 c 256,11,12
 264 103 264 103 285 80 c 128,-1,13
 306 57 306 57 306 20 c 0,14,15
 306 -58 306 -58 199 -168 c 1,0,-1
EndSplineSet
EndChar

StartChar: hyphen
Encoding: 45 45 18
Width: 500
GlyphClass: 2
Flags: W
LayerCount: 2
Fore
SplineSet
111 281 m 1,0,-1
 111 348 l 1,1,-1
 391 348 l 1,2,-1
 391 281 l 1,3,-1
 111 281 l 1,0,-1
EndSplineSet
Substitution2: "Single Substitution lookup 39 subtable" CR.2.0
Substitution2: "Single Substitution lookup 35 subtable" lig.3
Substitution2: "Single Substitution lookup 29 subtable" CR.5.0
Substitution2: "Single Substitution lookup 28 subtable" CR.5.1
Substitution2: "Single Substitution lookup 16 subtable" CR.8.1
Substitution2: "Single Substitution lookup 12 subtable" CR.9.1
Substitution2: "Single Substitution lookup 11 subtable" lig.9
Substitution2: "Single Substitution lookup 7 subtable" CR.10.2
Substitution2: "Single Substitution lookup 6 subtable" lig.10
EndChar

StartChar: period
Encoding: 46 46 19
Width: 500
GlyphClass: 2
Flags: W
LayerCount: 2
Fore
SplineSet
238 -11 m 0,0,1
 214 -11 214 -11 197 6 c 128,-1,2
 180 23 180 23 180 46 c 256,3,4
 180 69 180 69 197 86 c 128,-1,5
 214 103 214 103 238 103 c 0,6,7
 261 103 261 103 278 86 c 128,-1,8
 295 69 295 69 295 46 c 256,9,10
 295 23 295 23 278 6 c 128,-1,11
 261 -11 261 -11 238 -11 c 0,0,1
EndSplineSet
EndChar

StartChar: slash
Encoding: 47 47 20
Width: 500
GlyphClass: 2
Flags: W
LayerCount: 2
Fore
SplineSet
123 -42 m 1,0,-1
 64 -13 l 1,1,-1
 377 665 l 1,2,-1
 437 634 l 1,3,-1
 123 -42 l 1,0,-1
EndSplineSet
Substitution2: "'frac' Diagonal Fractions in Latin lookup 66 subtable" fraction
Substitution2: "'aalt' Access All Alternates in Latin lookup 43 subtable" fraction
EndChar

StartChar: zero
Encoding: 48 48 21
Width: 500
GlyphClass: 2
Flags: W
LayerCount: 2
Fore
SplineSet
250 -11 m 256,0,1
 157 -11 157 -11 107 72 c 128,-1,2
 57 155 57 155 57 308 c 0,3,4
 57 456 57 456 107 541.5 c 128,-1,5
 157 627 157 627 250 627 c 256,6,7
 343 627 343 627 393 541.5 c 128,-1,8
 443 456 443 456 443 308 c 0,9,10
 443 155 443 155 393 72 c 128,-1,11
 343 -11 343 -11 250 -11 c 256,0,1
129 308 m 0,12,13
 129 244 129 244 138 194 c 1,14,-1
 350 467 l 1,15,16
 335 514 335 514 309.5 540 c 128,-1,17
 284 566 284 566 250 566 c 0,18,19
 193 566 193 566 161 496 c 128,-1,20
 129 426 129 426 129 308 c 0,12,13
250 50 m 0,21,22
 307 50 307 50 339 117 c 128,-1,23
 371 184 371 184 371 308 c 0,24,25
 371 363 371 363 364 408 c 1,26,-1
 152 139 l 1,27,28
 183 50 183 50 250 50 c 0,21,22
EndSplineSet
Substitution2: "'ss02' Style Set 2 in Latin lookup 79 subtable" zero.ss02
Substitution2: "'zero' Slashed Zero in Latin lookup 76 subtable" zero.zero
Substitution2: "'frac' Diagonal Fractions in Latin lookup 67 subtable" zero.numr
Substitution2: "'dnom' Denominators in Latin lookup 65 subtable" zero.dnom
Substitution2: "'numr' Numerators in Latin lookup 64 subtable" zero.numr
Substitution2: "'sups' Superscript in Latin lookup 63 subtable" uni2070
Substitution2: "'subs' Subscript in Latin lookup 62 subtable" uni2080
AlternateSubs2: "'aalt' Access All Alternates in Latin lookup 44 subtable" zero.zero zero.ss02 uni2080 zero.dnom zero.numr uni2070
EndChar

StartChar: one
Encoding: 49 49 22
Width: 500
GlyphClass: 2
Flags: W
LayerCount: 2
Fore
SplineSet
230 0 m 1,0,-1
 230 537 l 1,1,-1
 104 500 l 1,2,-1
 88 539 l 1,3,-1
 251 624 l 1,4,-1
 300 624 l 1,5,-1
 300 0 l 1,6,-1
 230 0 l 1,0,-1
EndSplineSet
Substitution2: "'frac' Diagonal Fractions in Latin lookup 67 subtable" one.numr
Substitution2: "'dnom' Denominators in Latin lookup 65 subtable" one.dnom
Substitution2: "'numr' Numerators in Latin lookup 64 subtable" one.numr
Substitution2: "'sups' Superscript in Latin lookup 63 subtable" uni00B9
Substitution2: "'subs' Subscript in Latin lookup 62 subtable" uni2081
AlternateSubs2: "'aalt' Access All Alternates in Latin lookup 44 subtable" uni2081 one.dnom one.numr uni00B9
EndChar

StartChar: two
Encoding: 50 50 23
Width: 500
GlyphClass: 2
Flags: W
LayerCount: 2
Fore
SplineSet
73 56 m 1,0,1
 140 125 140 125 194 178.5 c 128,-1,2
 248 232 248 232 286 276.5 c 128,-1,3
 324 321 324 321 344 363 c 128,-1,4
 364 405 364 405 364 451 c 0,5,6
 364 516 364 516 333 541 c 128,-1,7
 302 566 302 566 258 566 c 0,8,9
 222 566 222 566 190.5 550.5 c 128,-1,10
 159 535 159 535 133 503 c 0,11,12
 124 489 124 489 122 481.5 c 128,-1,13
 120 474 120 474 121 466 c 1,14,-1
 117 461 l 1,15,-1
 109 466 l 1,16,-1
 58 506 l 1,17,18
 88 564 88 564 140.5 595.5 c 128,-1,19
 193 627 193 627 257 627 c 0,20,21
 336 627 336 627 386 579.5 c 128,-1,22
 436 532 436 532 436 449 c 0,23,24
 436 397 436 397 413 350 c 128,-1,25
 390 303 390 303 351.5 257 c 128,-1,26
 313 211 313 211 264 163 c 128,-1,27
 215 115 215 115 163 61 c 1,28,-1
 395 61 l 2,29,30
 412 61 412 61 419 63 c 128,-1,31
 426 65 426 65 432 71 c 1,32,-1
 439 71 l 1,33,-1
 439 0 l 1,34,-1
 73 0 l 1,35,-1
 73 56 l 1,0,1
EndSplineSet
Substitution2: "'frac' Diagonal Fractions in Latin lookup 67 subtable" two.numr
Substitution2: "'dnom' Denominators in Latin lookup 65 subtable" two.dnom
Substitution2: "'numr' Numerators in Latin lookup 64 subtable" two.numr
Substitution2: "'sups' Superscript in Latin lookup 63 subtable" uni00B2
Substitution2: "'subs' Subscript in Latin lookup 62 subtable" uni2082
AlternateSubs2: "'aalt' Access All Alternates in Latin lookup 44 subtable" uni2082 two.dnom two.numr uni00B2
EndChar

StartChar: three
Encoding: 51 51 24
Width: 500
GlyphClass: 2
Flags: W
LayerCount: 2
Fore
SplineSet
240 -11 m 0,0,1
 191 -11 191 -11 146 7 c 128,-1,2
 101 25 101 25 69 60 c 1,3,-1
 115 115 l 1,4,-1
 122 123 l 1,5,-1
 127 118 l 1,6,7
 128 110 128 110 131 102.5 c 128,-1,8
 134 95 134 95 145 83 c 0,9,10
 162 68 162 68 184 58.5 c 128,-1,11
 206 49 206 49 237 49 c 0,12,13
 297 49 297 49 326 84 c 128,-1,14
 355 119 355 119 355 174 c 0,15,16
 355 245 355 245 307.5 274.5 c 128,-1,17
 260 304 260 304 180 296 c 1,18,-1
 180 352 l 1,19,20
 245 352 245 352 278 369 c 128,-1,21
 311 386 311 386 322.5 414.5 c 128,-1,22
 334 443 334 443 334 475 c 0,23,24
 334 518 334 518 309.5 542.5 c 128,-1,25
 285 567 285 567 245 567 c 0,26,27
 215 567 215 567 186.5 557 c 128,-1,28
 158 547 158 547 131 521 c 1,29,-1
 89 563 l 1,30,31
 123 598 123 598 163.5 612.5 c 128,-1,32
 204 627 204 627 244 627 c 0,33,34
 320 627 320 627 363 584 c 128,-1,35
 406 541 406 541 406 472 c 0,36,37
 406 423 406 423 382 384.5 c 128,-1,38
 358 346 358 346 308 330 c 1,39,40
 361 313 361 313 394 274 c 128,-1,41
 427 235 427 235 427 171 c 0,42,43
 427 122 427 122 405.5 80.5 c 128,-1,44
 384 39 384 39 342.5 14 c 128,-1,45
 301 -11 301 -11 240 -11 c 0,0,1
EndSplineSet
Substitution2: "'frac' Diagonal Fractions in Latin lookup 67 subtable" three.numr
Substitution2: "'dnom' Denominators in Latin lookup 65 subtable" three.dnom
Substitution2: "'numr' Numerators in Latin lookup 64 subtable" three.numr
Substitution2: "'sups' Superscript in Latin lookup 63 subtable" uni00B3
Substitution2: "'subs' Subscript in Latin lookup 62 subtable" uni2083
AlternateSubs2: "'aalt' Access All Alternates in Latin lookup 44 subtable" uni2083 three.dnom three.numr uni00B3
EndChar

StartChar: four
Encoding: 52 52 25
Width: 500
GlyphClass: 2
Flags: W
LayerCount: 2
Fore
SplineSet
318 0 m 1,0,-1
 318 153 l 1,1,-1
 48 153 l 1,2,-1
 48 204 l 1,3,-1
 333 624 l 1,4,-1
 392 624 l 1,5,-1
 392 211 l 1,6,-1
 472 211 l 1,7,-1
 472 152 l 1,8,-1
 392 152 l 1,9,-1
 392 0 l 1,10,-1
 318 0 l 1,0,-1
129 212 m 1,11,-1
 318 212 l 1,12,-1
 318 498 l 1,13,-1
 129 212 l 1,11,-1
EndSplineSet
Substitution2: "'frac' Diagonal Fractions in Latin lookup 67 subtable" four.numr
Substitution2: "'dnom' Denominators in Latin lookup 65 subtable" four.dnom
Substitution2: "'numr' Numerators in Latin lookup 64 subtable" four.numr
Substitution2: "'sups' Superscript in Latin lookup 63 subtable" uni2074
Substitution2: "'subs' Subscript in Latin lookup 62 subtable" uni2084
AlternateSubs2: "'aalt' Access All Alternates in Latin lookup 44 subtable" uni2084 four.dnom four.numr uni2074
EndChar

StartChar: five
Encoding: 53 53 26
Width: 500
GlyphClass: 2
Flags: W
LayerCount: 2
Fore
SplineSet
249 -11 m 0,0,1
 192 -11 192 -11 143.5 14 c 128,-1,2
 95 39 95 39 64 85 c 1,3,-1
 128 133 l 1,4,-1
 132 128 l 1,5,6
 131 120 131 120 134.5 113 c 128,-1,7
 138 106 138 106 148 93 c 0,8,9
 168 71 168 71 192.5 60.5 c 128,-1,10
 217 50 217 50 253 50 c 0,11,12
 285 50 285 50 312.5 68 c 128,-1,13
 340 86 340 86 357 119.5 c 128,-1,14
 374 153 374 153 374 199 c 0,15,16
 374 269 374 269 336.5 308 c 128,-1,17
 299 347 299 347 246 347 c 0,18,19
 214 347 214 347 183 331.5 c 128,-1,20
 152 316 152 316 129 288 c 1,21,-1
 85 306 l 1,22,-1
 106 623 l 1,23,-1
 422 623 l 1,24,-1
 422 560 l 1,25,-1
 165 560 l 1,26,-1
 155 381 l 1,27,28
 205 405 205 405 257 405 c 0,29,30
 311 405 311 405 353.5 379.5 c 128,-1,31
 396 354 396 354 420.5 307 c 128,-1,32
 445 260 445 260 445 196 c 256,33,34
 445 132 445 132 419 85.5 c 128,-1,35
 393 39 393 39 349 14 c 128,-1,36
 305 -11 305 -11 249 -11 c 0,0,1
EndSplineSet
Substitution2: "'frac' Diagonal Fractions in Latin lookup 67 subtable" five.numr
Substitution2: "'dnom' Denominators in Latin lookup 65 subtable" five.dnom
Substitution2: "'numr' Numerators in Latin lookup 64 subtable" five.numr
Substitution2: "'sups' Superscript in Latin lookup 63 subtable" uni2075
Substitution2: "'subs' Subscript in Latin lookup 62 subtable" uni2085
AlternateSubs2: "'aalt' Access All Alternates in Latin lookup 44 subtable" uni2085 five.dnom five.numr uni2075
EndChar

StartChar: six
Encoding: 54 54 27
Width: 500
GlyphClass: 2
Flags: W
LayerCount: 2
Fore
SplineSet
261 -10 m 0,0,1
 168 -10 168 -10 117.5 69 c 128,-1,2
 67 148 67 148 67 284 c 0,3,4
 67 452 67 452 127 541 c 128,-1,5
 187 630 187 630 287 630 c 0,6,7
 366 630 366 630 424 573 c 1,8,-1
 380 523 l 1,9,-1
 373 515 l 1,10,-1
 368 520 l 1,11,12
 367 528 367 528 363.5 535 c 128,-1,13
 360 542 360 542 347 553 c 0,14,15
 325 568 325 568 289 568 c 0,16,17
 269 568 269 568 243 558.5 c 128,-1,18
 217 549 217 549 193 523 c 128,-1,19
 169 497 169 497 153 449.5 c 128,-1,20
 137 402 137 402 136 327 c 1,21,22
 157 362 157 362 192.5 382 c 128,-1,23
 228 402 228 402 268 402 c 0,24,25
 315 402 315 402 353.5 376.5 c 128,-1,26
 392 351 392 351 415.5 305.5 c 128,-1,27
 439 260 439 260 439 198 c 256,28,29
 439 136 439 136 415 89 c 128,-1,30
 391 42 391 42 351 16 c 128,-1,31
 311 -10 311 -10 261 -10 c 0,0,1
264 52 m 0,32,33
 307 52 307 52 339 89 c 128,-1,34
 371 126 371 126 371 197 c 0,35,36
 371 247 371 247 354.5 279 c 128,-1,37
 338 311 338 311 313 326 c 128,-1,38
 288 341 288 341 262 341 c 0,39,40
 226 341 226 341 193 316.5 c 128,-1,41
 160 292 160 292 140 257 c 1,42,43
 136 223 136 223 142.5 187 c 128,-1,44
 149 151 149 151 165.5 120.5 c 128,-1,45
 182 90 182 90 207 71 c 128,-1,46
 232 52 232 52 264 52 c 0,32,33
EndSplineSet
Substitution2: "'frac' Diagonal Fractions in Latin lookup 67 subtable" six.numr
Substitution2: "'dnom' Denominators in Latin lookup 65 subtable" six.dnom
Substitution2: "'numr' Numerators in Latin lookup 64 subtable" six.numr
Substitution2: "'sups' Superscript in Latin lookup 63 subtable" uni2076
Substitution2: "'subs' Subscript in Latin lookup 62 subtable" uni2086
AlternateSubs2: "'aalt' Access All Alternates in Latin lookup 44 subtable" uni2086 six.dnom six.numr uni2076
EndChar

StartChar: seven
Encoding: 55 55 28
Width: 500
GlyphClass: 2
Flags: W
LayerCount: 2
Fore
SplineSet
155 0 m 1,0,1
 199 143 199 143 246 281 c 128,-1,2
 293 419 293 419 345 557 c 1,3,-1
 79 557 l 1,4,-1
 79 623 l 1,5,-1
 432 623 l 1,6,-1
 432 584 l 1,7,8
 375 440 375 440 325 295 c 128,-1,9
 275 150 275 150 234 0 c 1,10,-1
 155 0 l 1,0,1
EndSplineSet
Substitution2: "'frac' Diagonal Fractions in Latin lookup 67 subtable" seven.numr
Substitution2: "'dnom' Denominators in Latin lookup 65 subtable" seven.dnom
Substitution2: "'numr' Numerators in Latin lookup 64 subtable" seven.numr
Substitution2: "'sups' Superscript in Latin lookup 63 subtable" uni2077
Substitution2: "'subs' Subscript in Latin lookup 62 subtable" uni2087
AlternateSubs2: "'aalt' Access All Alternates in Latin lookup 44 subtable" uni2087 seven.dnom seven.numr uni2077
EndChar

StartChar: eight
Encoding: 56 56 29
Width: 500
GlyphClass: 2
Flags: W
LayerCount: 2
Fore
SplineSet
250 -10 m 256,0,1
 191 -10 191 -10 148.5 12.5 c 128,-1,2
 106 35 106 35 83 73 c 128,-1,3
 60 111 60 111 60 157 c 0,4,5
 60 211 60 211 94 258 c 128,-1,6
 128 305 128 305 185 331 c 1,7,8
 142 353 142 353 116 392.5 c 128,-1,9
 90 432 90 432 90 477 c 0,10,11
 90 541 90 541 131.5 586 c 128,-1,12
 173 631 173 631 255 631 c 0,13,14
 313 631 313 631 349 611 c 128,-1,15
 385 591 385 591 402.5 557.5 c 128,-1,16
 420 524 420 524 420 483 c 0,17,18
 420 438 420 438 393 397.5 c 128,-1,19
 366 357 366 357 321 333 c 1,20,21
 375 308 375 308 408 261.5 c 128,-1,22
 441 215 441 215 441 161 c 0,23,24
 441 112 441 112 417.5 73.5 c 128,-1,25
 394 35 394 35 351.5 12.5 c 128,-1,26
 309 -10 309 -10 250 -10 c 256,0,1
267 358 m 1,27,28
 304 378 304 378 328 412 c 128,-1,29
 352 446 352 446 352 481 c 256,30,31
 352 516 352 516 327.5 544 c 128,-1,32
 303 572 303 572 253 572 c 0,33,34
 204 572 204 572 180.5 545 c 128,-1,35
 157 518 157 518 157 484 c 0,36,37
 157 438 157 438 189 410.5 c 128,-1,38
 221 383 221 383 267 358 c 1,27,28
252 53 m 0,39,40
 310 53 310 53 340 84.5 c 128,-1,41
 370 116 370 116 370 161 c 0,42,43
 370 207 370 207 334 245.5 c 128,-1,44
 298 284 298 284 237 303 c 1,45,46
 192 284 192 284 162 246.5 c 128,-1,47
 132 209 132 209 132 164 c 256,48,49
 132 119 132 119 163.5 86 c 128,-1,50
 195 53 195 53 252 53 c 0,39,40
EndSplineSet
Substitution2: "'frac' Diagonal Fractions in Latin lookup 67 subtable" eight.numr
Substitution2: "'dnom' Denominators in Latin lookup 65 subtable" eight.dnom
Substitution2: "'numr' Numerators in Latin lookup 64 subtable" eight.numr
Substitution2: "'sups' Superscript in Latin lookup 63 subtable" uni2078
Substitution2: "'subs' Subscript in Latin lookup 62 subtable" uni2088
AlternateSubs2: "'aalt' Access All Alternates in Latin lookup 44 subtable" uni2088 eight.dnom eight.numr uni2078
EndChar

StartChar: nine
Encoding: 57 57 30
Width: 500
GlyphClass: 2
Flags: W
LayerCount: 2
Fore
SplineSet
228 -10 m 0,0,1
 138 -10 138 -10 79 47 c 1,2,-1
 122 96 l 1,3,-1
 129 104 l 1,4,-1
 134 99 l 1,5,6
 135 91 135 91 139 84.5 c 128,-1,7
 143 78 143 78 155 67 c 0,8,9
 182 50 182 50 222 50 c 0,10,11
 270 50 270 50 301.5 83 c 128,-1,12
 333 116 333 116 350 168.5 c 128,-1,13
 367 221 367 221 371 281 c 1,14,15
 347 260 347 260 318 248 c 128,-1,16
 289 236 289 236 249 236 c 0,17,18
 198 236 198 236 157 260 c 128,-1,19
 116 284 116 284 92 326.5 c 128,-1,20
 68 369 68 369 68 424 c 0,21,22
 68 483 68 483 92 528.5 c 128,-1,23
 116 574 116 574 157 600.5 c 128,-1,24
 198 627 198 627 247 627 c 0,25,26
 306 627 306 627 349 593 c 128,-1,27
 392 559 392 559 415.5 499.5 c 128,-1,28
 439 440 439 440 439 363 c 0,29,30
 439 175 439 175 383 83.5 c 128,-1,31
 327 -8 327 -8 228 -10 c 0,0,1
136 425 m 0,32,33
 136 366 136 366 170 331.5 c 128,-1,34
 204 297 204 297 250 297 c 0,35,36
 292 297 292 297 320 309 c 128,-1,37
 348 321 348 321 372 349 c 1,38,39
 365 566 365 566 250 566 c 0,40,41
 199 566 199 566 167.5 528.5 c 128,-1,42
 136 491 136 491 136 425 c 0,32,33
EndSplineSet
Substitution2: "'frac' Diagonal Fractions in Latin lookup 67 subtable" nine.numr
Substitution2: "'dnom' Denominators in Latin lookup 65 subtable" nine.dnom
Substitution2: "'numr' Numerators in Latin lookup 64 subtable" nine.numr
Substitution2: "'sups' Superscript in Latin lookup 63 subtable" uni2079
Substitution2: "'subs' Subscript in Latin lookup 62 subtable" uni2089
AlternateSubs2: "'aalt' Access All Alternates in Latin lookup 44 subtable" uni2089 nine.dnom nine.numr uni2079
EndChar

StartChar: colon
Encoding: 58 58 31
Width: 500
GlyphClass: 2
Flags: W
LayerCount: 2
Fore
SplineSet
250 408 m 128,-1,1
 226 408 226 408 208 425 c 128,-1,2
 190 442 190 442 190 463 c 0,3,4
 190 464 190 464 190 465 c 0,5,6
 190 490 190 490 208 506 c 0,7,8
 227 523 227 523 250 523 c 0,9,10
 272 523 272 523 291 506 c 128,-1,11
 310 489 310 489 310 465 c 0,12,13
 310 442 310 442 292 425 c 128,-1,0
 274 408 274 408 250 408 c 128,-1,1
250 89 m 0,14,15
 225 89 225 89 207 106 c 0,16,17
 190 122 190 122 190 146 c 0,18,19
 191 170 191 170 208.5 187 c 128,-1,20
 226 204 226 204 250 204 c 0,21,22
 272 204 272 204 291 187 c 128,-1,23
 310 170 310 170 310 146 c 0,24,25
 309 123 309 123 291.5 106 c 128,-1,26
 274 89 274 89 250 89 c 0,14,15
EndSplineSet
EndChar

StartChar: semicolon
Encoding: 59 59 32
Width: 500
GlyphClass: 2
Flags: W
LayerCount: 2
Fore
SplineSet
252 408 m 0,0,1
 230 408 230 408 212 425 c 128,-1,2
 194 442 194 442 194 465 c 0,3,4
 194 466 194 466 194 467 c 128,-1,5
 194 468 194 468 194 469 c 128,-1,6
 194 470 194 470 194 471 c 128,-1,7
 194 472 194 472 194 473 c 128,-1,8
 194 474 194 474 194 475 c 128,-1,9
 194 476 194 476 194 476 c 2,10,11
 194 477 194 477 194 477 c 2,12,13
 194 478 194 478 194 479 c 128,-1,14
 194 480 194 480 194 481 c 0,15,16
 194 490 194 490 212 506 c 0,17,18
 231 523 231 523 252 523 c 0,19,20
 276 523 276 523 294 506 c 128,-1,21
 312 489 312 489 312 465 c 0,22,23
 312 464 312 464 312 463 c 128,-1,24
 312 462 312 462 312 461 c 128,-1,25
 312 460 312 460 312 459 c 128,-1,26
 312 458 312 458 312 457 c 128,-1,27
 312 456 312 456 312 455 c 128,-1,28
 312 454 312 454 312 454 c 2,29,30
 312 453 312 453 312 452 c 128,-1,31
 312 451 312 451 312 450 c 0,32,33
 314 443 314 443 294 425 c 0,34,35
 275 408 275 408 252 408 c 0,0,1
214 -68 m 1,36,-1
 180 -38 l 1,37,38
 208 -12 208 -12 226 18 c 0,39,40
 242 45 242 45 244 67 c 0,41,42
 245 82 245 82 232 92 c 0,43,44
 214 106 214 106 206 114 c 0,45,46
 194 126 194 126 194 144 c 0,47,48
 194 146 194 146 194 147 c 128,-1,49
 194 148 194 148 194 149 c 128,-1,50
 194 150 194 150 194 151 c 128,-1,51
 194 152 194 152 194 153 c 128,-1,52
 194 154 194 154 194 155 c 128,-1,53
 194 156 194 156 194 156 c 2,54,55
 194 157 194 157 194 157 c 2,56,57
 194 158 194 158 194 159 c 128,-1,58
 194 160 194 160 194 161 c 0,59,60
 194 169 194 169 210 186 c 128,-1,61
 226 203 226 203 252 203 c 0,62,63
 279 203 279 203 300 180 c 0,64,65
 320 158 320 158 320 123 c 0,66,67
 320 122 320 122 320 120 c 0,68,69
 320 42 320 42 214 -68 c 1,36,-1
EndSplineSet
EndChar

StartChar: less
Encoding: 60 60 33
Width: 500
GlyphClass: 2
Flags: W
LayerCount: 2
Fore
SplineSet
461 47 m 1,0,-1
 35 296 l 1,1,-1
 35 344 l 1,2,-1
 458 567 l 1,3,-1
 458 496 l 1,4,-1
 111 319 l 1,5,-1
 461 123 l 1,6,-1
 461 47 l 1,0,-1
EndSplineSet
Substitution2: "Single Substitution lookup 36 subtable" CR.3.0
Substitution2: "Single Substitution lookup 25 subtable" CR.6.0
Substitution2: "Single Substitution lookup 21 subtable" CR.7.0
Substitution2: "Single Substitution lookup 17 subtable" CR.8.0
Substitution2: "Single Substitution lookup 13 subtable" CR.9.0
Substitution2: "Single Substitution lookup 9 subtable" CR.10.0
Substitution2: "Single Substitution lookup 4 subtable" CR.11.0
EndChar

StartChar: equal
Encoding: 61 61 34
Width: 500
GlyphClass: 2
Flags: W
LayerCount: 2
Fore
SplineSet
45 389 m 1,0,-1
 45 450 l 1,1,-1
 456 450 l 1,2,-1
 456 389 l 1,3,-1
 45 389 l 1,0,-1
45 182 m 1,4,-1
 45 243 l 1,5,-1
 456 243 l 1,6,-1
 456 182 l 1,7,-1
 45 182 l 1,4,-1
EndSplineSet
Substitution2: "Single Substitution lookup 42 subtable" CR.1.0
Substitution2: "Single Substitution lookup 33 subtable" CR.4.0
Substitution2: "Single Substitution lookup 32 subtable" CR.4.1
Substitution2: "Single Substitution lookup 24 subtable" CR.6.1
Substitution2: "Single Substitution lookup 23 subtable" lig.6
Substitution2: "Single Substitution lookup 20 subtable" CR.7.1
Substitution2: "Single Substitution lookup 3 subtable" CR.11.1
Substitution2: "Single Substitution lookup 2 subtable" CR.11.2
EndChar

StartChar: greater
Encoding: 62 62 35
Width: 500
GlyphClass: 2
Flags: W
LayerCount: 2
Fore
SplineSet
40 47 m 1,0,-1
 40 123 l 1,1,-1
 389 319 l 1,2,-1
 42 496 l 1,3,-1
 42 567 l 1,4,-1
 466 344 l 1,5,-1
 466 296 l 1,6,-1
 40 47 l 1,0,-1
EndSplineSet
Substitution2: "Single Substitution lookup 41 subtable" lig.1
Substitution2: "Single Substitution lookup 38 subtable" lig.2
Substitution2: "Single Substitution lookup 31 subtable" lig.4
Substitution2: "Single Substitution lookup 27 subtable" lig.5
Substitution2: "Single Substitution lookup 19 subtable" lig.7
Substitution2: "Single Substitution lookup 15 subtable" lig.8
Substitution2: "Single Substitution lookup 1 subtable" lig.11
EndChar

StartChar: question
Encoding: 63 63 36
Width: 500
GlyphClass: 2
Flags: W
LayerCount: 2
Fore
SplineSet
226 226 m 2,0,1
 226 270 226 270 240 298.5 c 128,-1,2
 254 327 254 327 275 347.5 c 128,-1,3
 296 368 296 368 316.5 388.5 c 128,-1,4
 337 409 337 409 351 436 c 128,-1,5
 365 463 365 463 365 504 c 0,6,7
 365 549 365 549 334 576.5 c 128,-1,8
 303 604 303 604 254 604 c 0,9,10
 179 604 179 604 136 558 c 0,11,12
 126 545 126 545 123.5 538 c 128,-1,13
 121 531 121 531 122 523 c 1,14,-1
 118 517 l 1,15,-1
 110 523 l 1,16,-1
 64 561 l 1,17,18
 96 610 96 610 139.5 637.5 c 128,-1,19
 183 665 183 665 257 665 c 0,20,21
 337 665 337 665 385.5 623 c 128,-1,22
 434 581 434 581 434 509 c 0,23,24
 434 460 434 460 419.5 429 c 128,-1,25
 405 398 405 398 384 375.5 c 128,-1,26
 363 353 363 353 342 333.5 c 128,-1,27
 321 314 321 314 306.5 289 c 128,-1,28
 292 264 292 264 292 226 c 2,29,-1
 292 185 l 1,30,-1
 226 185 l 1,31,-1
 226 226 l 2,0,1
261 -11 m 0,32,33
 237 -11 237 -11 220 6 c 128,-1,34
 203 23 203 23 203 46 c 256,35,36
 203 69 203 69 220 86 c 128,-1,37
 237 103 237 103 261 103 c 0,38,39
 284 103 284 103 301 86 c 128,-1,40
 318 69 318 69 318 46 c 256,41,42
 318 23 318 23 301 6 c 128,-1,43
 284 -11 284 -11 261 -11 c 0,32,33
EndSplineSet
EndChar

StartChar: at
Encoding: 64 64 37
Width: 500
GlyphClass: 2
Flags: W
LayerCount: 2
Fore
SplineSet
295 -11 m 0,0,1
 246 -11 246 -11 198.5 8.5 c 128,-1,2
 151 28 151 28 113.5 67.5 c 128,-1,3
 76 107 76 107 53.5 168 c 128,-1,4
 31 229 31 229 31 313 c 0,5,6
 31 396 31 396 52 456.5 c 128,-1,7
 73 517 73 517 108 556 c 128,-1,8
 143 595 143 595 185.5 614 c 128,-1,9
 228 633 228 633 271 633 c 0,10,11
 321 633 321 633 365 608 c 128,-1,12
 409 583 409 583 437 533 c 128,-1,13
 465 483 465 483 465 408 c 2,14,-1
 465 175 l 1,15,-1
 405 175 l 1,16,-1
 405 213 l 1,17,18
 366 167 366 167 308 167 c 0,19,20
 251 167 251 167 213 204.5 c 128,-1,21
 175 242 175 242 175 299 c 0,22,23
 175 367 175 367 232 409.5 c 128,-1,24
 289 452 289 452 402 444 c 1,25,26
 402 500 402 500 366 539.5 c 128,-1,27
 330 579 330 579 268 579 c 0,28,29
 221 579 221 579 180 552 c 128,-1,30
 139 525 139 525 114 468.5 c 128,-1,31
 89 412 89 412 89 324 c 0,32,33
 89 228 89 228 120 166.5 c 128,-1,34
 151 105 151 105 199.5 75.5 c 128,-1,35
 248 46 248 46 301 46 c 0,36,37
 359 46 359 46 408 79 c 1,38,-1
 435 30 l 1,39,40
 370 -11 370 -11 295 -11 c 0,0,1
317 222 m 0,41,42
 363 222 363 222 384 260 c 128,-1,43
 405 298 405 298 405 394 c 1,44,45
 323 402 323 402 280 376.5 c 128,-1,46
 237 351 237 351 237 303 c 0,47,48
 237 266 237 266 257 244 c 128,-1,49
 277 222 277 222 317 222 c 0,41,42
EndSplineSet
EndChar

StartChar: A
Encoding: 65 65 38
Width: 500
GlyphClass: 2
Flags: W
AnchorPoint: "Anchor-3" 414 0 basechar 0
AnchorPoint: "Anchor-2" 250 0 basechar 0
AnchorPoint: "Anchor-0" 250 623 basechar 0
LayerCount: 2
Fore
SplineSet
412 0 m 1,0,-1
 349 182 l 1,1,-1
 148 182 l 1,2,-1
 85 0 l 1,3,-1
 16 0 l 1,4,-1
 246 634 l 1,5,-1
 254 634 l 1,6,-1
 484 0 l 1,7,-1
 412 0 l 1,0,-1
249 474 m 1,8,-1
 167 236 l 1,9,-1
 331 236 l 1,10,-1
 249 474 l 1,8,-1
EndSplineSet
Substitution2: "Single Substitution lookup 72 subtable" ordfeminine
Substitution2: "'aalt' Access All Alternates in Latin lookup 43 subtable" ordfeminine
EndChar

StartChar: B
Encoding: 66 66 39
Width: 500
GlyphClass: 2
Flags: W
AnchorPoint: "Anchor-2" 250 0 basechar 0
AnchorPoint: "Anchor-0" 250 623 basechar 0
LayerCount: 2
Fore
SplineSet
48 0 m 1,0,-1
 48 623 l 1,1,-1
 225 623 l 2,2,3
 333 623 333 623 382.5 581 c 128,-1,4
 432 539 432 539 432 472 c 0,5,6
 432 428 432 428 408 389 c 128,-1,7
 384 350 384 350 340 334 c 1,8,9
 393 316 393 316 425 271.5 c 128,-1,10
 457 227 457 227 457 175 c 0,11,12
 457 96 457 96 401 48 c 128,-1,13
 345 0 345 0 224 0 c 2,14,-1
 48 0 l 1,0,-1
117 365 m 1,15,-1
 215 365 l 2,16,17
 298 365 298 365 330 393 c 128,-1,18
 362 421 362 421 362 464 c 0,19,20
 362 505 362 505 331 534.5 c 128,-1,21
 300 564 300 564 226 564 c 2,22,-1
 117 564 l 1,23,-1
 117 365 l 1,15,-1
117 61 m 1,24,-1
 236 61 l 2,25,26
 301 61 301 61 342 87.5 c 128,-1,27
 383 114 383 114 383 179 c 0,28,29
 383 235 383 235 346.5 270.5 c 128,-1,30
 310 306 310 306 219 306 c 2,31,-1
 117 306 l 1,32,-1
 117 61 l 1,24,-1
EndSplineSet
EndChar

StartChar: C
Encoding: 67 67 40
Width: 500
GlyphClass: 2
Flags: W
AnchorPoint: "Anchor-2" 280 0 basechar 0
AnchorPoint: "Anchor-0" 270 623 basechar 0
LayerCount: 2
Fore
SplineSet
285 -10 m 0,0,1
 218 -10 218 -10 162.5 23.5 c 128,-1,2
 107 57 107 57 74.5 127.5 c 128,-1,3
 42 198 42 198 41 308 c 0,4,5
 41 400 41 400 62.5 461.5 c 128,-1,6
 84 523 84 523 119 559.5 c 128,-1,7
 154 596 154 596 196.5 612 c 128,-1,8
 239 628 239 628 281 628 c 0,9,10
 349 628 349 628 397 594.5 c 128,-1,11
 445 561 445 561 469 505 c 1,12,-1
 409 477 l 1,13,-1
 400 473 l 1,14,-1
 397 480 l 1,15,16
 400 488 400 488 397 494.5 c 128,-1,17
 394 501 394 501 386 515 c 0,18,19
 361 549 361 549 334.5 560.5 c 128,-1,20
 308 572 308 572 279 572 c 0,21,22
 200 572 200 572 154.5 503.5 c 128,-1,23
 109 435 109 435 109 313 c 0,24,25
 109 235 109 235 132.5 175.5 c 128,-1,26
 156 116 156 116 195 83 c 128,-1,27
 234 50 234 50 282 50 c 0,28,29
 320 50 320 50 353.5 70.5 c 128,-1,30
 387 91 387 91 408 126 c 1,31,-1
 460 92 l 1,32,33
 430 42 430 42 388 16 c 128,-1,34
 346 -10 346 -10 285 -10 c 0,0,1
EndSplineSet
EndChar

StartChar: D
Encoding: 68 68 41
Width: 500
GlyphClass: 2
Flags: W
AnchorPoint: "Anchor-4" 250 312 basechar 0
AnchorPoint: "Anchor-2" 250 0 basechar 0
AnchorPoint: "Anchor-0" 220 623 basechar 0
LayerCount: 2
Fore
SplineSet
54 -1 m 1,0,-1
 54 623 l 1,1,-1
 199 623 l 2,2,3
 279 623 279 623 323.5 601 c 128,-1,4
 368 579 368 579 399 538 c 0,5,6
 460 456 460 456 460 308 c 1,7,8
 456 213 456 213 428.5 143.5 c 128,-1,9
 401 74 401 74 342.5 36.5 c 128,-1,10
 284 -1 284 -1 187 -1 c 2,11,-1
 54 -1 l 1,0,-1
120 54 m 1,12,-1
 184 54 l 2,13,14
 291 54 291 54 341 118.5 c 128,-1,15
 391 183 391 183 390 304 c 0,16,17
 389 426 389 426 344.5 495 c 128,-1,18
 300 564 300 564 195 564 c 2,19,-1
 120 564 l 1,20,-1
 120 54 l 1,12,-1
EndSplineSet
EndChar

StartChar: E
Encoding: 69 69 42
Width: 500
GlyphClass: 2
Flags: W
AnchorPoint: "Anchor-3" 450 10 basechar 0
AnchorPoint: "Anchor-2" 250 0 basechar 0
AnchorPoint: "Anchor-0" 259 623 basechar 0
LayerCount: 2
Fore
SplineSet
59 0 m 1,0,-1
 59 624 l 1,1,-1
 441 624 l 1,2,-1
 441 562 l 1,3,-1
 125 562 l 1,4,-1
 125 357 l 1,5,-1
 386 357 l 1,6,-1
 386 293 l 1,7,-1
 125 293 l 1,8,-1
 125 62 l 1,9,-1
 438 62 l 1,10,-1
 438 0 l 1,11,-1
 59 0 l 1,0,-1
EndSplineSet
EndChar

StartChar: F
Encoding: 70 70 43
Width: 500
GlyphClass: 2
Flags: W
AnchorPoint: "Anchor-2" 250 0 basechar 0
AnchorPoint: "Anchor-0" 250 623 basechar 0
LayerCount: 2
Fore
SplineSet
78 0 m 1,0,-1
 78 624 l 1,1,-1
 437 624 l 1,2,-1
 437 563 l 1,3,-1
 148 563 l 1,4,-1
 148 367 l 1,5,-1
 381 367 l 1,6,-1
 381 306 l 1,7,-1
 148 306 l 1,8,-1
 148 0 l 1,9,-1
 78 0 l 1,0,-1
EndSplineSet
EndChar

StartChar: G
Encoding: 71 71 44
Width: 500
GlyphClass: 2
Flags: W
AnchorPoint: "Anchor-2" 266 0 basechar 0
AnchorPoint: "Anchor-0" 274 623 basechar 0
LayerCount: 2
Fore
SplineSet
277 -10 m 0,0,1
 203 -10 203 -10 148.5 29 c 128,-1,2
 94 68 94 68 65 139 c 128,-1,3
 36 210 36 210 36 304 c 0,4,5
 35 405 35 405 58.5 469 c 128,-1,6
 82 533 82 533 119.5 568 c 128,-1,7
 157 603 157 603 198.5 616.5 c 128,-1,8
 240 630 240 630 274 630 c 0,9,10
 330 629 330 629 381 600.5 c 128,-1,11
 432 572 432 572 458 525 c 1,12,-1
 409 486 l 1,13,-1
 401 479 l 1,14,-1
 397 485 l 1,15,16
 398 493 398 493 394.5 499.5 c 128,-1,17
 391 506 391 506 380 519 c 0,18,19
 357 545 357 545 332.5 556.5 c 128,-1,20
 308 568 308 568 273 568 c 0,21,22
 228 568 228 568 189.5 545.5 c 128,-1,23
 151 523 151 523 128 469 c 128,-1,24
 105 415 105 415 105 319 c 0,25,26
 105 189 105 189 151.5 120.5 c 128,-1,27
 198 52 198 52 277 52 c 0,28,29
 304 52 304 52 337.5 61 c 128,-1,30
 371 70 371 70 395 90 c 1,31,-1
 395 238 l 1,32,-1
 282 238 l 1,33,-1
 282 299 l 1,34,-1
 460 299 l 1,35,-1
 460 55 l 1,36,37
 371 -10 371 -10 277 -10 c 0,0,1
EndSplineSet
EndChar

StartChar: H
Encoding: 72 72 45
Width: 500
GlyphClass: 2
Flags: W
AnchorPoint: "Anchor-4" 250 312 basechar 0
AnchorPoint: "Anchor-2" 250 0 basechar 0
AnchorPoint: "Anchor-0" 250 623 basechar 0
LayerCount: 2
Fore
SplineSet
50 623 m 1,0,-1
 132 623 l 1,1,-1
 132 616 l 1,2,3
 126 610 126 610 124.5 603 c 128,-1,4
 123 596 123 596 123 579 c 2,5,-1
 123 357 l 1,6,-1
 367 357 l 1,7,-1
 367 623 l 1,8,-1
 449 623 l 1,9,-1
 449 616 l 1,10,11
 443 610 443 610 441.5 603 c 128,-1,12
 440 596 440 596 440 579 c 2,13,-1
 440 0 l 1,14,-1
 366 0 l 1,15,-1
 366 297 l 1,16,-1
 123 297 l 1,17,-1
 123 0 l 1,18,-1
 50 0 l 1,19,-1
 50 623 l 1,0,-1
EndSplineSet
EndChar

StartChar: I
Encoding: 73 73 46
Width: 500
GlyphClass: 2
Flags: W
AnchorPoint: "Anchor-3" 353 0 basechar 0
AnchorPoint: "Anchor-2" 250 0 basechar 0
AnchorPoint: "Anchor-0" 239 623 basechar 0
LayerCount: 2
Fore
SplineSet
81 0 m 1,0,-1
 81 59 l 1,1,-1
 204 59 l 1,2,-1
 204 564 l 1,3,-1
 88 564 l 1,4,-1
 88 623 l 1,5,-1
 397 623 l 1,6,-1
 397 564 l 1,7,-1
 274 564 l 1,8,-1
 274 58 l 1,9,-1
 403 58 l 1,10,-1
 403 0 l 1,11,-1
 81 0 l 1,0,-1
EndSplineSet
EndChar

StartChar: J
Encoding: 74 74 47
Width: 500
GlyphClass: 2
Flags: W
AnchorPoint: "Anchor-2" 250 0 basechar 0
AnchorPoint: "Anchor-0" 330 623 basechar 0
LayerCount: 2
Fore
SplineSet
196 -11 m 0,0,1
 108 -11 108 -11 49 58 c 1,2,-1
 89 108 l 1,3,-1
 96 116 l 1,4,-1
 101 112 l 1,5,6
 102 103 102 103 105.5 96 c 128,-1,7
 109 89 109 89 122 78 c 0,8,9
 139 65 139 65 156.5 58 c 128,-1,10
 174 51 174 51 196 51 c 0,11,12
 246 51 246 51 269 86 c 128,-1,13
 292 121 292 121 292 208 c 2,14,-1
 292 564 l 1,15,-1
 172 564 l 1,16,-1
 172 623 l 1,17,-1
 457 623 l 1,18,-1
 457 564 l 1,19,-1
 361 564 l 1,20,-1
 361 209 l 2,21,22
 364 129 364 129 340.5 80.5 c 128,-1,23
 317 32 317 32 278.5 10.5 c 128,-1,24
 240 -11 240 -11 196 -11 c 0,0,1
EndSplineSet
EndChar

StartChar: K
Encoding: 75 75 48
Width: 500
GlyphClass: 2
Flags: W
LayerCount: 2
Fore
SplineSet
166 312 m 1,0,-1
 117 258 l 1,1,-1
 117 0 l 1,2,-1
 42 0 l 1,3,-1
 42 623 l 1,4,-1
 126 623 l 1,5,-1
 126 616 l 1,6,7
 120 610 120 610 118.5 603 c 128,-1,8
 117 596 117 596 117 579 c 2,9,-1
 117 336 l 1,10,-1
 377 628 l 1,11,12
 388 626 388 626 401 624.5 c 128,-1,13
 414 623 414 623 429 623 c 2,14,-1
 455 623 l 1,15,-1
 219 354 l 1,16,-1
 471 0 l 1,17,-1
 381 -4 l 1,18,-1
 166 312 l 1,0,-1
EndSplineSet
EndChar

StartChar: L
Encoding: 76 76 49
Width: 500
GlyphClass: 2
Flags: W
AnchorPoint: "Anchor-4" 107 312 basechar 0
AnchorPoint: "Anchor-2" 250 0 basechar 0
AnchorPoint: "Anchor-1" 180 457 basechar 0
AnchorPoint: "Anchor-0" 200 623 basechar 0
LayerCount: 2
Fore
SplineSet
66 623 m 1,0,-1
 148 623 l 1,1,-1
 148 616 l 1,2,3
 142 610 142 610 140.5 603 c 128,-1,4
 139 596 139 596 139 579 c 2,5,-1
 139 60 l 1,6,-1
 439 60 l 1,7,-1
 439 0 l 1,8,-1
 66 0 l 1,9,-1
 66 623 l 1,0,-1
EndSplineSet
EndChar

StartChar: M
Encoding: 77 77 50
Width: 500
GlyphClass: 2
Flags: W
AnchorPoint: "Anchor-2" 250 0 basechar 0
AnchorPoint: "Anchor-0" 250 623 basechar 0
LayerCount: 2
Fore
SplineSet
41 0 m 1,0,-1
 41 623 l 1,1,-1
 96 623 l 1,2,-1
 250 318 l 1,3,-1
 407 624 l 1,4,-1
 460 624 l 1,5,-1
 460 0 l 1,6,-1
 394 0 l 1,7,-1
 394 470 l 1,8,-1
 259 219 l 1,9,-1
 232 219 l 1,10,-1
 106 467 l 1,11,-1
 106 0 l 1,12,-1
 41 0 l 1,0,-1
EndSplineSet
EndChar

StartChar: N
Encoding: 78 78 51
Width: 500
GlyphClass: 2
Flags: W
AnchorPoint: "Anchor-2" 250 0 basechar 0
AnchorPoint: "Anchor-0" 250 623 basechar 0
LayerCount: 2
Fore
SplineSet
50 623 m 1,0,-1
 118 623 l 1,1,-1
 380 161 l 1,2,-1
 380 623 l 1,3,-1
 456 623 l 1,4,-1
 456 616 l 1,5,6
 450 610 450 610 448.5 603 c 128,-1,7
 447 596 447 596 447 579 c 2,8,-1
 447 0 l 1,9,-1
 392 0 l 1,10,-1
 117 490 l 1,11,-1
 117 0 l 1,12,-1
 50 0 l 1,13,-1
 50 623 l 1,0,-1
EndSplineSet
EndChar

StartChar: O
Encoding: 79 79 52
Width: 500
GlyphClass: 2
Flags: W
AnchorPoint: "Anchor-4" 250 312 basechar 0
AnchorPoint: "Anchor-3" 287 10 basechar 0
AnchorPoint: "Anchor-2" 250 0 basechar 0
AnchorPoint: "Anchor-1" 379 584 basechar 0
AnchorPoint: "Anchor-0" 250 623 basechar 0
LayerCount: 2
Fore
SplineSet
250 -11 m 256,0,1
 143 -11 143 -11 85 72 c 128,-1,2
 27 155 27 155 27 308 c 0,3,4
 27 456 27 456 85 541.5 c 128,-1,5
 143 627 143 627 250 627 c 256,6,7
 357 627 357 627 415 541.5 c 128,-1,8
 473 456 473 456 473 308 c 0,9,10
 473 155 473 155 415 72 c 128,-1,11
 357 -11 357 -11 250 -11 c 256,0,1
250 50 m 256,12,13
 321 50 321 50 361 117 c 128,-1,14
 401 184 401 184 401 308 c 0,15,16
 401 426 401 426 361 496 c 128,-1,17
 321 566 321 566 250 566 c 256,18,19
 179 566 179 566 139 496 c 128,-1,20
 99 426 99 426 99 308 c 0,21,22
 99 184 99 184 139 117 c 128,-1,23
 179 50 179 50 250 50 c 256,12,13
EndSplineSet
Substitution2: "Single Substitution lookup 72 subtable" ordmasculine
Substitution2: "'aalt' Access All Alternates in Latin lookup 43 subtable" ordmasculine
EndChar

StartChar: P
Encoding: 80 80 53
Width: 500
GlyphClass: 2
Flags: W
AnchorPoint: "Anchor-2" 93 0 basechar 0
AnchorPoint: "Anchor-0" 250 623 basechar 0
LayerCount: 2
Fore
SplineSet
59 0 m 1,0,-1
 59 623 l 1,1,-1
 259 623 l 2,2,3
 329 623 329 623 372 599 c 128,-1,4
 415 575 415 575 435.5 535.5 c 128,-1,5
 456 496 456 496 456 447 c 0,6,7
 456 399 456 399 436 360 c 128,-1,8
 416 321 416 321 374 298 c 128,-1,9
 332 275 332 275 264 275 c 2,10,-1
 131 275 l 1,11,-1
 131 0 l 1,12,-1
 59 0 l 1,0,-1
131 337 m 1,13,-1
 256 337 l 2,14,15
 324 337 324 337 354 366.5 c 128,-1,16
 384 396 384 396 384 445 c 0,17,18
 384 491 384 491 354 524 c 128,-1,19
 324 557 324 557 257 557 c 2,20,-1
 131 557 l 1,21,-1
 131 337 l 1,13,-1
EndSplineSet
EndChar

StartChar: Q
Encoding: 81 81 54
Width: 500
GlyphClass: 2
Flags: W
AnchorPoint: "Anchor-2" 250 0 basechar 0
AnchorPoint: "Anchor-0" 250 623 basechar 0
LayerCount: 2
Fore
SplineSet
401 -145 m 1,0,1
 303 -149 303 -149 264.5 -116.5 c 128,-1,2
 226 -84 226 -84 226 -7 c 1,3,4
 176 0 176 0 131 36 c 128,-1,5
 86 72 86 72 57.5 140 c 128,-1,6
 29 208 29 208 29 308 c 0,7,8
 29 401 29 401 50 463.5 c 128,-1,9
 71 526 71 526 105 562.5 c 128,-1,10
 139 599 139 599 177.5 614.5 c 128,-1,11
 216 630 216 630 251 630 c 0,12,13
 308 630 308 630 359 597 c 128,-1,14
 410 564 410 564 442 494 c 128,-1,15
 474 424 474 424 471 311 c 0,16,17
 471 34 471 34 287 -7 c 1,18,19
 289 -40 289 -40 304 -61 c 128,-1,20
 319 -82 319 -82 361 -82 c 2,21,-1
 442 -77 l 1,22,-1
 440 -145 l 1,23,-1
 401 -145 l 1,0,1
256 55 m 0,24,25
 290 55 290 55 324 78 c 128,-1,26
 358 101 358 101 381 153.5 c 128,-1,27
 404 206 404 206 404 294 c 0,28,29
 404 378 404 378 389.5 431.5 c 128,-1,30
 375 485 375 485 351.5 515 c 128,-1,31
 328 545 328 545 301.5 557 c 128,-1,32
 275 569 275 569 251 569 c 0,33,34
 199 569 199 569 164.5 534 c 128,-1,35
 130 499 130 499 113.5 443 c 128,-1,36
 97 387 97 387 97 323 c 0,37,38
 97 244 97 244 116 183.5 c 128,-1,39
 135 123 135 123 170.5 89 c 128,-1,40
 206 55 206 55 256 55 c 0,24,25
EndSplineSet
EndChar

StartChar: R
Encoding: 82 82 55
Width: 500
GlyphClass: 2
Flags: W
AnchorPoint: "Anchor-2" 250 0 basechar 0
AnchorPoint: "Anchor-0" 250 623 basechar 0
LayerCount: 2
Fore
SplineSet
56 0 m 1,0,-1
 56 623 l 1,1,-1
 240 623 l 2,2,3
 350 623 350 623 398.5 574 c 128,-1,4
 447 525 447 525 447 445 c 0,5,6
 447 410 447 410 431.5 375 c 128,-1,7
 416 340 416 340 387.5 314 c 128,-1,8
 359 288 359 288 320 278 c 1,9,-1
 464 0 l 1,10,-1
 386 0 l 1,11,-1
 248 275 l 1,12,-1
 127 275 l 1,13,-1
 127 0 l 1,14,-1
 56 0 l 1,0,-1
127 337 m 1,15,-1
 248 337 l 2,16,17
 315 337 315 337 345 366.5 c 128,-1,18
 375 396 375 396 375 445 c 0,19,20
 375 492 375 492 345 524.5 c 128,-1,21
 315 557 315 557 248 557 c 2,22,-1
 127 557 l 1,23,-1
 127 337 l 1,15,-1
EndSplineSet
EndChar

StartChar: S
Encoding: 83 83 56
Width: 500
GlyphClass: 2
Flags: W
AnchorPoint: "Anchor-2" 247 0 basechar 0
AnchorPoint: "Anchor-0" 261 623 basechar 0
LayerCount: 2
Fore
SplineSet
247 -10 m 0,0,1
 126 -10 126 -10 52 69 c 1,2,-1
 88 132 l 1,3,-1
 92 141 l 1,4,-1
 99 137 l 1,5,6
 101 130 101 130 104 121.5 c 128,-1,7
 107 113 107 113 118 101 c 0,8,9
 144 79 144 79 178.5 66 c 128,-1,10
 213 53 213 53 257 53 c 0,11,12
 313 53 313 53 349.5 84.5 c 128,-1,13
 386 116 386 116 386 160 c 0,14,15
 386 189 386 189 374.5 209 c 128,-1,16
 363 229 363 229 332.5 248 c 128,-1,17
 302 267 302 267 243 292 c 0,18,19
 146 330 146 330 109 377 c 128,-1,20
 72 424 72 424 72 477 c 0,21,22
 72 546 72 546 123 588.5 c 128,-1,23
 174 631 174 631 262 631 c 0,24,25
 313 631 313 631 358 610.5 c 128,-1,26
 403 590 403 590 435 553 c 1,27,-1
 390 493 l 1,28,-1
 384 497 l 1,29,30
 383 505 383 505 380 513 c 128,-1,31
 377 521 377 521 366 533 c 0,32,33
 342 556 342 556 315 564.5 c 128,-1,34
 288 573 288 573 251 573 c 0,35,36
 202 573 202 573 173 546 c 128,-1,37
 144 519 144 519 144 482 c 0,38,39
 144 454 144 454 156.5 432.5 c 128,-1,40
 169 411 169 411 202 390 c 128,-1,41
 235 369 235 369 298 344 c 0,42,43
 359 319 359 319 393 293.5 c 128,-1,44
 427 268 427 268 441 238.5 c 128,-1,45
 455 209 455 209 455 170 c 0,46,47
 455 127 455 127 433.5 85.5 c 128,-1,48
 412 44 412 44 366 17 c 128,-1,49
 320 -10 320 -10 247 -10 c 0,0,1
EndSplineSet
EndChar

StartChar: T
Encoding: 84 84 57
Width: 500
GlyphClass: 2
Flags: W
AnchorPoint: "Anchor-4" 244 312 basechar 0
AnchorPoint: "Anchor-2" 250 0 basechar 0
AnchorPoint: "Anchor-0" 250 623 basechar 0
LayerCount: 2
Fore
SplineSet
208 0 m 1,0,-1
 208 561 l 1,1,-1
 31 561 l 1,2,-1
 31 624 l 1,3,-1
 463 624 l 1,4,-1
 463 561 l 1,5,-1
 279 561 l 1,6,-1
 279 0 l 1,7,-1
 208 0 l 1,0,-1
EndSplineSet
EndChar

StartChar: U
Encoding: 85 85 58
Width: 500
GlyphClass: 2
Flags: W
AnchorPoint: "Anchor-3" 302 10 basechar 0
AnchorPoint: "Anchor-2" 250 0 basechar 0
AnchorPoint: "Anchor-1" 454 623 basechar 0
AnchorPoint: "Anchor-0" 250 623 basechar 0
LayerCount: 2
Fore
SplineSet
251 -11 m 0,0,1
 151 -11 151 -11 100.5 48.5 c 128,-1,2
 50 108 50 108 50 215 c 2,3,-1
 50 623 l 1,4,-1
 128 623 l 1,5,-1
 128 616 l 1,6,7
 122 610 122 610 120.5 603 c 128,-1,8
 119 596 119 596 119 579 c 2,9,-1
 119 214 l 2,10,11
 119 138 119 138 148.5 93 c 128,-1,12
 178 48 178 48 252 48 c 0,13,14
 327 48 327 48 357 93 c 128,-1,15
 387 138 387 138 387 217 c 2,16,-1
 387 623 l 1,17,-1
 454 623 l 1,18,-1
 454 218 l 2,19,20
 454 100 454 100 398.5 44.5 c 128,-1,21
 343 -11 343 -11 251 -11 c 0,0,1
EndSplineSet
EndChar

StartChar: V
Encoding: 86 86 59
Width: 500
GlyphClass: 2
Flags: W
AnchorPoint: "Anchor-2" 250 0 basechar 0
AnchorPoint: "Anchor-0" 250 623 basechar 0
LayerCount: 2
Fore
SplineSet
237 -4 m 1,0,-1
 25 624 l 1,1,-1
 98 624 l 1,2,-1
 258 145 l 1,3,-1
 409 623 l 1,4,-1
 478 623 l 1,5,-1
 269 -4 l 1,6,-1
 237 -4 l 1,0,-1
EndSplineSet
EndChar

StartChar: W
Encoding: 87 87 60
Width: 500
GlyphClass: 2
Flags: W
AnchorPoint: "Anchor-2" 254 0 basechar 0
AnchorPoint: "Anchor-0" 260 623 basechar 0
LayerCount: 2
Fore
SplineSet
117 0 m 1,0,-1
 17 623 l 1,1,-1
 82 623 l 1,2,-1
 149 202 l 1,3,-1
 249 577 l 1,4,-1
 271 577 l 1,5,-1
 372 200 l 1,6,-1
 429 623 l 1,7,-1
 488 623 l 1,8,-1
 389 0 l 1,9,-1
 362 0 l 1,10,-1
 255 407 l 1,11,-1
 146 0 l 1,12,-1
 117 0 l 1,0,-1
EndSplineSet
EndChar

StartChar: X
Encoding: 88 88 61
Width: 500
GlyphClass: 2
Flags: W
AnchorPoint: "Anchor-2" 250 0 basechar 0
AnchorPoint: "Anchor-0" 250 623 basechar 0
LayerCount: 2
Fore
SplineSet
41 0 m 1,0,-1
 211 318 l 1,1,-1
 44 624 l 1,2,-1
 119 624 l 1,3,-1
 250 387 l 1,4,-1
 379 624 l 1,5,-1
 449 624 l 1,6,-1
 291 319 l 1,7,-1
 468 0 l 1,8,-1
 389 0 l 1,9,-1
 251 247 l 1,10,-1
 117 0 l 1,11,-1
 41 0 l 1,0,-1
EndSplineSet
EndChar

StartChar: Y
Encoding: 89 89 62
Width: 500
GlyphClass: 2
Flags: W
AnchorPoint: "Anchor-2" 258 0 basechar 0
AnchorPoint: "Anchor-0" 250 623 basechar 0
LayerCount: 2
Fore
SplineSet
220 0 m 1,0,-1
 220 246 l 1,1,-1
 28 623 l 1,2,-1
 108 623 l 1,3,-1
 261 321 l 1,4,-1
 399 623 l 1,5,-1
 473 623 l 1,6,-1
 296 246 l 1,7,-1
 296 0 l 1,8,-1
 220 0 l 1,0,-1
EndSplineSet
EndChar

StartChar: Z
Encoding: 90 90 63
Width: 500
GlyphClass: 2
Flags: W
AnchorPoint: "Anchor-2" 270 0 basechar 0
AnchorPoint: "Anchor-0" 260 623 basechar 0
LayerCount: 2
Fore
SplineSet
50 49 m 1,0,-1
 364 560 l 1,1,-1
 62 560 l 1,2,-1
 62 623 l 1,3,-1
 447 623 l 1,4,-1
 447 574 l 1,5,-1
 138 62 l 1,6,-1
 419 62 l 2,7,8
 436 62 436 62 443 64 c 128,-1,9
 450 66 450 66 456 72 c 1,10,-1
 463 72 l 1,11,-1
 463 0 l 1,12,-1
 50 0 l 1,13,-1
 50 49 l 1,0,-1
EndSplineSet
EndChar

StartChar: bracketleft
Encoding: 91 91 64
Width: 500
GlyphClass: 2
Flags: W
LayerCount: 2
Fore
SplineSet
131 -128 m 1,0,-1
 131 719 l 1,1,-1
 417 719 l 1,2,-1
 417 652 l 1,3,-1
 195 652 l 1,4,-1
 195 -64 l 1,5,-1
 418 -64 l 1,6,-1
 418 -128 l 1,7,-1
 131 -128 l 1,0,-1
EndSplineSet
EndChar

StartChar: backslash
Encoding: 92 92 65
Width: 500
GlyphClass: 2
Flags: W
LayerCount: 2
Fore
SplineSet
378 -42 m 1,0,-1
 64 634 l 1,1,-1
 123 665 l 1,2,-1
 437 -13 l 1,3,-1
 378 -42 l 1,0,-1
EndSplineSet
EndChar

StartChar: asciicircum
Encoding: 94 94 67
Width: 500
GlyphClass: 2
Flags: W
LayerCount: 2
Fore
SplineSet
143 343 m 1,0,-1
 93 367 l 1,1,-1
 246 623 l 1,2,-1
 268 623 l 1,3,-1
 403 368 l 1,4,-1
 350 343 l 1,5,-1
 253 518 l 1,6,-1
 143 343 l 1,0,-1
EndSplineSet
Substitution2: "'ss01' Style Set 1 in Latin lookup 78 subtable" asciicircum.ss01
Substitution2: "'salt' Stylistic Alternatives in Latin lookup 77 subtable" asciicircum.ss01
Substitution2: "'aalt' Access All Alternates in Latin lookup 43 subtable" asciicircum.ss01
EndChar

StartChar: underscore
Encoding: 95 95 68
Width: 500
GlyphClass: 2
Flags: W
LayerCount: 2
Fore
SplineSet
35 -80 m 1,0,-1
 35 -19 l 1,1,-1
 466 -19 l 1,2,-1
 466 -80 l 1,3,-1
 35 -80 l 1,0,-1
EndSplineSet
EndChar

StartChar: grave
Encoding: 96 96 69
Width: 500
GlyphClass: 2
Flags: W
AnchorPoint: "Anchor-0" 229 609 basechar 0
LayerCount: 2
Fore
SplineSet
255 507 m 1,0,-1
 154 642 l 1,1,-1
 209 682 l 1,2,-1
 293 533 l 1,3,-1
 255 507 l 1,0,-1
EndSplineSet
Substitution2: "'case' Case-Sensitive Forms in Latin lookup 74 subtable" grave.case
Substitution2: "Single Substitution lookup 50 subtable" grave.case
Substitution2: "Single Substitution lookup 49 subtable" grave.case
Substitution2: "Single Substitution lookup 47 subtable" grave.case
Substitution2: "Single Substitution lookup 46 subtable" grave.case
Substitution2: "'aalt' Access All Alternates in Latin lookup 43 subtable" grave.case
EndChar

StartChar: a
Encoding: 97 97 70
Width: 500
GlyphClass: 2
Flags: W
AnchorPoint: "Anchor-3" 385 0 basechar 0
AnchorPoint: "Anchor-2" 250 0 basechar 0
AnchorPoint: "Anchor-0" 250 457 basechar 0
LayerCount: 2
Fore
SplineSet
211 -11 m 0,0,1
 133 -11 133 -11 91 24.5 c 128,-1,2
 49 60 49 60 49 115 c 0,3,4
 49 164 49 164 80 199.5 c 128,-1,5
 111 235 111 235 163.5 254.5 c 128,-1,6
 216 274 216 274 279 274 c 0,7,8
 302 274 302 274 327.5 273 c 128,-1,9
 353 272 353 272 382 268 c 1,10,11
 376 348 376 348 340.5 378 c 128,-1,12
 305 408 305 408 239 408 c 0,13,14
 206 408 206 408 174 395.5 c 128,-1,15
 142 383 142 383 116 357 c 1,16,-1
 81 403 l 1,17,18
 113 435 113 435 155 451 c 128,-1,19
 197 467 197 467 244 467 c 0,20,21
 305 467 305 467 350 447 c 128,-1,22
 395 427 395 427 420 378 c 128,-1,23
 445 329 445 329 445 243 c 2,24,-1
 445 0 l 1,25,-1
 367 0 l 1,26,-1
 367 70 l 1,27,28
 350 37 350 37 323.5 19.5 c 128,-1,29
 297 2 297 2 267.5 -4.5 c 128,-1,30
 238 -11 238 -11 211 -11 c 0,0,1
121 119 m 0,31,32
 121 76 121 76 149 60 c 128,-1,33
 177 44 177 44 218 44 c 0,34,35
 292 44 292 44 335 87.5 c 128,-1,36
 378 131 378 131 382 213 c 1,37,38
 330 220 330 220 285 220 c 0,39,40
 213 220 213 220 167 196 c 128,-1,41
 121 172 121 172 121 119 c 0,31,32
EndSplineSet
Substitution2: "Single Substitution lookup 72 subtable" ordfeminine
Substitution2: "'aalt' Access All Alternates in Latin lookup 43 subtable" ordfeminine
EndChar

StartChar: b
Encoding: 98 98 71
Width: 500
GlyphClass: 2
Flags: W
AnchorPoint: "Anchor-2" 250 0 basechar 0
AnchorPoint: "Anchor-0" 250 457 basechar 0
LayerCount: 2
Fore
SplineSet
266 -11 m 0,0,1
 224 -11 224 -11 189 8 c 128,-1,2
 154 27 154 27 131 60 c 1,3,-1
 106 0 l 1,4,-1
 60 0 l 1,5,-1
 60 665 l 1,6,-1
 142 665 l 1,7,-1
 142 658 l 1,8,9
 136 652 136 652 134.5 645 c 128,-1,10
 133 638 133 638 133 621 c 2,11,-1
 133 387 l 1,12,13
 155 424 155 424 192.5 446 c 128,-1,14
 230 468 230 468 269 468 c 0,15,16
 352 468 352 468 404.5 409.5 c 128,-1,17
 457 351 457 351 457 233 c 0,18,19
 457 151 457 151 429 97 c 128,-1,20
 401 43 401 43 357.5 16 c 128,-1,21
 314 -11 314 -11 266 -11 c 0,0,1
257 53 m 0,22,23
 289 53 289 53 318 69.5 c 128,-1,24
 347 86 347 86 365 125 c 128,-1,25
 383 164 383 164 383 229 c 0,26,27
 383 320 383 320 348.5 363 c 128,-1,28
 314 406 314 406 259 406 c 256,29,30
 204 406 204 406 168.5 356.5 c 128,-1,31
 133 307 133 307 133 227 c 0,32,33
 133 148 133 148 161.5 100.5 c 128,-1,34
 190 53 190 53 257 53 c 0,22,23
EndSplineSet
EndChar

StartChar: c
Encoding: 99 99 72
Width: 500
GlyphClass: 2
Flags: W
AnchorPoint: "Anchor-2" 286 0 basechar 0
AnchorPoint: "Anchor-0" 286 457 basechar 0
LayerCount: 2
Fore
SplineSet
285 -11 m 0,0,1
 219 -11 219 -11 167 20 c 128,-1,2
 115 51 115 51 85.5 105 c 128,-1,3
 56 159 56 159 56 228 c 256,4,5
 56 297 56 297 85.5 350.5 c 128,-1,6
 115 404 115 404 166.5 435 c 128,-1,7
 218 466 218 466 284 466 c 0,8,9
 340 466 340 466 384.5 443.5 c 128,-1,10
 429 421 429 421 457 381 c 1,11,-1
 412 337 l 1,12,-1
 405 330 l 1,13,-1
 400 335 l 1,14,15
 400 343 400 343 396.5 350 c 128,-1,16
 393 357 393 357 381 369 c 0,17,18
 359 389 359 389 334 397 c 128,-1,19
 309 405 309 405 276 405 c 0,20,21
 238 405 238 405 204.5 384 c 128,-1,22
 171 363 171 363 150.5 324.5 c 128,-1,23
 130 286 130 286 130 233 c 0,24,25
 130 182 130 182 150.5 141.5 c 128,-1,26
 171 101 171 101 207 77.5 c 128,-1,27
 243 54 243 54 289 54 c 0,28,29
 358 54 358 54 408 110 c 1,30,-1
 450 61 l 1,31,32
 383 -11 383 -11 285 -11 c 0,0,1
EndSplineSet
EndChar

StartChar: d
Encoding: 100 100 73
Width: 500
GlyphClass: 2
Flags: W
AnchorPoint: "Anchor-4" 360 549 basechar 0
AnchorPoint: "Anchor-2" 250 0 basechar 0
AnchorPoint: "Anchor-1" 470 457 basechar 0
AnchorPoint: "Anchor-0" 250 457 basechar 0
LayerCount: 2
Fore
SplineSet
234 -10 m 0,0,1
 188 -10 188 -10 144.5 16.5 c 128,-1,2
 101 43 101 43 73 97 c 128,-1,3
 45 151 45 151 45 233 c 0,4,5
 45 317 45 317 74 369 c 128,-1,6
 103 421 103 421 147.5 445 c 128,-1,7
 192 469 192 469 238 469 c 0,8,9
 285 469 285 469 319.5 447.5 c 128,-1,10
 354 426 354 426 371 390 c 1,11,-1
 371 665 l 1,12,-1
 447 665 l 1,13,-1
 447 658 l 1,14,15
 441 652 441 652 439.5 645 c 128,-1,16
 438 638 438 638 438 621 c 2,17,-1
 439 71 l 2,18,19
 439 53 439 53 440.5 35.5 c 128,-1,20
 442 18 442 18 449 0 c 1,21,-1
 378 0 l 1,22,23
 371 18 371 18 369.5 35.5 c 128,-1,24
 368 53 368 53 368 71 c 1,25,26
 346 34 346 34 312 12 c 128,-1,27
 278 -10 278 -10 234 -10 c 0,0,1
245 53 m 0,28,29
 289 53 289 53 315.5 77 c 128,-1,30
 342 101 342 101 353.5 141.5 c 128,-1,31
 365 182 365 182 365 231 c 0,32,33
 365 308 365 308 335 359 c 128,-1,34
 305 410 305 410 239 410 c 0,35,36
 178 410 178 410 146.5 365 c 128,-1,37
 115 320 115 320 115 244 c 0,38,39
 115 158 115 158 148 105.5 c 128,-1,40
 181 53 181 53 245 53 c 0,28,29
EndSplineSet
EndChar

StartChar: e
Encoding: 101 101 74
Width: 500
GlyphClass: 2
Flags: W
AnchorPoint: "Anchor-3" 318 9 basechar 0
AnchorPoint: "Anchor-2" 280 0 basechar 0
AnchorPoint: "Anchor-0" 260 457 basechar 0
LayerCount: 2
Fore
SplineSet
272 -10 m 0,0,1
 172 -10 172 -10 110.5 51 c 128,-1,2
 49 112 49 112 49 227 c 0,3,4
 49 305 49 305 77.5 358.5 c 128,-1,5
 106 412 106 412 153.5 440 c 128,-1,6
 201 468 201 468 259 468 c 0,7,8
 311 468 311 468 353 445 c 128,-1,9
 395 422 395 422 420 374 c 128,-1,10
 445 326 445 326 445 251 c 0,11,12
 445 243 445 243 444.5 234.5 c 128,-1,13
 444 226 444 226 443 218 c 1,14,-1
 118 218 l 1,15,16
 122 130 122 130 167.5 89 c 128,-1,17
 213 48 213 48 274 48 c 0,18,19
 346 48 346 48 392 99 c 1,20,-1
 432 60 l 1,21,22
 374 -10 374 -10 272 -10 c 0,0,1
121 274 m 1,23,-1
 372 274 l 1,24,25
 372 338 372 338 339.5 375.5 c 128,-1,26
 307 413 307 413 254 413 c 0,27,28
 207 413 207 413 169 379.5 c 128,-1,29
 131 346 131 346 121 274 c 1,23,-1
EndSplineSet
EndChar

StartChar: f
Encoding: 102 102 75
Width: 500
GlyphClass: 2
Flags: W
LayerCount: 2
Fore
SplineSet
162 400 m 1,0,-1
 63 400 l 1,1,-1
 63 457 l 1,2,-1
 162 457 l 1,3,-1
 162 495 l 2,4,5
 162 587 162 587 209.5 629 c 128,-1,6
 257 671 257 671 330 671 c 0,7,8
 373 671 373 671 410.5 655.5 c 128,-1,9
 448 640 448 640 473 608 c 1,10,-1
 435 555 l 1,11,-1
 429 547 l 1,12,-1
 423 551 l 1,13,14
 422 559 422 559 419 567 c 128,-1,15
 416 575 416 575 405 587 c 0,16,17
 389 601 389 601 373 607 c 128,-1,18
 357 613 357 613 332 613 c 0,19,20
 289 613 289 613 260 586.5 c 128,-1,21
 231 560 231 560 231 495 c 2,22,-1
 231 457 l 1,23,-1
 381 457 l 1,24,-1
 381 400 l 1,25,-1
 231 400 l 1,26,-1
 231 0 l 1,27,-1
 162 0 l 1,28,-1
 162 400 l 1,0,-1
EndSplineSet
EndChar

StartChar: g
Encoding: 103 103 76
Width: 500
GlyphClass: 2
Flags: W
AnchorPoint: "Anchor-2" 240 -162 basechar 0
AnchorPoint: "Anchor-0" 226 457 basechar 0
LayerCount: 2
Fore
SplineSet
226 155 m 0,0,1
 187 155 187 155 155 169 c 1,2,3
 137 147 137 147 137 127 c 0,4,5
 137 103 137 103 167 92.5 c 128,-1,6
 197 82 197 82 277 82 c 0,7,8
 347 82 347 82 383 67 c 128,-1,9
 419 52 419 52 432 26 c 128,-1,10
 445 0 445 0 445 -34 c 0,11,12
 445 -69 445 -69 426 -101 c 128,-1,13
 407 -133 407 -133 363.5 -152.5 c 128,-1,14
 320 -172 320 -172 247 -172 c 0,15,16
 151 -172 151 -172 94.5 -142.5 c 128,-1,17
 38 -113 38 -113 38 -54 c 0,18,19
 38 -17 38 -17 59 9.5 c 128,-1,20
 80 36 80 36 109 49 c 1,21,22
 76 71 76 71 76 110 c 0,23,24
 76 132 76 132 87 153 c 128,-1,25
 98 174 98 174 117 194 c 1,26,27
 66 239 66 239 66 315 c 0,28,29
 66 359 66 359 85.5 395 c 128,-1,30
 105 431 105 431 141 452.5 c 128,-1,31
 177 474 177 474 226 474 c 0,32,33
 263 474 263 474 292.5 461.5 c 128,-1,34
 322 449 322 449 343 427 c 1,35,36
 369 451 369 451 398 461.5 c 128,-1,37
 427 472 427 472 466 469 c 1,38,-1
 475 410 l 1,39,40
 445 413 445 413 418.5 409 c 128,-1,41
 392 405 392 405 369 390 c 1,42,43
 386 356 386 356 386 315 c 0,44,45
 386 271 386 271 366.5 234.5 c 128,-1,46
 347 198 347 198 311.5 176.5 c 128,-1,47
 276 155 276 155 226 155 c 0,0,1
226 215 m 0,48,49
 270 215 270 215 298 244.5 c 128,-1,50
 326 274 326 274 326 315 c 256,51,52
 326 356 326 356 298 385.5 c 128,-1,53
 270 415 270 415 226 415 c 0,54,55
 183 415 183 415 154.5 385.5 c 128,-1,56
 126 356 126 356 126 315 c 256,57,58
 126 274 126 274 154.5 244.5 c 128,-1,59
 183 215 183 215 226 215 c 0,48,49
104 -46 m 0,60,61
 104 -80 104 -80 142.5 -99 c 128,-1,62
 181 -118 181 -118 248 -118 c 0,63,64
 316 -118 316 -118 347.5 -97.5 c 128,-1,65
 379 -77 379 -77 379 -45 c 0,66,67
 379 -23 379 -23 371 -9 c 128,-1,68
 363 5 363 5 338 12 c 128,-1,69
 313 19 313 19 262 19 c 0,70,71
 227 19 227 19 198.5 22 c 128,-1,72
 170 25 170 25 147 32 c 1,73,74
 124 16 124 16 114 -0.5 c 128,-1,75
 104 -17 104 -17 104 -46 c 0,60,61
EndSplineSet
EndChar

StartChar: h
Encoding: 104 104 77
Width: 500
GlyphClass: 2
Flags: W
AnchorPoint: "Anchor-4" 130 549 basechar 0
AnchorPoint: "Anchor-2" 250 0 basechar 0
AnchorPoint: "Anchor-0" 118 665 basechar 0
LayerCount: 2
Fore
SplineSet
73 665 m 1,0,-1
 152 665 l 1,1,-1
 152 658 l 1,2,3
 146 652 146 652 144.5 645 c 128,-1,4
 143 638 143 638 143 621 c 2,5,-1
 143 376 l 1,6,7
 170 418 170 418 210.5 443 c 128,-1,8
 251 468 251 468 293 468 c 0,9,10
 355 468 355 468 393.5 424.5 c 128,-1,11
 432 381 432 381 432 277 c 2,12,-1
 432 0 l 1,13,-1
 362 0 l 1,14,-1
 362 275 l 2,15,16
 362 347 362 347 337.5 376 c 128,-1,17
 313 405 313 405 278 405 c 0,18,19
 248 405 248 405 216.5 388 c 128,-1,20
 185 371 185 371 164 339.5 c 128,-1,21
 143 308 143 308 143 263 c 2,22,-1
 143 0 l 1,23,-1
 73 0 l 1,24,-1
 73 665 l 1,0,-1
EndSplineSet
EndChar

StartChar: k
Encoding: 107 107 80
Width: 500
GlyphClass: 2
Flags: W
AnchorPoint: "Anchor-2" 250 0 basechar 0
AnchorPoint: "Anchor-0" 104 665 basechar 0
LayerCount: 2
Fore
SplineSet
199 229 m 1,0,-1
 139 173 l 1,1,-1
 139 0 l 1,2,-1
 66 0 l 1,3,-1
 66 665 l 1,4,-1
 148 665 l 1,5,-1
 148 658 l 1,6,7
 142 652 142 652 140.5 645 c 128,-1,8
 139 638 139 638 139 621 c 2,9,-1
 139 247 l 1,10,-1
 368 459 l 1,11,12
 379 457 379 457 392.5 455.5 c 128,-1,13
 406 454 406 454 421 454 c 2,14,-1
 447 454 l 1,15,-1
 255 273 l 1,16,-1
 479 0 l 1,17,-1
 386 -4 l 1,18,-1
 199 229 l 1,0,-1
EndSplineSet
EndChar

StartChar: l
Encoding: 108 108 81
Width: 500
GlyphClass: 2
Flags: W
AnchorPoint: "Anchor-4" 250 229 basechar 0
AnchorPoint: "Anchor-2" 250 0 basechar 0
AnchorPoint: "Anchor-1" 480 457 basechar 0
AnchorPoint: "Anchor-0" 250 665 basechar 0
LayerCount: 2
Fore
SplineSet
79 0 m 1,0,-1
 79 58 l 1,1,-1
 214 58 l 1,2,-1
 214 607 l 1,3,-1
 85 607 l 1,4,-1
 85 665 l 1,5,-1
 287 665 l 1,6,-1
 287 58 l 1,7,-1
 421 58 l 1,8,-1
 421 0 l 1,9,-1
 79 0 l 1,0,-1
EndSplineSet
EndChar

StartChar: m
Encoding: 109 109 82
Width: 500
GlyphClass: 2
Flags: W
AnchorPoint: "Anchor-2" 250 0 basechar 0
AnchorPoint: "Anchor-0" 250 457 basechar 0
LayerCount: 2
Fore
SplineSet
38 0 m 1,0,-1
 38 457 l 1,1,-1
 104 457 l 1,2,-1
 104 412 l 1,3,4
 120 437 120 437 145 452.5 c 128,-1,5
 170 468 170 468 197 468 c 0,6,7
 227 468 227 468 249.5 449 c 128,-1,8
 272 430 272 430 278 401 c 1,9,10
 291 431 291 431 319 449.5 c 128,-1,11
 347 468 347 468 381 468 c 0,12,13
 428 468 428 468 449.5 434.5 c 128,-1,14
 471 401 471 401 469 351 c 2,15,-1
 469 0 l 1,16,-1
 403 0 l 1,17,-1
 403 324 l 2,18,19
 403 366 403 366 397.5 385 c 128,-1,20
 392 404 392 404 382 409.5 c 128,-1,21
 372 415 372 415 360 415 c 0,22,23
 341 415 341 415 324.5 397.5 c 128,-1,24
 308 380 308 380 297.5 354 c 128,-1,25
 287 328 287 328 287 302 c 2,26,-1
 287 0 l 1,27,-1
 220 0 l 1,28,-1
 220 318 l 2,29,30
 220 375 220 375 209.5 394 c 128,-1,31
 199 413 199 413 170 413 c 0,32,33
 148 413 148 413 126 384.5 c 128,-1,34
 104 356 104 356 104 305 c 2,35,-1
 104 0 l 1,36,-1
 38 0 l 1,0,-1
EndSplineSet
EndChar

StartChar: n
Encoding: 110 110 83
Width: 500
GlyphClass: 2
Flags: W
AnchorPoint: "Anchor-2" 260 0 basechar 0
AnchorPoint: "Anchor-0" 265 457 basechar 0
LayerCount: 2
Fore
SplineSet
72 0 m 1,0,-1
 72 457 l 1,1,-1
 142 457 l 1,2,-1
 142 376 l 1,3,4
 168 418 168 418 209.5 443 c 128,-1,5
 251 468 251 468 297 468 c 0,6,7
 353 468 353 468 392 424.5 c 128,-1,8
 431 381 431 381 431 277 c 2,9,-1
 431 0 l 1,10,-1
 361 0 l 1,11,-1
 361 275 l 2,12,13
 361 347 361 347 336.5 376 c 128,-1,14
 312 405 312 405 277 405 c 0,15,16
 247 405 247 405 215.5 387.5 c 128,-1,17
 184 370 184 370 163 338.5 c 128,-1,18
 142 307 142 307 142 263 c 2,19,-1
 142 0 l 1,20,-1
 72 0 l 1,0,-1
EndSplineSet
EndChar

StartChar: o
Encoding: 111 111 84
Width: 500
GlyphClass: 2
Flags: W
AnchorPoint: "Anchor-4" 250 229 basechar 0
AnchorPoint: "Anchor-3" 286 10 basechar 0
AnchorPoint: "Anchor-2" 250 0 basechar 0
AnchorPoint: "Anchor-1" 359 436 basechar 0
AnchorPoint: "Anchor-0" 250 457 basechar 0
LayerCount: 2
Fore
SplineSet
250 -8 m 256,0,1
 188 -8 188 -8 140.5 22.5 c 128,-1,2
 93 53 93 53 66 106.5 c 128,-1,3
 39 160 39 160 39 229 c 0,4,5
 39 299 39 299 66 352.5 c 128,-1,6
 93 406 93 406 140.5 436.5 c 128,-1,7
 188 467 188 467 250 467 c 256,8,9
 312 467 312 467 359.5 436.5 c 128,-1,10
 407 406 407 406 434 352.5 c 128,-1,11
 461 299 461 299 461 229 c 0,12,13
 461 160 461 160 434 106.5 c 128,-1,14
 407 53 407 53 359.5 22.5 c 128,-1,15
 312 -8 312 -8 250 -8 c 256,0,1
250 52 m 0,16,17
 290 52 290 52 320 75 c 128,-1,18
 350 98 350 98 367.5 138 c 128,-1,19
 385 178 385 178 385 230 c 0,20,21
 385 308 385 308 347 357.5 c 128,-1,22
 309 407 309 407 250 407 c 256,23,24
 191 407 191 407 153 357.5 c 128,-1,25
 115 308 115 308 115 230 c 0,26,27
 115 178 115 178 132.5 138 c 128,-1,28
 150 98 150 98 180.5 75 c 128,-1,29
 211 52 211 52 250 52 c 0,16,17
EndSplineSet
Substitution2: "Single Substitution lookup 72 subtable" ordmasculine
Substitution2: "'aalt' Access All Alternates in Latin lookup 43 subtable" ordmasculine
EndChar

StartChar: p
Encoding: 112 112 85
Width: 500
GlyphClass: 2
Flags: W
AnchorPoint: "Anchor-2" 270 0 basechar 0
AnchorPoint: "Anchor-0" 270 457 basechar 0
LayerCount: 2
Fore
SplineSet
60 -167 m 1,0,-1
 60 457 l 1,1,-1
 133 457 l 1,2,-1
 133 367 l 1,3,4
 149 419 149 419 186.5 443 c 128,-1,5
 224 467 224 467 272 467 c 0,6,7
 323 467 323 467 366.5 441.5 c 128,-1,8
 410 416 410 416 436.5 364 c 128,-1,9
 463 312 463 312 463 232 c 256,10,11
 463 152 463 152 435 97.5 c 128,-1,12
 407 43 407 43 363 15.5 c 128,-1,13
 319 -12 319 -12 270 -12 c 0,14,15
 229 -12 229 -12 193 7 c 128,-1,16
 157 26 157 26 134 60 c 1,17,-1
 134 -167 l 1,18,-1
 60 -167 l 1,0,-1
258 52 m 0,19,20
 290 52 290 52 320 67.5 c 128,-1,21
 350 83 350 83 369 122 c 128,-1,22
 388 161 388 161 388 229 c 0,23,24
 388 311 388 311 357 356.5 c 128,-1,25
 326 402 326 402 269 405 c 0,26,27
 232 407 232 407 201 388.5 c 128,-1,28
 170 370 170 370 151.5 327 c 128,-1,29
 133 284 133 284 133 213 c 0,30,31
 135 132 135 132 169 92 c 128,-1,32
 203 52 203 52 258 52 c 0,19,20
EndSplineSet
EndChar

StartChar: q
Encoding: 113 113 86
Width: 500
GlyphClass: 2
Flags: W
LayerCount: 2
Fore
SplineSet
370 -167 m 1,0,-1
 370 73 l 1,1,2
 349 35 349 35 312 12.5 c 128,-1,3
 275 -10 275 -10 230 -10 c 0,4,5
 178 -10 178 -10 135 20 c 128,-1,6
 92 50 92 50 67 104.5 c 128,-1,7
 42 159 42 159 42 230 c 0,8,9
 42 306 42 306 69.5 359 c 128,-1,10
 97 412 97 412 143 440.5 c 128,-1,11
 189 469 189 469 243 469 c 0,12,13
 291 469 291 469 324 448 c 128,-1,14
 357 427 357 427 374 390 c 1,15,-1
 374 457 l 1,16,-1
 442 457 l 1,17,-1
 442 -167 l 1,18,-1
 370 -167 l 1,0,-1
243 53 m 0,19,20
 295 53 295 53 331.5 97 c 128,-1,21
 368 141 368 141 368 241 c 0,22,23
 368 335 368 335 335 372.5 c 128,-1,24
 302 410 302 410 251 410 c 0,25,26
 194 410 194 410 154.5 367.5 c 128,-1,27
 115 325 115 325 115 233 c 0,28,29
 115 150 115 150 150 101.5 c 128,-1,30
 185 53 185 53 243 53 c 0,19,20
EndSplineSet
EndChar

StartChar: r
Encoding: 114 114 87
Width: 500
GlyphClass: 2
Flags: W
AnchorPoint: "Anchor-2" 270 0 basechar 0
AnchorPoint: "Anchor-0" 290 457 basechar 0
LayerCount: 2
Fore
SplineSet
119 457 m 1,0,-1
 194 457 l 1,1,-1
 192 373 l 1,2,3
 211 419 211 419 251 443.5 c 128,-1,4
 291 468 291 468 337 468 c 0,5,6
 410 468 410 468 458 418 c 1,7,-1
 426 362 l 1,8,-1
 422 353 l 1,9,-1
 415 357 l 1,10,11
 413 365 413 365 409 372 c 128,-1,12
 405 379 405 379 392 389 c 0,13,14
 376 399 376 399 362.5 402.5 c 128,-1,15
 349 406 349 406 332 406 c 0,16,17
 299 406 299 406 266.5 389 c 128,-1,18
 234 372 234 372 213 336 c 128,-1,19
 192 300 192 300 192 242 c 2,20,-1
 192 -1 l 1,21,-1
 119 -1 l 1,22,-1
 119 457 l 1,0,-1
EndSplineSet
EndChar

StartChar: s
Encoding: 115 115 88
Width: 500
GlyphClass: 2
Flags: W
LayerCount: 2
Fore
SplineSet
251 -10 m 0,0,1
 135 -10 135 -10 57 62 c 1,2,-1
 97 130 l 1,3,-1
 103 139 l 1,4,-1
 109 135 l 1,5,6
 111 127 111 127 113.5 118.5 c 128,-1,7
 116 110 116 110 127 98 c 0,8,9
 148 77 148 77 177.5 63.5 c 128,-1,10
 207 50 207 50 253 50 c 0,11,12
 308 50 308 50 338.5 69.5 c 128,-1,13
 369 89 369 89 369 123 c 0,14,15
 369 152 369 152 343.5 171 c 128,-1,16
 318 190 318 190 254 211 c 0,17,18
 175 234 175 234 128.5 268 c 128,-1,19
 82 302 82 302 82 353 c 0,20,21
 82 405 82 405 124.5 436.5 c 128,-1,22
 167 468 167 468 250 468 c 0,23,24
 314 468 314 468 356 450 c 128,-1,25
 398 432 398 432 432 396 c 1,26,-1
 391 346 l 1,27,-1
 384 338 l 1,28,-1
 379 343 l 1,29,30
 378 351 378 351 374.5 358.5 c 128,-1,31
 371 366 371 366 360 377 c 0,32,33
 337 395 337 395 308 404.5 c 128,-1,34
 279 414 279 414 252 414 c 0,35,36
 212 414 212 414 183 400 c 128,-1,37
 154 386 154 386 154 357 c 0,38,39
 154 342 154 342 164.5 327.5 c 128,-1,40
 175 313 175 313 203 298.5 c 128,-1,41
 231 284 231 284 283 269 c 0,42,43
 369 243 369 243 404.5 212.5 c 128,-1,44
 440 182 440 182 440 133 c 0,45,46
 440 95 440 95 419.5 62 c 128,-1,47
 399 29 399 29 357 9.5 c 128,-1,48
 315 -10 315 -10 251 -10 c 0,0,1
EndSplineSet
EndChar

StartChar: t
Encoding: 116 116 89
Width: 500
GlyphClass: 2
Flags: W
AnchorPoint: "Anchor-4" 213 312 basechar 0
AnchorPoint: "Anchor-2" 250 0 basechar 0
AnchorPoint: "Anchor-1" 310 457 basechar 0
AnchorPoint: "Anchor-0" 235 583 basechar 0
LayerCount: 2
Fore
SplineSet
299 -7 m 0,0,1
 240 -7 240 -7 209.5 20 c 128,-1,2
 179 47 179 47 169 103.5 c 128,-1,3
 159 160 159 160 162 248 c 2,4,-1
 168 398 l 1,5,-1
 70 398 l 1,6,-1
 70 457 l 1,7,-1
 170 457 l 1,8,-1
 174 574 l 1,9,-1
 249 583 l 1,10,-1
 259 584 l 1,11,-1
 260 577 l 1,12,13
 255 570 255 570 251.5 563 c 128,-1,14
 248 556 248 556 246 539 c 2,15,-1
 239 457 l 1,16,-1
 399 457 l 1,17,-1
 399 398 l 1,18,-1
 240 398 l 1,19,-1
 233 243 l 2,20,21
 230 167 230 167 237 125.5 c 128,-1,22
 244 84 244 84 262 68.5 c 128,-1,23
 280 53 280 53 310 53 c 0,24,25
 343 53 343 53 368.5 66 c 128,-1,26
 394 79 394 79 422 99 c 1,27,-1
 444 42 l 1,28,29
 410 17 410 17 374 5 c 128,-1,30
 338 -7 338 -7 299 -7 c 0,0,1
EndSplineSet
EndChar

StartChar: u
Encoding: 117 117 90
Width: 500
GlyphClass: 2
Flags: W
AnchorPoint: "Anchor-3" 378 0 basechar 0
AnchorPoint: "Anchor-2" 231 0 basechar 0
AnchorPoint: "Anchor-1" 432 457 basechar 0
AnchorPoint: "Anchor-0" 250 457 basechar 0
LayerCount: 2
Fore
SplineSet
221 -11 m 0,0,1
 153 -11 153 -11 108 40 c 128,-1,2
 63 91 63 91 64 202 c 2,3,-1
 65 457 l 1,4,-1
 135 457 l 1,5,-1
 135 202 l 2,6,7
 135 115 135 115 165.5 81 c 128,-1,8
 196 47 196 47 239 47 c 0,9,10
 271 47 271 47 299 64 c 128,-1,11
 327 81 327 81 344.5 116 c 128,-1,12
 362 151 362 151 362 205 c 2,13,-1
 362 457 l 1,14,-1
 432 457 l 1,15,-1
 432 71 l 2,16,17
 432 53 432 53 433.5 35.5 c 128,-1,18
 435 18 435 18 442 0 c 1,19,-1
 373 0 l 1,20,21
 366 17 366 17 364.5 35 c 128,-1,22
 363 53 363 53 363 70 c 1,23,24
 341 32 341 32 303.5 10.5 c 128,-1,25
 266 -11 266 -11 221 -11 c 0,0,1
EndSplineSet
EndChar

StartChar: v
Encoding: 118 118 91
Width: 500
GlyphClass: 2
Flags: W
AnchorPoint: "Anchor-2" 250 0 basechar 0
AnchorPoint: "Anchor-0" 250 457 basechar 0
LayerCount: 2
Fore
SplineSet
221 0 m 1,0,-1
 40 457 l 1,1,-1
 112 457 l 1,2,-1
 253 99 l 1,3,-1
 327 268 l 2,4,5
 351 323 351 323 365.5 370 c 128,-1,6
 380 417 380 417 387 457 c 1,7,-1
 455 457 l 1,8,9
 447 415 447 415 430 365 c 128,-1,10
 413 315 413 315 388 257 c 2,11,-1
 277 0 l 1,12,-1
 221 0 l 1,0,-1
EndSplineSet
EndChar

StartChar: w
Encoding: 119 119 92
Width: 500
GlyphClass: 2
Flags: W
AnchorPoint: "Anchor-2" 250 0 basechar 0
AnchorPoint: "Anchor-0" 250 457 basechar 0
LayerCount: 2
Fore
SplineSet
108 -1 m 1,0,-1
 16 457 l 1,1,-1
 79 457 l 1,2,-1
 153 90 l 1,3,-1
 231 414 l 1,4,-1
 275 414 l 1,5,-1
 372 91 l 1,6,7
 385 180 385 180 393.5 237 c 128,-1,8
 402 294 402 294 406.5 330.5 c 128,-1,9
 411 367 411 367 412.5 392 c 128,-1,10
 414 417 414 417 414 442 c 2,11,-1
 414 457 l 1,12,-1
 481 457 l 1,13,14
 451 225 451 225 405 -1 c 1,15,-1
 337 -1 l 1,16,-1
 253 295 l 1,17,-1
 173 -1 l 1,18,-1
 108 -1 l 1,0,-1
EndSplineSet
EndChar

StartChar: x
Encoding: 120 120 93
Width: 500
GlyphClass: 2
Flags: W
AnchorPoint: "Anchor-2" 250 0 basechar 0
AnchorPoint: "Anchor-0" 250 457 basechar 0
LayerCount: 2
Fore
SplineSet
47 0 m 1,0,-1
 208 232 l 1,1,-1
 50 457 l 1,2,-1
 129 457 l 1,3,-1
 248 288 l 1,4,-1
 362 457 l 1,5,-1
 436 457 l 1,6,-1
 288 235 l 1,7,-1
 456 0 l 1,8,-1
 374 0 l 1,9,-1
 248 178 l 1,10,-1
 129 0 l 1,11,-1
 47 0 l 1,0,-1
EndSplineSet
EndChar

StartChar: y
Encoding: 121 121 94
Width: 500
GlyphClass: 2
Flags: W
AnchorPoint: "Anchor-2" 370 0 basechar 0
AnchorPoint: "Anchor-0" 253 457 basechar 0
LayerCount: 2
Fore
SplineSet
127 -174 m 0,0,1
 63 -174 63 -174 22 -135 c 1,2,-1
 53 -86 l 1,3,-1
 59 -77 l 1,4,-1
 65 -81 l 1,5,6
 67 -89 67 -89 72 -94.5 c 128,-1,7
 77 -100 77 -100 91 -109 c 1,8,9
 109 -115 109 -115 131 -115 c 0,10,11
 170 -115 170 -115 192 -87.5 c 128,-1,12
 214 -60 214 -60 233 -3 c 1,13,-1
 46 457 l 1,14,-1
 121 457 l 1,15,-1
 263 91 l 1,16,-1
 323 275 l 2,17,18
 338 321 338 321 352 366 c 128,-1,19
 366 411 366 411 371 457 c 1,20,-1
 443 457 l 1,21,22
 436 411 436 411 421 364 c 128,-1,23
 406 317 406 317 389 270 c 2,24,-1
 275 -52 l 2,25,26
 251 -119 251 -119 213.5 -146.5 c 128,-1,27
 176 -174 176 -174 127 -174 c 0,0,1
EndSplineSet
EndChar

StartChar: z
Encoding: 122 122 95
Width: 500
GlyphClass: 2
Flags: W
AnchorPoint: "Anchor-2" 250 0 basechar 0
AnchorPoint: "Anchor-0" 250 457 basechar 0
LayerCount: 2
Fore
SplineSet
50 49 m 1,0,-1
 333 394 l 1,1,-1
 71 394 l 1,2,-1
 71 457 l 1,3,-1
 426 457 l 1,4,-1
 426 408 l 1,5,-1
 148 62 l 1,6,-1
 406 62 l 2,7,8
 423 62 423 62 430 64 c 128,-1,9
 437 66 437 66 443 72 c 1,10,-1
 450 72 l 1,11,-1
 450 0 l 1,12,-1
 50 0 l 1,13,-1
 50 49 l 1,0,-1
EndSplineSet
EndChar

StartChar: braceleft
Encoding: 123 123 96
Width: 500
GlyphClass: 2
Flags: W
LayerCount: 2
Fore
SplineSet
371 -95 m 2,0,1
 299 -95 299 -95 251 -79.5 c 128,-1,2
 203 -64 203 -64 180 -24 c 0,3,4
 159 11 159 11 159 73 c 0,5,6
 159 81 159 81 159 89 c 2,7,-1
 163 194 l 2,8,9
 163 263 163 263 139.5 287 c 128,-1,10
 116 311 116 311 73 311 c 2,11,-1
 53 311 l 1,12,-1
 53 370 l 1,13,-1
 72 370 l 2,14,15
 118 370 118 370 141.5 396.5 c 128,-1,16
 165 423 165 423 165 483 c 2,17,-1
 163 558 l 1,18,19
 163 741 163 741 345 741 c 2,20,-1
 408 741 l 1,21,-1
 408 681 l 1,22,-1
 326 681 l 2,23,24
 233 681 233 681 233 570 c 2,25,-1
 235 496 l 2,26,27
 235 381 235 381 148 341 c 1,28,29
 233 311 233 311 233 178 c 1,30,-1
 230 90 l 2,31,32
 230 18 230 18 259.5 -9 c 128,-1,33
 289 -36 289 -36 356 -36 c 2,34,-1
 407 -36 l 1,35,-1
 407 -95 l 1,36,-1
 371 -95 l 2,0,1
EndSplineSet
EndChar

StartChar: bar
Encoding: 124 124 97
Width: 500
GlyphClass: 2
Flags: W
LayerCount: 2
Fore
SplineSet
217 -116 m 1,0,-1
 217 727 l 1,1,-1
 284 727 l 1,2,-1
 284 -116 l 1,3,-1
 217 -116 l 1,0,-1
EndSplineSet
EndChar

StartChar: asciitilde
Encoding: 126 126 99
Width: 500
GlyphClass: 2
Flags: W
LayerCount: 2
Fore
SplineSet
348 266 m 0,0,1
 314 266 314 266 289.5 279.5 c 128,-1,2
 265 293 265 293 243.5 306.5 c 128,-1,3
 222 320 222 320 196 320 c 0,4,5
 173 320 173 320 155 310 c 128,-1,6
 137 300 137 300 120 273 c 1,7,-1
 71 295 l 1,8,9
 87 329 87 329 117.5 352 c 128,-1,10
 148 375 148 375 194 375 c 0,11,12
 220 375 220 375 239 367 c 128,-1,13
 258 359 258 359 274 348 c 128,-1,14
 290 337 290 337 306.5 329 c 128,-1,15
 323 321 323 321 344 321 c 0,16,17
 366 321 366 321 381 331 c 128,-1,18
 396 341 396 341 415 369 c 1,19,-1
 461 341 l 1,20,21
 435 299 435 299 410 282.5 c 128,-1,22
 385 266 385 266 348 266 c 0,0,1
EndSplineSet
Substitution2: "'ss01' Style Set 1 in Latin lookup 78 subtable" asciitilde.ss01
Substitution2: "'salt' Stylistic Alternatives in Latin lookup 77 subtable" asciitilde.ss01
Substitution2: "'aalt' Access All Alternates in Latin lookup 43 subtable" asciitilde.ss01
EndChar

StartChar: cent
Encoding: 162 162 102
Width: 500
GlyphClass: 2
Flags: W
AnchorPoint: "Anchor-2" 286 43 basechar 0
AnchorPoint: "Anchor-0" 286 500 basechar 0
LayerCount: 2
Fore
SplineSet
246 -73 m 1,0,-1
 194 -73 l 1,1,-1
 210 44 l 1,2,3
 140 66 140 66 98 127 c 128,-1,4
 56 188 56 188 56 271 c 0,5,6
 56 338 56 338 84 390.5 c 128,-1,7
 112 443 112 443 161 474.5 c 128,-1,8
 210 506 210 506 273 509 c 1,9,-1
 289 623 l 1,10,-1
 338 623 l 1,11,-1
 323 506 l 1,12,13
 410 492 410 492 457 424 c 1,14,-1
 412 380 l 1,15,-1
 405 373 l 1,16,-1
 400 378 l 1,17,18
 400 386 400 386 396.5 393 c 128,-1,19
 393 400 393 400 381 412 c 0,20,21
 352 438 352 438 314 445 c 1,22,-1
 269 98 l 1,23,24
 279 97 279 97 289 97 c 0,25,26
 358 97 358 97 408 153 c 1,27,-1
 450 104 l 1,28,29
 383 32 383 32 285 32 c 0,30,31
 272 32 272 32 260 33 c 1,32,-1
 246 -73 l 1,0,-1
130 276 m 0,33,34
 130 220 130 220 154.5 177 c 128,-1,35
 179 134 179 134 219 113 c 1,36,-1
 265 448 l 1,37,38
 229 445 229 445 198 423 c 128,-1,39
 167 401 167 401 148.5 363.5 c 128,-1,40
 130 326 130 326 130 276 c 0,33,34
EndSplineSet
EndChar

StartChar: sterling
Encoding: 163 163 103
Width: 500
GlyphClass: 2
Flags: W
LayerCount: 2
Fore
SplineSet
65 -8 m 1,0,-1
 39 49 l 1,1,2
 80 69 80 69 103.5 91 c 128,-1,3
 127 113 127 113 137.5 144 c 128,-1,4
 148 175 148 175 148 222 c 0,5,6
 148 260 148 260 133 321 c 1,7,-1
 67 321 l 1,8,-1
 67 378 l 1,9,-1
 119 378 l 1,10,11
 115 395 115 395 113.5 411 c 128,-1,12
 112 427 112 427 112 442 c 0,13,14
 112 497 112 497 136 537.5 c 128,-1,15
 160 578 160 578 200 600.5 c 128,-1,16
 240 623 240 623 288 623 c 0,17,18
 363 623 363 623 418 572 c 1,19,-1
 374 517 l 1,20,21
 357 537 357 537 336 551.5 c 128,-1,22
 315 566 315 566 270 566 c 0,23,24
 229 566 229 566 204 533 c 128,-1,25
 179 500 179 500 179 443 c 0,26,27
 179 430 179 430 181 414 c 128,-1,28
 183 398 183 398 187 378 c 1,29,-1
 317 378 l 1,30,-1
 317 321 l 1,31,-1
 201 321 l 1,32,33
 208 293 208 293 211 268.5 c 128,-1,34
 214 244 214 244 214 224 c 0,35,36
 214 149 214 149 178 90 c 1,37,38
 215 94 215 94 248 84 c 128,-1,39
 281 74 281 74 312.5 62.5 c 128,-1,40
 344 51 344 51 373 51 c 0,41,42
 410 51 410 51 444 79 c 1,43,-1
 470 27 l 1,44,45
 418 -15 418 -15 366 -15 c 0,46,47
 352 -15 352 -15 329.5 -8 c 128,-1,48
 307 -1 307 -1 280 7.5 c 128,-1,49
 253 16 253 16 227 23 c 128,-1,50
 201 30 201 30 180 30 c 0,51,52
 136 30 136 30 65 -8 c 1,0,-1
EndSplineSet
EndChar

StartChar: currency
Encoding: 164 164 104
Width: 500
GlyphClass: 2
Flags: W
LayerCount: 2
Fore
SplineSet
104 164 m 1,0,-1
 68 199 l 1,1,-1
 124 256 l 1,2,3
 96 296 96 296 96 345 c 0,4,5
 96 369 96 369 103 392 c 128,-1,6
 110 415 110 415 125 435 c 1,7,-1
 68 492 l 1,8,-1
 104 527 l 1,9,-1
 160 471 l 1,10,11
 201 500 201 500 251 500 c 0,12,13
 299 500 299 500 340 472 c 1,14,-1
 396 527 l 1,15,-1
 432 492 l 1,16,-1
 376 437 l 1,17,18
 406 395 406 395 406 345 c 256,19,20
 406 295 406 295 377 254 c 1,21,-1
 432 199 l 1,22,-1
 396 164 l 1,23,-1
 341 219 l 1,24,25
 321 204 321 204 298 197 c 128,-1,26
 275 190 275 190 251 190 c 0,27,28
 201 190 201 190 159 220 c 1,29,-1
 104 164 l 1,0,-1
250 245 m 0,30,31
 299 245 299 245 325 275 c 128,-1,32
 351 305 351 305 351 345 c 0,33,34
 351 386 351 386 325 416 c 128,-1,35
 299 446 299 446 250 446 c 0,36,37
 203 446 203 446 176.5 416 c 128,-1,38
 150 386 150 386 150 345 c 0,39,40
 150 305 150 305 176 275 c 128,-1,41
 202 245 202 245 250 245 c 0,30,31
EndSplineSet
EndChar

StartChar: yen
Encoding: 165 165 105
Width: 500
GlyphClass: 2
Flags: W
LayerCount: 2
Fore
SplineSet
292 0 m 1,0,-1
 224 0 l 1,1,-1
 224 98 l 1,2,-1
 84 98 l 1,3,-1
 84 154 l 1,4,-1
 224 154 l 1,5,-1
 224 217 l 1,6,-1
 84 217 l 1,7,-1
 84 274 l 1,8,-1
 224 274 l 1,9,-1
 224 295 l 1,10,-1
 36 624 l 1,11,-1
 114 624 l 1,12,-1
 259 363 l 1,13,-1
 392 623 l 1,14,-1
 466 623 l 1,15,-1
 292 295 l 1,16,-1
 292 274 l 1,17,-1
 426 274 l 1,18,-1
 426 217 l 1,19,-1
 292 217 l 1,20,-1
 292 154 l 1,21,-1
 426 154 l 1,22,-1
 426 98 l 1,23,-1
 292 98 l 1,24,-1
 292 0 l 1,0,-1
EndSplineSet
EndChar

StartChar: brokenbar
Encoding: 166 166 106
Width: 500
GlyphClass: 2
Flags: W
LayerCount: 2
Fore
SplineSet
217 295 m 1,0,-1
 217 652 l 1,1,-1
 284 652 l 1,2,-1
 284 295 l 1,3,-1
 217 295 l 1,0,-1
217 -151 m 1,4,-1
 217 196 l 1,5,-1
 284 196 l 1,6,-1
 284 -151 l 1,7,-1
 217 -151 l 1,4,-1
EndSplineSet
EndChar

StartChar: section
Encoding: 167 167 107
Width: 500
GlyphClass: 2
Flags: W
LayerCount: 2
Fore
SplineSet
238 -54 m 0,0,1
 187 -54 187 -54 141.5 -32.5 c 128,-1,2
 96 -11 96 -11 65 31 c 1,3,-1
 117 92 l 1,4,5
 125 90 125 90 125.5 85 c 128,-1,6
 126 80 126 80 130 70 c 128,-1,7
 134 60 134 60 154 41 c 0,8,9
 186 12 186 12 234 12 c 0,10,11
 283 12 283 12 310 35 c 128,-1,12
 337 58 337 58 337 91 c 0,13,14
 337 126 337 126 313 147 c 128,-1,15
 289 168 289 168 220 188 c 0,16,17
 143 213 143 213 111 242 c 128,-1,18
 79 271 79 271 79 316 c 0,19,20
 79 349 79 349 101.5 376.5 c 128,-1,21
 124 404 124 404 161 417 c 1,22,23
 94 457 94 457 94 530 c 0,24,25
 94 568 94 568 115.5 600.5 c 128,-1,26
 137 633 137 633 174 652.5 c 128,-1,27
 211 672 211 672 257 672 c 0,28,29
 306 672 306 672 347.5 648.5 c 128,-1,30
 389 625 389 625 413 583 c 1,31,-1
 356 533 l 1,32,33
 352 537 352 537 350 544 c 0,34,35
 346 570 346 570 320 591.5 c 128,-1,36
 294 613 294 613 256 613 c 0,37,38
 219 613 219 613 193 590.5 c 128,-1,39
 167 568 167 568 167 536 c 0,40,41
 167 505 167 505 183.5 487.5 c 128,-1,42
 200 470 200 470 235 455.5 c 128,-1,43
 270 441 270 441 326 419 c 1,44,45
 418 375 418 375 418 305 c 0,46,47
 418 275 418 275 397.5 248.5 c 128,-1,48
 377 222 377 222 344 209 c 1,49,50
 408 166 408 166 408 98 c 0,51,52
 408 54 408 54 385.5 19.5 c 128,-1,53
 363 -15 363 -15 325 -34.5 c 128,-1,54
 287 -54 287 -54 238 -54 c 0,0,1
307 228 m 1,55,56
 343 248 343 248 343 292 c 0,57,58
 343 325 343 325 318.5 345 c 128,-1,59
 294 365 294 365 240 384 c 2,60,-1
 197 399 l 1,61,62
 177 392 177 392 164.5 375 c 128,-1,63
 152 358 152 358 152 336 c 0,64,65
 152 303 152 303 176.5 281.5 c 128,-1,66
 201 260 201 260 256 244 c 0,67,68
 273 239 273 239 286 235.5 c 128,-1,69
 299 232 299 232 307 228 c 1,55,56
EndSplineSet
EndChar

StartChar: dieresis
Encoding: 168 168 108
Width: 500
GlyphClass: 2
Flags: W
LayerCount: 2
Fore
SplineSet
163 564 m 0,0,1
 142 564 142 564 127 579 c 128,-1,2
 112 594 112 594 112 614 c 256,3,4
 112 634 112 634 127 649.5 c 128,-1,5
 142 665 142 665 163 665 c 0,6,7
 183 665 183 665 198 650 c 128,-1,8
 213 635 213 635 213 614 c 0,9,10
 213 594 213 594 198 579 c 128,-1,11
 183 564 183 564 163 564 c 0,0,1
341 564 m 0,12,13
 320 564 320 564 305.5 578.5 c 128,-1,14
 291 593 291 593 291 614 c 256,15,16
 291 635 291 635 305.5 650 c 128,-1,17
 320 665 320 665 341 665 c 0,18,19
 361 665 361 665 376 650 c 128,-1,20
 391 635 391 635 391 614 c 0,21,22
 391 594 391 594 376 579 c 128,-1,23
 361 564 361 564 341 564 c 0,12,13
EndSplineSet
Substitution2: "'case' Case-Sensitive Forms in Latin lookup 74 subtable" dieresis.case
Substitution2: "Single Substitution lookup 50 subtable" dieresis.case
Substitution2: "Single Substitution lookup 49 subtable" dieresis.case
Substitution2: "Single Substitution lookup 47 subtable" dieresis.case
Substitution2: "Single Substitution lookup 46 subtable" dieresis.case
Substitution2: "'aalt' Access All Alternates in Latin lookup 43 subtable" dieresis.case
EndChar

StartChar: copyright
Encoding: 169 169 109
Width: 500
GlyphClass: 2
Flags: W
LayerCount: 2
Fore
SplineSet
255 19 m 0,0,1
 189 19 189 19 134 53.5 c 128,-1,2
 79 88 79 88 46.5 146 c 128,-1,3
 14 204 14 204 14 274 c 0,4,5
 14 345 14 345 47 403 c 128,-1,6
 80 461 80 461 135 495.5 c 128,-1,7
 190 530 190 530 256 530 c 256,8,9
 322 530 322 530 377 495.5 c 128,-1,10
 432 461 432 461 465 403 c 128,-1,11
 498 345 498 345 498 274 c 256,12,13
 498 203 498 203 465 145 c 128,-1,14
 432 87 432 87 377 53 c 128,-1,15
 322 19 322 19 255 19 c 0,0,1
257 62 m 256,16,17
 311 62 311 62 356 91 c 128,-1,18
 401 120 401 120 428 168.5 c 128,-1,19
 455 217 455 217 455 275 c 256,20,21
 455 333 455 333 428 381.5 c 128,-1,22
 401 430 401 430 356.5 459 c 128,-1,23
 312 488 312 488 257 488 c 0,24,25
 203 488 203 488 158 459.5 c 128,-1,26
 113 431 113 431 86 382.5 c 128,-1,27
 59 334 59 334 59 274 c 0,28,29
 59 215 59 215 86 167 c 128,-1,30
 113 119 113 119 158 90.5 c 128,-1,31
 203 62 203 62 257 62 c 256,16,17
261 122 m 0,32,33
 220 122 220 122 187 143 c 128,-1,34
 154 164 154 164 134.5 199.5 c 128,-1,35
 115 235 115 235 115 276 c 0,36,37
 115 318 115 318 135.5 351.5 c 128,-1,38
 156 385 156 385 188 404.5 c 128,-1,39
 220 424 220 424 254 424 c 0,40,41
 308 424 308 424 342.5 398.5 c 128,-1,42
 377 373 377 373 387 331 c 1,43,-1
 335 312 l 1,44,45
 330 322 330 322 330.5 328 c 128,-1,46
 331 334 331 334 327 342 c 128,-1,47
 323 350 323 350 302 364 c 0,48,49
 286 374 286 374 262 374 c 0,50,51
 244 374 244 374 222.5 364.5 c 128,-1,52
 201 355 201 355 186 335 c 128,-1,53
 171 315 171 315 171 281 c 0,54,55
 171 237 171 237 198.5 205.5 c 128,-1,56
 226 174 226 174 265 174 c 0,57,58
 316 174 316 174 340 219 c 1,59,-1
 384 190 l 1,60,61
 363 158 363 158 330 140 c 128,-1,62
 297 122 297 122 261 122 c 0,32,33
EndSplineSet
EndChar

StartChar: ordfeminine
Encoding: 170 170 110
Width: 500
GlyphClass: 2
Flags: W
LayerCount: 2
Fore
SplineSet
219 258 m 0,0,1
 162 258 162 258 131 286 c 128,-1,2
 100 314 100 314 100 357 c 0,3,4
 100 415 100 415 149.5 448.5 c 128,-1,5
 199 482 199 482 274 482 c 0,6,7
 287 482 287 482 303 481.5 c 128,-1,8
 319 481 319 481 337 479 c 1,9,10
 332 535 332 535 308.5 556 c 128,-1,11
 285 577 285 577 241 577 c 0,12,13
 217 577 217 577 195 568.5 c 128,-1,14
 173 560 173 560 153 540 c 1,15,-1
 122 579 l 1,16,17
 147 605 147 605 178.5 616.5 c 128,-1,18
 210 628 210 628 245 628 c 0,19,20
 290 628 290 628 323.5 613 c 128,-1,21
 357 598 357 598 375.5 561.5 c 128,-1,22
 394 525 394 525 394 459 c 2,23,-1
 394 267 l 1,24,-1
 329 267 l 1,25,-1
 329 317 l 1,26,27
 310 281 310 281 279 269.5 c 128,-1,28
 248 258 248 258 219 258 c 0,0,1
162 362 m 0,29,30
 162 331 162 331 180.5 319 c 128,-1,31
 199 307 199 307 227 307 c 0,32,33
 277 307 277 307 305.5 338.5 c 128,-1,34
 334 370 334 370 338 431 c 1,35,36
 305 435 305 435 277 435 c 0,37,38
 223 435 223 435 192.5 417.5 c 128,-1,39
 162 400 162 400 162 362 c 0,29,30
76 211 m 1,40,-1
 425 211 l 1,41,-1
 425 157 l 1,42,-1
 76 157 l 1,43,-1
 76 211 l 1,40,-1
EndSplineSet
EndChar

StartChar: guillemotleft
Encoding: 171 171 111
Width: 500
GlyphClass: 2
Flags: W
LayerCount: 2
Fore
SplineSet
225 61 m 1,0,-1
 67 230 l 1,1,-1
 67 253 l 1,2,-1
 219 400 l 1,3,-1
 258 359 l 1,4,-1
 137 241 l 1,5,-1
 265 101 l 1,6,-1
 225 61 l 1,0,-1
406 61 m 1,7,-1
 249 230 l 1,8,-1
 249 253 l 1,9,-1
 400 400 l 1,10,-1
 439 359 l 1,11,-1
 318 241 l 1,12,-1
 446 101 l 1,13,-1
 406 61 l 1,7,-1
EndSplineSet
EndChar

StartChar: logicalnot
Encoding: 172 172 112
Width: 500
GlyphClass: 2
Flags: W
LayerCount: 2
Fore
SplineSet
350 157 m 1,0,-1
 350 284 l 1,1,-1
 91 284 l 1,2,-1
 91 347 l 1,3,-1
 414 347 l 1,4,-1
 414 157 l 1,5,-1
 350 157 l 1,0,-1
EndSplineSet
EndChar

StartChar: registered
Encoding: 174 174 114
Width: 500
GlyphClass: 2
Flags: W
LayerCount: 2
Fore
SplineSet
255 19 m 0,0,1
 189 19 189 19 134 53.5 c 128,-1,2
 79 88 79 88 46.5 146 c 128,-1,3
 14 204 14 204 14 274 c 0,4,5
 14 345 14 345 47 403 c 128,-1,6
 80 461 80 461 135 495.5 c 128,-1,7
 190 530 190 530 256 530 c 256,8,9
 322 530 322 530 377 495.5 c 128,-1,10
 432 461 432 461 465 403 c 128,-1,11
 498 345 498 345 498 274 c 256,12,13
 498 203 498 203 465 145 c 128,-1,14
 432 87 432 87 377 53 c 128,-1,15
 322 19 322 19 255 19 c 0,0,1
257 62 m 256,16,17
 311 62 311 62 356 91 c 128,-1,18
 401 120 401 120 428 168.5 c 128,-1,19
 455 217 455 217 455 275 c 256,20,21
 455 333 455 333 428 381.5 c 128,-1,22
 401 430 401 430 356.5 459 c 128,-1,23
 312 488 312 488 257 488 c 0,24,25
 203 488 203 488 158 459.5 c 128,-1,26
 113 431 113 431 86 382.5 c 128,-1,27
 59 334 59 334 59 274 c 0,28,29
 59 215 59 215 86 167 c 128,-1,30
 113 119 113 119 158 90.5 c 128,-1,31
 203 62 203 62 257 62 c 256,16,17
329 131 m 1,32,-1
 267 256 l 1,33,-1
 201 256 l 1,34,-1
 201 133 l 1,35,-1
 155 133 l 1,36,-1
 155 425 l 1,37,-1
 249 425 l 2,38,39
 314 425 314 425 341.5 401 c 128,-1,40
 369 377 369 377 369 340 c 0,41,42
 369 315 369 315 354.5 293 c 128,-1,43
 340 271 340 271 312 263 c 1,44,-1
 376 138 l 1,45,-1
 329 131 l 1,32,-1
201 296 m 1,46,-1
 253 296 l 2,47,48
 324 296 324 296 324 340 c 256,49,50
 324 384 324 384 250 384 c 2,51,-1
 201 384 l 1,52,-1
 201 296 l 1,46,-1
EndSplineSet
EndChar

StartChar: macron
Encoding: 175 175 115
Width: 500
GlyphClass: 2
Flags: W
LayerCount: 2
Fore
SplineSet
123 565 m 1,0,-1
 123 621 l 1,1,-1
 377 621 l 1,2,-1
 377 565 l 1,3,-1
 123 565 l 1,0,-1
EndSplineSet
EndChar

StartChar: degree
Encoding: 176 176 116
Width: 500
GlyphClass: 2
Flags: W
LayerCount: 2
Fore
SplineSet
256 370 m 0,0,1
 219 370 219 370 188 388 c 128,-1,2
 157 406 157 406 139 436.5 c 128,-1,3
 121 467 121 467 121 504 c 0,4,5
 121 542 121 542 140 572.5 c 128,-1,6
 159 603 159 603 189.5 621 c 128,-1,7
 220 639 220 639 256 639 c 0,8,9
 293 639 293 639 323.5 620.5 c 128,-1,10
 354 602 354 602 372.5 571.5 c 128,-1,11
 391 541 391 541 391 504 c 0,12,13
 391 468 391 468 373 437.5 c 128,-1,14
 355 407 355 407 324.5 388.5 c 128,-1,15
 294 370 294 370 256 370 c 0,0,1
256 425 m 0,16,17
 288 425 288 425 309.5 449 c 128,-1,18
 331 473 331 473 331 505 c 256,19,20
 331 537 331 537 310 561.5 c 128,-1,21
 289 586 289 586 257 586 c 0,22,23
 226 586 226 586 204 561.5 c 128,-1,24
 182 537 182 537 182 505 c 256,25,26
 182 473 182 473 203.5 449 c 128,-1,27
 225 425 225 425 256 425 c 0,16,17
EndSplineSet
EndChar

StartChar: plusminus
Encoding: 177 177 117
Width: 500
GlyphClass: 2
Flags: W
LayerCount: 2
Fore
SplineSet
222 155 m 1,0,-1
 222 343 l 1,1,-1
 45 343 l 1,2,-1
 45 404 l 1,3,-1
 222 404 l 1,4,-1
 222 575 l 1,5,-1
 285 575 l 1,6,-1
 285 404 l 1,7,-1
 456 404 l 1,8,-1
 456 343 l 1,9,-1
 285 343 l 1,10,-1
 285 155 l 1,11,-1
 222 155 l 1,0,-1
46 17 m 1,12,-1
 46 80 l 1,13,-1
 457 80 l 1,14,-1
 457 17 l 1,15,-1
 46 17 l 1,12,-1
EndSplineSet
EndChar

StartChar: uni00B2
Encoding: 178 178 118
Width: 500
GlyphClass: 2
Flags: W
LayerCount: 2
Fore
SplineSet
126 287 m 1,0,1
 188 345 188 345 232.5 384.5 c 128,-1,2
 277 424 277 424 300.5 456.5 c 128,-1,3
 324 489 324 489 324 525 c 0,4,5
 324 560 324 560 304 574.5 c 128,-1,6
 284 589 284 589 254 589 c 0,7,8
 212 589 212 589 182 565 c 0,9,10
 172 552 172 552 168.5 545 c 128,-1,11
 165 538 165 538 166 530 c 1,12,-1
 162 525 l 1,13,-1
 154 531 l 1,14,-1
 115 562 l 1,15,16
 137 597 137 597 173 616.5 c 128,-1,17
 209 636 209 636 254 636 c 0,18,19
 308 636 308 636 343.5 606.5 c 128,-1,20
 379 577 379 577 379 525 c 0,21,22
 379 483 379 483 355 447 c 128,-1,23
 331 411 331 411 291.5 374 c 128,-1,24
 252 337 252 337 204 292 c 1,25,-1
 337 292 l 2,26,27
 354 292 354 292 361 294 c 128,-1,28
 368 296 368 296 374 302 c 1,29,-1
 381 302 l 1,30,-1
 381 246 l 1,31,-1
 126 246 l 1,32,-1
 126 287 l 1,0,1
EndSplineSet
EndChar

StartChar: uni00B3
Encoding: 179 179 119
Width: 500
GlyphClass: 2
Flags: W
LayerCount: 2
Fore
SplineSet
242 239 m 0,0,1
 207 239 207 239 175 250.5 c 128,-1,2
 143 262 143 262 121 284 c 1,3,-1
 154 324 l 1,4,-1
 161 332 l 1,5,-1
 166 327 l 1,6,7
 167 319 167 319 171 313 c 128,-1,8
 175 307 175 307 188 296 c 0,9,10
 199 291 199 291 211.5 287.5 c 128,-1,11
 224 284 224 284 240 284 c 0,12,13
 278 284 278 284 298 304 c 128,-1,14
 318 324 318 324 318 355 c 0,15,16
 318 396 318 396 286 413 c 128,-1,17
 254 430 254 430 199 425 c 1,18,-1
 199 468 l 1,19,20
 263 467 263 467 284 488 c 128,-1,21
 305 509 305 509 305 537 c 0,22,23
 305 562 305 562 287.5 576 c 128,-1,24
 270 590 270 590 244 590 c 0,25,26
 223 590 223 590 203.5 583.5 c 128,-1,27
 184 577 184 577 167 561 c 1,28,-1
 133 594 l 1,29,30
 156 617 156 617 185.5 626.5 c 128,-1,31
 215 636 215 636 244 636 c 0,32,33
 297 636 297 636 329 609 c 128,-1,34
 361 582 361 582 361 539 c 0,35,36
 361 508 361 508 344 484.5 c 128,-1,37
 327 461 327 461 296 451 c 1,38,39
 329 441 329 441 351.5 417.5 c 128,-1,40
 374 394 374 394 374 353 c 0,41,42
 374 305 374 305 340 272 c 128,-1,43
 306 239 306 239 242 239 c 0,0,1
EndSplineSet
EndChar

StartChar: acute
Encoding: 180 180 120
Width: 500
GlyphClass: 2
Flags: W
LayerCount: 2
Fore
SplineSet
254 522 m 1,0,-1
 216 548 l 1,1,-1
 300 697 l 1,2,-1
 355 657 l 1,3,-1
 254 522 l 1,0,-1
EndSplineSet
Substitution2: "'case' Case-Sensitive Forms in Latin lookup 74 subtable" acute.case
Substitution2: "Single Substitution lookup 50 subtable" acute.case
Substitution2: "Single Substitution lookup 49 subtable" acute.case
Substitution2: "Single Substitution lookup 47 subtable" acute.case
Substitution2: "Single Substitution lookup 46 subtable" acute.case
Substitution2: "'aalt' Access All Alternates in Latin lookup 43 subtable" acute.case
EndChar

StartChar: uni00B5
Encoding: 181 181 121
Width: 500
GlyphClass: 2
Flags: W
LayerCount: 2
Fore
SplineSet
24 -167 m 1,0,1
 24 -150 24 -150 26 -114 c 128,-1,2
 28 -78 28 -78 31 -33 c 128,-1,3
 34 12 34 12 37 58 c 128,-1,4
 40 104 40 104 42 142 c 128,-1,5
 44 180 44 180 44 202 c 2,6,-1
 44 457 l 1,7,-1
 110 457 l 1,8,-1
 110 186 l 2,9,10
 110 131 110 131 123.5 99.5 c 128,-1,11
 137 68 137 68 159.5 55.5 c 128,-1,12
 182 43 182 43 207 43 c 0,13,14
 257 43 257 43 282.5 83.5 c 128,-1,15
 308 124 308 124 308 192 c 2,16,-1
 308 457 l 1,17,-1
 372 457 l 1,18,-1
 372 116 l 2,19,20
 372 47 372 47 412 47 c 0,21,22
 426 47 426 47 440.5 59 c 128,-1,23
 455 71 455 71 461 84 c 2,24,-1
 467 96 l 1,25,-1
 494 45 l 1,26,27
 457 -10 457 -10 406 -10 c 0,28,29
 374 -10 374 -10 351 12.5 c 128,-1,30
 328 35 328 35 324 67 c 1,31,32
 307 28 307 28 272.5 9 c 128,-1,33
 238 -10 238 -10 201 -10 c 256,34,35
 164 -10 164 -10 132.5 7.5 c 128,-1,36
 101 25 101 25 87 60 c 1,37,38
 87 3 87 3 87 -53.5 c 128,-1,39
 87 -110 87 -110 86 -167 c 1,40,-1
 24 -167 l 1,0,1
EndSplineSet
EndChar

StartChar: paragraph
Encoding: 182 182 122
Width: 500
GlyphClass: 2
Flags: W
LayerCount: 2
Fore
SplineSet
243 -68 m 1,0,-1
 243 322 l 1,1,2
 193 325 193 325 152.5 349.5 c 128,-1,3
 112 374 112 374 88 414 c 128,-1,4
 64 454 64 454 64 502 c 0,5,6
 64 545 64 545 87.5 582 c 128,-1,7
 111 619 111 619 165 642 c 128,-1,8
 219 665 219 665 311 665 c 2,9,-1
 436 665 l 1,10,-1
 436 -68 l 1,11,-1
 378 -68 l 1,12,-1
 378 608 l 1,13,-1
 302 608 l 1,14,-1
 302 -68 l 1,15,-1
 243 -68 l 1,0,-1
EndSplineSet
EndChar

StartChar: periodcentered
Encoding: 183 183 123
Width: 500
GlyphClass: 2
Flags: W
LayerCount: 2
Fore
SplineSet
238 274 m 256,0,1
 213 274 213 274 196 290.5 c 128,-1,2
 179 307 179 307 179 331 c 256,3,4
 179 355 179 355 197 371.5 c 128,-1,5
 215 388 215 388 238 388 c 256,6,7
 261 388 261 388 279.5 371.5 c 128,-1,8
 298 355 298 355 298 331 c 0,9,10
 298 308 298 308 280.5 291 c 128,-1,11
 263 274 263 274 238 274 c 256,0,1
EndSplineSet
Substitution2: "Single Substitution lookup 54 subtable" periodcentered.loclCAT
Substitution2: "Single Substitution lookup 53 subtable" periodcentered.loclCAT
Substitution2: "'aalt' Access All Alternates in Latin lookup 43 subtable" periodcentered.loclCAT
EndChar

StartChar: cedilla
Encoding: 184 184 124
Width: 500
GlyphClass: 2
Flags: W
LayerCount: 2
Fore
SplineSet
268 -197 m 0,0,1
 215 -197 215 -197 169 -166 c 1,2,-1
 194 -124 l 1,3,4
 232 -154 232 -154 281 -154 c 0,5,6
 331 -154 331 -154 331 -118 c 0,7,8
 331 -102 331 -102 317 -93.5 c 128,-1,9
 303 -85 303 -85 280 -85 c 2,10,-1
 250 -85 l 1,11,-1
 261 0 l 1,12,-1
 305 0 l 1,13,-1
 299 -47 l 1,14,15
 343 -51 343 -51 363.5 -70 c 128,-1,16
 384 -89 384 -89 384 -112 c 0,17,18
 384 -146 384 -146 355.5 -171.5 c 128,-1,19
 327 -197 327 -197 268 -197 c 0,0,1
EndSplineSet
EndChar

StartChar: uni00B9
Encoding: 185 185 125
Width: 500
GlyphClass: 2
Flags: W
LayerCount: 2
Fore
SplineSet
232 246 m 1,0,-1
 232 570 l 1,1,-1
 149 546 l 1,2,-1
 136 579 l 1,3,-1
 247 633 l 1,4,-1
 288 633 l 1,5,-1
 288 246 l 1,6,-1
 232 246 l 1,0,-1
EndSplineSet
EndChar

StartChar: ordmasculine
Encoding: 186 186 126
Width: 500
GlyphClass: 2
Flags: W
LayerCount: 2
Fore
SplineSet
250 260 m 256,0,1
 182 260 182 260 137.5 310.5 c 128,-1,2
 93 361 93 361 93 444 c 0,3,4
 93 499 93 499 113.5 540.5 c 128,-1,5
 134 582 134 582 169.5 605 c 128,-1,6
 205 628 205 628 250 628 c 0,7,8
 296 628 296 628 331 605 c 128,-1,9
 366 582 366 582 386.5 540.5 c 128,-1,10
 407 499 407 499 407 444 c 0,11,12
 407 361 407 361 362.5 310.5 c 128,-1,13
 318 260 318 260 250 260 c 256,0,1
250 312 m 256,14,15
 291 312 291 312 317 348.5 c 128,-1,16
 343 385 343 385 343 445 c 256,17,18
 343 505 343 505 317 541 c 128,-1,19
 291 577 291 577 250 577 c 0,20,21
 210 577 210 577 183.5 541 c 128,-1,22
 157 505 157 505 157 445 c 256,23,24
 157 385 157 385 183 348.5 c 128,-1,25
 209 312 209 312 250 312 c 256,14,15
76 211 m 1,26,-1
 425 211 l 1,27,-1
 425 157 l 1,28,-1
 76 157 l 1,29,-1
 76 211 l 1,26,-1
EndSplineSet
EndChar

StartChar: onequarter
Encoding: 188 188 128
Width: 500
GlyphClass: 2
Flags: W
LayerCount: 2
Fore
SplineSet
93 380 m 1,0,-1
 93 632 l 1,1,-1
 29 612 l 1,2,-1
 18 643 l 1,3,-1
 106 686 l 1,4,-1
 143 686 l 1,5,-1
 143 380 l 1,6,-1
 93 380 l 1,0,-1
123 -42 m 1,7,-1
 76 -16 l 1,8,-1
 389 665 l 1,9,-1
 437 638 l 1,10,-1
 123 -42 l 1,7,-1
396 -70 m 1,11,-1
 396 3 l 1,12,-1
 257 3 l 1,13,-1
 257 35 l 1,14,-1
 407 236 l 1,15,-1
 445 236 l 1,16,-1
 445 42 l 1,17,-1
 490 42 l 1,18,-1
 490 2 l 1,19,-1
 445 2 l 1,20,-1
 445 -70 l 1,21,-1
 396 -70 l 1,11,-1
312 42 m 1,22,-1
 397 42 l 1,23,-1
 397 158 l 1,24,-1
 312 42 l 1,22,-1
EndSplineSet
EndChar

StartChar: onehalf
Encoding: 189 189 129
Width: 500
GlyphClass: 2
Flags: W
LayerCount: 2
Fore
SplineSet
93 380 m 1,0,-1
 93 632 l 1,1,-1
 29 612 l 1,2,-1
 18 643 l 1,3,-1
 106 686 l 1,4,-1
 143 686 l 1,5,-1
 143 380 l 1,6,-1
 93 380 l 1,0,-1
123 -42 m 1,7,-1
 76 -16 l 1,8,-1
 389 665 l 1,9,-1
 437 638 l 1,10,-1
 123 -42 l 1,7,-1
280 -70 m 1,11,-1
 280 -34 l 1,12,13
 330 12 330 12 365 42.5 c 128,-1,14
 400 73 400 73 418 98 c 128,-1,15
 436 123 436 123 436 151 c 0,16,17
 436 176 436 176 421 186.5 c 128,-1,18
 406 197 406 197 382 197 c 256,19,20
 358 197 358 197 338.5 186.5 c 128,-1,21
 319 176 319 176 306 153 c 1,22,-1
 272 180 l 1,23,24
 289 208 289 208 318 223.5 c 128,-1,25
 347 239 347 239 382 239 c 0,26,27
 426 239 426 239 455 215.5 c 128,-1,28
 484 192 484 192 484 151 c 0,29,30
 484 118 484 118 466 90.5 c 128,-1,31
 448 63 448 63 418 34.5 c 128,-1,32
 388 6 388 6 350 -29 c 1,33,-1
 485 -29 l 1,34,-1
 485 -70 l 1,35,-1
 280 -70 l 1,11,-1
EndSplineSet
EndChar

StartChar: threequarters
Encoding: 190 190 130
Width: 500
GlyphClass: 2
Flags: W
LayerCount: 2
Fore
SplineSet
103 374 m 0,0,1
 75 374 75 374 48.5 383 c 128,-1,2
 22 392 22 392 5 410 c 1,3,-1
 33 446 l 1,4,-1
 40 454 l 1,5,-1
 45 450 l 1,6,7
 46 442 46 442 51 436 c 128,-1,8
 56 430 56 430 69 420 c 0,9,10
 81 414 81 414 101 414 c 0,11,12
 130 414 130 414 145 428.5 c 128,-1,13
 160 443 160 443 160 466 c 0,14,15
 160 498 160 498 136 511 c 128,-1,16
 112 524 112 524 68 519 c 1,17,-1
 68 557 l 1,18,19
 118 556 118 556 134.5 571.5 c 128,-1,20
 151 587 151 587 151 607 c 256,21,22
 151 627 151 627 137.5 637.5 c 128,-1,23
 124 648 124 648 104 648 c 0,24,25
 88 648 88 648 72.5 643 c 128,-1,26
 57 638 57 638 43 625 c 1,27,-1
 14 654 l 1,28,29
 33 673 33 673 57 681 c 128,-1,30
 81 689 81 689 104 689 c 0,31,32
 148 689 148 689 174 667.5 c 128,-1,33
 200 646 200 646 200 611 c 0,34,35
 200 586 200 586 186 568 c 128,-1,36
 172 550 172 550 149 542 c 1,37,38
 174 535 174 535 192 516 c 128,-1,39
 210 497 210 497 210 464 c 0,40,41
 210 427 210 427 182 400.5 c 128,-1,42
 154 374 154 374 103 374 c 0,0,1
123 -42 m 1,43,-1
 76 -16 l 1,44,-1
 389 665 l 1,45,-1
 437 638 l 1,46,-1
 123 -42 l 1,43,-1
396 3 m 1,47,-1
 257 3 l 1,48,-1
 257 35 l 1,49,-1
 407 236 l 1,50,-1
 445 236 l 1,51,-1
 445 42 l 1,52,-1
 490 42 l 1,53,-1
 490 2 l 1,54,-1
 445 2 l 1,55,-1
 445 -70 l 1,56,-1
 396 -70 l 1,57,-1
 396 3 l 1,47,-1
397 42 m 1,58,-1
 397 158 l 1,59,-1
 312 42 l 1,60,-1
 397 42 l 1,58,-1
EndSplineSet
EndChar

StartChar: AE
Encoding: 198 198 138
Width: 500
GlyphClass: 2
Flags: W
LayerCount: 2
Fore
SplineSet
15 0 m 1,0,-1
 211 624 l 1,1,-1
 495 624 l 1,2,-1
 495 562 l 1,3,-1
 324 562 l 1,4,-1
 324 357 l 1,5,-1
 469 357 l 1,6,-1
 469 293 l 1,7,-1
 324 293 l 1,8,-1
 324 62 l 1,9,-1
 493 62 l 1,10,-1
 493 0 l 1,11,-1
 263 0 l 1,12,-1
 263 169 l 1,13,-1
 133 169 l 1,14,-1
 79 0 l 1,15,-1
 15 0 l 1,0,-1
147 227 m 1,16,-1
 263 227 l 1,17,-1
 263 562 l 1,18,-1
 252 562 l 1,19,-1
 147 227 l 1,16,-1
EndSplineSet
EndChar

StartChar: Eth
Encoding: 208 208 148
Width: 500
GlyphClass: 2
Flags: W
LayerCount: 2
Fore
SplineSet
79 -1 m 1,0,-1
 79 301 l 1,1,-1
 30 301 l 1,2,-1
 30 359 l 1,3,-1
 79 359 l 1,4,-1
 79 623 l 1,5,-1
 218 623 l 2,6,7
 280 623 280 623 320.5 606 c 128,-1,8
 361 589 361 589 386 562 c 128,-1,9
 411 535 411 535 427 506 c 0,10,11
 441 482 441 482 453.5 433 c 128,-1,12
 466 384 466 384 466 309 c 0,13,14
 466 162 466 162 397.5 80.5 c 128,-1,15
 329 -1 329 -1 205 -1 c 2,16,-1
 79 -1 l 1,0,-1
143 57 m 1,17,-1
 203 57 l 2,18,19
 299 57 299 57 349 122.5 c 128,-1,20
 399 188 399 188 399 306 c 0,21,22
 399 426 399 426 354.5 495 c 128,-1,23
 310 564 310 564 214 564 c 2,24,-1
 143 564 l 1,25,-1
 143 359 l 1,26,-1
 248 359 l 1,27,-1
 248 301 l 1,28,-1
 143 301 l 1,29,-1
 143 57 l 1,17,-1
EndSplineSet
EndChar

StartChar: multiply
Encoding: 215 215 155
Width: 500
GlyphClass: 2
Flags: W
LayerCount: 2
Fore
SplineSet
381 145 m 1,0,-1
 254 278 l 1,1,-1
 129 149 l 1,2,-1
 85 193 l 1,3,-1
 211 324 l 1,4,-1
 85 457 l 1,5,-1
 132 503 l 1,6,-1
 256 372 l 1,7,-1
 382 503 l 1,8,-1
 430 459 l 1,9,-1
 300 325 l 1,10,-1
 427 191 l 1,11,-1
 381 145 l 1,0,-1
EndSplineSet
EndChar

StartChar: Oslash
Encoding: 216 216 156
Width: 500
GlyphClass: 2
Flags: W
AnchorPoint: "Anchor-4" 250 312 basechar 0
AnchorPoint: "Anchor-3" 287 10 basechar 0
AnchorPoint: "Anchor-2" 250 0 basechar 0
AnchorPoint: "Anchor-1" 379 584 basechar 0
AnchorPoint: "Anchor-0" 250 623 basechar 0
LayerCount: 2
Fore
SplineSet
85 -42 m 1,0,-1
 41 -22 l 1,1,-1
 88 67 l 1,2,3
 27 150 27 150 27 308 c 0,4,5
 27 456 27 456 85 541.5 c 128,-1,6
 143 627 143 627 250 627 c 0,7,8
 318 627 318 627 368 591 c 1,9,-1
 416 682 l 1,10,-1
 458 660 l 1,11,-1
 403 557 l 1,12,13
 473 473 473 473 473 308 c 0,14,15
 473 155 473 155 415 72 c 128,-1,16
 357 -11 357 -11 250 -11 c 0,17,18
 175 -11 175 -11 123 30 c 1,19,-1
 85 -42 l 1,0,-1
99 308 m 0,20,21
 99 205 99 205 127 140 c 1,22,-1
 335 530 l 1,23,24
 300 566 300 566 250 566 c 0,25,26
 179 566 179 566 139 496 c 128,-1,27
 99 426 99 426 99 308 c 0,20,21
250 50 m 0,28,29
 321 50 321 50 361 117 c 128,-1,30
 401 184 401 184 401 308 c 0,31,32
 401 419 401 419 366 487 c 1,33,-1
 156 92 l 1,34,35
 193 50 193 50 250 50 c 0,28,29
EndSplineSet
EndChar

StartChar: Thorn
Encoding: 222 222 162
Width: 500
GlyphClass: 2
Flags: W
LayerCount: 2
Fore
SplineSet
59 0 m 1,0,-1
 59 623 l 1,1,-1
 137 623 l 2,2,3
 139 621 139 621 139 620 c 0,4,5
 139 617 139 617 135 610.5 c 128,-1,6
 131 604 131 604 129 595 c 2,7,-1
 129 506 l 1,8,-1
 259 506 l 2,9,10
 329 506 329 506 372 482 c 128,-1,11
 415 458 415 458 435.5 418 c 128,-1,12
 456 378 456 378 456 330 c 256,13,14
 456 282 456 282 436 243 c 128,-1,15
 416 204 416 204 374 181 c 128,-1,16
 332 158 332 158 264 158 c 2,17,-1
 129 158 l 1,18,-1
 129 0 l 1,19,-1
 59 0 l 1,0,-1
129 219 m 1,20,-1
 264 219 l 2,21,22
 329 219 329 219 356.5 250.5 c 128,-1,23
 384 282 384 282 384 328 c 256,24,25
 384 374 384 374 354 407 c 128,-1,26
 324 440 324 440 257 440 c 2,27,-1
 129 440 l 1,28,-1
 129 219 l 1,20,-1
EndSplineSet
EndChar

StartChar: germandbls
Encoding: 223 223 163
Width: 500
GlyphClass: 2
Flags: W
LayerCount: 2
Fore
SplineSet
281 -10 m 0,0,1
 223 -10 223 -10 177 21 c 1,2,-1
 212 77 l 1,3,4
 242 53 242 53 285 53 c 0,5,6
 314 53 314 53 339.5 71.5 c 128,-1,7
 365 90 365 90 381.5 121.5 c 128,-1,8
 398 153 398 153 398 193 c 0,9,10
 398 248 398 248 361 285.5 c 128,-1,11
 324 323 324 323 244 323 c 2,12,-1
 214 323 l 1,13,-1
 214 380 l 1,14,-1
 250 380 l 2,15,16
 275 380 275 380 298 392.5 c 128,-1,17
 321 405 321 405 336.5 429.5 c 128,-1,18
 352 454 352 454 352 490 c 0,19,20
 352 541 352 541 320 576 c 128,-1,21
 288 611 288 611 241 611 c 0,22,23
 184 611 184 611 153.5 559.5 c 128,-1,24
 123 508 123 508 123 425 c 2,25,-1
 123 0 l 1,26,-1
 55 0 l 1,27,-1
 55 423 l 2,28,29
 55 547 55 547 104 608 c 128,-1,30
 153 669 153 669 231 669 c 0,31,32
 285 669 285 669 327.5 644.5 c 128,-1,33
 370 620 370 620 395 580 c 128,-1,34
 420 540 420 540 420 493 c 0,35,36
 420 450 420 450 399 414 c 128,-1,37
 378 378 378 378 341 359 c 1,38,39
 398 341 398 341 431 292.5 c 128,-1,40
 464 244 464 244 464 181 c 0,41,42
 464 128 464 128 441.5 84.5 c 128,-1,43
 419 41 419 41 378 15.5 c 128,-1,44
 337 -10 337 -10 281 -10 c 0,0,1
EndSplineSet
EndChar

StartChar: ae
Encoding: 230 230 170
Width: 500
GlyphClass: 2
Flags: W
LayerCount: 2
Fore
SplineSet
142 -11 m 0,0,1
 72 -11 72 -11 41 28 c 128,-1,2
 10 67 10 67 10 123 c 0,3,4
 10 271 10 271 221 279 c 1,5,6
 221 344 221 344 202.5 377.5 c 128,-1,7
 184 411 184 411 142 411 c 0,8,9
 97 411 97 411 66 368 c 1,10,-1
 31 412 l 1,11,12
 74 467 74 467 147 467 c 0,13,14
 183 467 183 467 212.5 450.5 c 128,-1,15
 242 434 242 434 258 405 c 1,16,17
 275 434 275 434 303.5 450.5 c 128,-1,18
 332 467 332 467 362 467 c 0,19,20
 430 467 430 467 460 414 c 128,-1,21
 490 361 490 361 490 268 c 2,22,-1
 490 230 l 1,23,-1
 282 223 l 1,24,-1
 282 175 l 2,25,26
 282 117 282 117 310 82 c 128,-1,27
 338 47 338 47 386 47 c 0,28,29
 432 47 432 47 459 84 c 1,30,-1
 494 42 l 1,31,32
 450 -11 450 -11 380 -11 c 0,33,34
 342 -11 342 -11 308.5 7.5 c 128,-1,35
 275 26 275 26 255 58 c 1,36,37
 238 26 238 26 208 7.5 c 128,-1,38
 178 -11 178 -11 142 -11 c 0,0,1
282 279 m 1,39,-1
 432 284 l 1,40,41
 432 347 432 347 416 379 c 128,-1,42
 400 411 400 411 362 411 c 0,43,44
 325 411 325 411 303.5 377 c 128,-1,45
 282 343 282 343 282 279 c 1,39,-1
144 50 m 0,46,47
 180 50 180 50 196 73 c 128,-1,48
 212 96 212 96 216.5 134.5 c 128,-1,49
 221 173 221 173 221 219 c 1,50,51
 141 215 141 215 107.5 195 c 128,-1,52
 74 175 74 175 74 122 c 0,53,54
 74 80 74 80 92 65 c 128,-1,55
 110 50 110 50 144 50 c 0,46,47
EndSplineSet
EndChar

StartChar: eth
Encoding: 240 240 180
Width: 500
GlyphClass: 2
Flags: W
LayerCount: 2
Fore
SplineSet
256 -12 m 0,0,1
 198 -12 198 -12 149 18.5 c 128,-1,2
 100 49 100 49 70 102 c 128,-1,3
 40 155 40 155 40 223 c 0,4,5
 40 273 40 273 57 317 c 128,-1,6
 74 361 74 361 103 395 c 128,-1,7
 132 429 132 429 168 448 c 128,-1,8
 204 467 204 467 242 467 c 0,9,10
 320 467 320 467 369 415 c 1,11,12
 353 453 353 453 332 487.5 c 128,-1,13
 311 522 311 522 283 552 c 1,14,-1
 155 516 l 1,15,-1
 137 564 l 1,16,-1
 241 592 l 1,17,18
 219 611 219 611 193.5 627 c 128,-1,19
 168 643 168 643 139 656 c 1,20,-1
 220 672 l 1,21,22
 243 659 243 659 264.5 644 c 128,-1,23
 286 629 286 629 307 610 c 1,24,-1
 415 639 l 1,25,-1
 432 595 l 1,26,-1
 347 570 l 1,27,28
 460 442 460 442 460 253 c 0,29,30
 460 133 460 133 407.5 60.5 c 128,-1,31
 355 -12 355 -12 256 -12 c 0,0,1
256 50 m 0,32,33
 290 50 290 50 319.5 69 c 128,-1,34
 349 88 349 88 368 128.5 c 128,-1,35
 387 169 387 169 387 232 c 0,36,37
 387 297 387 297 366.5 335 c 128,-1,38
 346 373 346 373 315.5 389.5 c 128,-1,39
 285 406 285 406 253 406 c 256,40,41
 221 406 221 406 189.5 386.5 c 128,-1,42
 158 367 158 367 137.5 328.5 c 128,-1,43
 117 290 117 290 117 232 c 0,44,45
 117 178 117 178 135.5 137 c 128,-1,46
 154 96 154 96 186 73 c 128,-1,47
 218 50 218 50 256 50 c 0,32,33
EndSplineSet
EndChar

StartChar: divide
Encoding: 247 247 187
Width: 500
GlyphClass: 2
Flags: W
LayerCount: 2
Fore
SplineSet
255 432 m 0,0,1
 237 432 237 432 224 445 c 128,-1,2
 211 458 211 458 211 476 c 0,3,4
 211 495 211 495 224.5 508.5 c 128,-1,5
 238 522 238 522 255 522 c 0,6,7
 274 522 274 522 287 508 c 128,-1,8
 300 494 300 494 300 476 c 256,9,10
 300 458 300 458 287 445 c 128,-1,11
 274 432 274 432 255 432 c 0,0,1
71 281 m 1,12,-1
 71 348 l 1,13,-1
 431 348 l 1,14,-1
 431 281 l 1,15,-1
 71 281 l 1,12,-1
256 104 m 256,16,17
 238 104 238 104 224 116.5 c 128,-1,18
 210 129 210 129 210 148 c 0,19,20
 210 168 210 168 224.5 181 c 128,-1,21
 239 194 239 194 256 194 c 256,22,23
 273 194 273 194 286.5 180 c 128,-1,24
 300 166 300 166 300 148 c 256,25,26
 300 130 300 130 287 117 c 128,-1,27
 274 104 274 104 256 104 c 256,16,17
EndSplineSet
EndChar

StartChar: oslash
Encoding: 248 248 188
Width: 500
GlyphClass: 2
Flags: W
AnchorPoint: "Anchor-4" 250 229 basechar 0
AnchorPoint: "Anchor-3" 286 10 basechar 0
AnchorPoint: "Anchor-2" 250 0 basechar 0
AnchorPoint: "Anchor-1" 359 436 basechar 0
AnchorPoint: "Anchor-0" 250 457 basechar 0
LayerCount: 2
Fore
SplineSet
121 -63 m 1,0,-1
 70 -36 l 1,1,-1
 113 43 l 1,2,3
 78 75 78 75 58.5 122.5 c 128,-1,4
 39 170 39 170 39 229 c 0,5,6
 39 299 39 299 66 352.5 c 128,-1,7
 93 406 93 406 140.5 436.5 c 128,-1,8
 188 467 188 467 250 467 c 0,9,10
 295 467 295 467 334 450 c 1,11,-1
 372 519 l 1,12,-1
 426 491 l 1,13,-1
 385 417 l 1,14,15
 421 385 421 385 441 337 c 128,-1,16
 461 289 461 289 461 229 c 0,17,18
 461 160 461 160 434 106.5 c 128,-1,19
 407 53 407 53 359.5 22.5 c 128,-1,20
 312 -8 312 -8 250 -8 c 0,21,22
 202 -8 202 -8 162 11 c 1,23,-1
 121 -63 l 1,0,-1
115 230 m 0,24,25
 115 157 115 157 148 108 c 1,26,-1
 304 394 l 1,27,28
 279 407 279 407 250 407 c 0,29,30
 191 407 191 407 153 357.5 c 128,-1,31
 115 308 115 308 115 230 c 0,24,25
250 52 m 0,32,33
 290 52 290 52 320 75 c 128,-1,34
 350 98 350 98 367.5 138 c 128,-1,35
 385 178 385 178 385 230 c 0,36,37
 385 304 385 304 350 353 c 1,38,-1
 193 67 l 1,39,40
 219 52 219 52 250 52 c 0,32,33
EndSplineSet
EndChar

StartChar: thorn
Encoding: 254 254 194
Width: 500
GlyphClass: 2
Flags: W
LayerCount: 2
Fore
SplineSet
60 665 m 1,0,-1
 142 665 l 1,1,-1
 142 658 l 1,2,3
 136 652 136 652 134.5 645 c 128,-1,4
 133 638 133 638 133 621 c 2,5,-1
 133 367 l 1,6,7
 149 419 149 419 186.5 443 c 128,-1,8
 224 467 224 467 272 467 c 0,9,10
 323 467 323 467 366.5 441.5 c 128,-1,11
 410 416 410 416 436.5 364 c 128,-1,12
 463 312 463 312 463 232 c 256,13,14
 463 152 463 152 435 97.5 c 128,-1,15
 407 43 407 43 363 15.5 c 128,-1,16
 319 -12 319 -12 270 -12 c 0,17,18
 229 -12 229 -12 193 7 c 128,-1,19
 157 26 157 26 134 60 c 1,20,-1
 134 -167 l 1,21,-1
 60 -167 l 1,22,-1
 60 665 l 1,0,-1
258 52 m 0,23,24
 290 52 290 52 320 67.5 c 128,-1,25
 350 83 350 83 369 122 c 128,-1,26
 388 161 388 161 388 229 c 0,27,28
 388 311 388 311 357 356.5 c 128,-1,29
 326 402 326 402 269 405 c 0,30,31
 232 407 232 407 201 388.5 c 128,-1,32
 170 370 170 370 151.5 327 c 128,-1,33
 133 284 133 284 133 213 c 0,34,35
 135 132 135 132 169 92 c 128,-1,36
 203 52 203 52 258 52 c 0,23,24
EndSplineSet
EndChar

StartChar: dcaron
Encoding: 271 271 211
Width: 500
GlyphClass: 2
Flags: W
LayerCount: 2
Fore
SplineSet
433 668 m 0,0,1
 451 668 451 668 464.5 653 c 128,-1,2
 478 638 478 638 478 616 c 0,3,4
 478 596 478 596 468 569.5 c 128,-1,5
 458 543 458 543 442 516 c 128,-1,6
 426 489 426 489 409 467 c 1,7,-1
 380 488 l 1,8,9
 395 505 395 505 407.5 525 c 128,-1,10
 420 545 420 545 420 566 c 0,11,12
 420 576 420 576 412 583.5 c 128,-1,13
 404 591 404 591 395.5 601 c 128,-1,14
 387 611 387 611 387 628 c 0,15,16
 387 642 387 642 399 655 c 128,-1,17
 411 668 411 668 433 668 c 0,0,1
183 -10 m 0,18,19
 146 -10 146 -10 112 13.5 c 128,-1,20
 78 37 78 37 56.5 90 c 128,-1,21
 35 143 35 143 35 233 c 0,22,23
 35 322 35 322 57 373.5 c 128,-1,24
 79 425 79 425 114 447 c 128,-1,25
 149 469 149 469 188 469 c 0,26,27
 265 469 265 469 290 394 c 1,28,-1
 290 665 l 1,29,-1
 361 665 l 1,30,-1
 361 658 l 1,31,32
 355 652 355 652 353.5 645 c 128,-1,33
 352 638 352 638 352 621 c 2,34,-1
 352 71 l 2,35,36
 352 53 352 53 353 35.5 c 128,-1,37
 354 18 354 18 360 0 c 1,38,-1
 297 0 l 1,39,40
 291 16 291 16 289 32 c 128,-1,41
 287 48 287 48 287 66 c 1,42,43
 271 32 271 32 244.5 11 c 128,-1,44
 218 -10 218 -10 183 -10 c 0,18,19
195 52 m 0,45,46
 242 52 242 52 264 98.5 c 128,-1,47
 286 145 286 145 286 231 c 256,48,49
 286 317 286 317 262.5 363 c 128,-1,50
 239 409 239 409 192 409 c 0,51,52
 146 409 146 409 121.5 369.5 c 128,-1,53
 97 330 97 330 97 244 c 0,54,55
 97 141 97 141 123.5 96.5 c 128,-1,56
 150 52 150 52 195 52 c 0,45,46
EndSplineSet
EndChar

StartChar: Hbar
Encoding: 294 294 234
Width: 500
GlyphClass: 2
Flags: W
AnchorPoint: "Anchor-4" 250 312 basechar 0
AnchorPoint: "Anchor-2" 250 0 basechar 0
AnchorPoint: "Anchor-0" 250 623 basechar 0
LayerCount: 2
Fore
SplineSet
7 498 m 1,0,-1
 7 553 l 1,1,-1
 50 553 l 1,2,-1
 50 623 l 1,3,-1
 132 623 l 1,4,-1
 132 616 l 1,5,6
 126 610 126 610 124.5 603 c 128,-1,7
 123 596 123 596 123 579 c 2,8,-1
 123 553 l 1,9,-1
 367 553 l 1,10,-1
 367 623 l 1,11,-1
 449 623 l 1,12,-1
 449 616 l 1,13,14
 443 610 443 610 441.5 603 c 128,-1,15
 440 596 440 596 440 579 c 2,16,-1
 440 553 l 1,17,-1
 487 553 l 1,18,-1
 487 498 l 1,19,-1
 440 498 l 1,20,-1
 440 0 l 1,21,-1
 366 0 l 1,22,-1
 366 297 l 1,23,-1
 123 297 l 1,24,-1
 123 0 l 1,25,-1
 50 0 l 1,26,-1
 50 498 l 1,27,-1
 7 498 l 1,0,-1
123 357 m 1,28,-1
 367 357 l 1,29,-1
 367 498 l 1,30,-1
 123 498 l 1,31,-1
 123 357 l 1,28,-1
EndSplineSet
EndChar

StartChar: dotlessi
Encoding: 305 305 245
Width: 500
GlyphClass: 2
Flags: W
AnchorPoint: "Anchor-3" 346 0 basechar 0
AnchorPoint: "Anchor-2" 250 0 basechar 0
AnchorPoint: "Anchor-0" 250 457 basechar 0
LayerCount: 2
Fore
SplineSet
100 0 m 1,0,-1
 100 58 l 1,1,-1
 217 58 l 1,2,-1
 217 399 l 1,3,-1
 106 399 l 1,4,-1
 106 457 l 1,5,-1
 289 457 l 1,6,-1
 289 58 l 1,7,-1
 396 58 l 1,8,-1
 396 0 l 1,9,-1
 100 0 l 1,0,-1
EndSplineSet
EndChar

StartChar: kgreenlandic
Encoding: 312 312 250
Width: 500
GlyphClass: 2
Flags: W
AnchorPoint: "Anchor-2" 250 0 basechar 0
AnchorPoint: "Anchor-0" 104 457 basechar 0
LayerCount: 2
Fore
SplineSet
199 229 m 1,0,-1
 139 173 l 1,1,-1
 139 0 l 1,2,-1
 66 0 l 1,3,-1
 66 457 l 1,4,-1
 148 457 l 1,5,-1
 148 450 l 1,6,7
 142 444 142 444 140.5 437 c 128,-1,8
 139 430 139 430 139 413 c 2,9,-1
 139 247 l 1,10,-1
 368 459 l 1,11,12
 379 457 379 457 392.5 455.5 c 128,-1,13
 406 454 406 454 421 454 c 2,14,-1
 447 454 l 1,15,-1
 255 273 l 1,16,-1
 479 0 l 1,17,-1
 386 -4 l 1,18,-1
 199 229 l 1,0,-1
EndSplineSet
EndChar

StartChar: Lcaron
Encoding: 317 317 255
Width: 500
GlyphClass: 2
Flags: W
AnchorPoint: "Anchor-4" 107 312 basechar 0
AnchorPoint: "Anchor-2" 250 0 basechar 0
AnchorPoint: "Anchor-1" 180 457 basechar 0
AnchorPoint: "Anchor-0" 200 623 basechar 0
LayerCount: 2
Fore
SplineSet
339 411 m 1,0,-1
 311 435 l 1,1,2
 334 456 334 456 348.5 480.5 c 128,-1,3
 363 505 363 505 363 519 c 0,4,5
 363 530 363 530 353 539 c 128,-1,6
 343 548 343 548 332.5 558 c 128,-1,7
 322 568 322 568 322 581 c 0,8,9
 322 601 322 601 335.5 614.5 c 128,-1,10
 349 628 349 628 370 628 c 256,11,12
 391 628 391 628 407.5 609.5 c 128,-1,13
 424 591 424 591 424 562 c 0,14,15
 424 496 424 496 339 411 c 1,0,-1
66 623 m 1,16,-1
 148 623 l 1,17,-1
 148 616 l 1,18,19
 142 610 142 610 140.5 603 c 128,-1,20
 139 596 139 596 139 579 c 2,21,-1
 139 60 l 1,22,-1
 439 60 l 1,23,-1
 439 0 l 1,24,-1
 66 0 l 1,25,-1
 66 623 l 1,16,-1
EndSplineSet
EndChar

StartChar: ldot
Encoding: 320 320 258
Width: 500
GlyphClass: 2
Flags: W
LayerCount: 2
Fore
SplineSet
69 0 m 1,0,-1
 69 58 l 1,1,-1
 184 58 l 1,2,-1
 184 607 l 1,3,-1
 75 607 l 1,4,-1
 75 665 l 1,5,-1
 257 665 l 1,6,-1
 257 58 l 1,7,-1
 411 58 l 1,8,-1
 411 0 l 1,9,-1
 69 0 l 1,0,-1
388 274 m 256,10,11
 363 274 363 274 346 290.5 c 128,-1,12
 329 307 329 307 329 331 c 256,13,14
 329 355 329 355 347 371.5 c 128,-1,15
 365 388 365 388 388 388 c 256,16,17
 411 388 411 388 429.5 371.5 c 128,-1,18
 448 355 448 355 448 331 c 0,19,20
 448 308 448 308 430.5 291 c 128,-1,21
 413 274 413 274 388 274 c 256,10,11
EndSplineSet
EndChar

StartChar: Lslash
Encoding: 321 321 259
Width: 500
GlyphClass: 2
Flags: W
LayerCount: 2
Fore
SplineSet
73 0 m 1,0,-1
 73 243 l 1,1,-1
 20 226 l 1,2,-1
 20 287 l 1,3,-1
 73 305 l 1,4,-1
 73 623 l 1,5,-1
 154 623 l 2,6,7
 156 623 156 623 156 621 c 0,8,9
 156 617 156 617 152 612.5 c 128,-1,10
 148 608 148 608 146 589 c 2,11,-1
 146 328 l 1,12,-1
 312 382 l 2,13,14
 320 385 320 385 326.5 387.5 c 128,-1,15
 333 390 333 390 337 392 c 1,16,-1
 337 328 l 1,17,-1
 146 267 l 1,18,-1
 146 60 l 1,19,-1
 446 60 l 1,20,-1
 446 0 l 1,21,-1
 73 0 l 1,0,-1
EndSplineSet
EndChar

StartChar: lslash
Encoding: 322 322 260
Width: 500
GlyphClass: 2
Flags: W
LayerCount: 2
Fore
SplineSet
79 0 m 1,0,-1
 79 58 l 1,1,-1
 214 58 l 1,2,-1
 214 279 l 1,3,-1
 135 252 l 1,4,-1
 135 318 l 1,5,-1
 214 345 l 1,6,-1
 214 607 l 1,7,-1
 85 607 l 1,8,-1
 85 665 l 1,9,-1
 287 665 l 1,10,-1
 287 370 l 1,11,-1
 378 403 l 1,12,-1
 378 334 l 1,13,-1
 287 303 l 1,14,-1
 287 58 l 1,15,-1
 421 58 l 1,16,-1
 421 0 l 1,17,-1
 79 0 l 1,0,-1
EndSplineSet
EndChar

StartChar: Eng
Encoding: 330 330 267
Width: 500
GlyphClass: 2
Flags: W
AnchorPoint: "Anchor-2" 250 0 basechar 0
AnchorPoint: "Anchor-0" 250 623 basechar 0
LayerCount: 2
Fore
SplineSet
380 623 m 1,0,-1
 454 623 l 1,1,2
 454 617 454 617 450.5 612 c 128,-1,3
 447 607 447 607 447 596 c 2,4,-1
 447 0 l 2,5,6
 447 -93 447 -93 406 -139 c 128,-1,7
 365 -185 365 -185 295 -185 c 0,8,9
 248 -185 248 -185 208 -160 c 1,10,-1
 243 -98 l 1,11,12
 252 -101 252 -101 256 -106.5 c 128,-1,13
 260 -112 260 -112 268.5 -117 c 128,-1,14
 277 -122 277 -122 298 -122 c 0,15,16
 345 -122 345 -122 362 -87 c 128,-1,17
 379 -52 379 -52 380 22 c 1,18,-1
 117 490 l 1,19,-1
 117 0 l 1,20,-1
 50 0 l 1,21,-1
 50 623 l 1,22,-1
 118 623 l 1,23,-1
 380 161 l 1,24,-1
 380 623 l 1,0,-1
EndSplineSet
EndChar

StartChar: eng
Encoding: 331 331 268
Width: 500
GlyphClass: 2
Flags: W
LayerCount: 2
Fore
SplineSet
262 -176 m 0,0,1
 208 -176 208 -176 165 -142 c 1,2,-1
 199 -75 l 1,3,4
 203 -76 203 -76 207 -84.5 c 128,-1,5
 211 -93 211 -93 223.5 -101 c 128,-1,6
 236 -109 236 -109 264 -109 c 0,7,8
 361 -109 361 -109 361 45 c 2,9,-1
 361 275 l 2,10,11
 361 347 361 347 336.5 376 c 128,-1,12
 312 405 312 405 277 405 c 0,13,14
 246 405 246 405 214.5 387.5 c 128,-1,15
 183 370 183 370 162.5 338.5 c 128,-1,16
 142 307 142 307 142 263 c 2,17,-1
 142 0 l 1,18,-1
 68 0 l 1,19,-1
 68 457 l 1,20,-1
 142 457 l 1,21,-1
 142 376 l 1,22,23
 168 418 168 418 208.5 443 c 128,-1,24
 249 468 249 468 291 468 c 0,25,26
 352 468 352 468 392 424.5 c 128,-1,27
 432 381 432 381 432 277 c 2,28,-1
 432 56 l 2,29,30
 432 -25 432 -25 409.5 -76.5 c 128,-1,31
 387 -128 387 -128 349 -152 c 128,-1,32
 311 -176 311 -176 262 -176 c 0,0,1
EndSplineSet
EndChar

StartChar: OE
Encoding: 338 338 275
Width: 500
GlyphClass: 2
Flags: W
LayerCount: 2
Fore
SplineSet
172 -7 m 0,0,1
 97 -7 97 -7 53 70.5 c 128,-1,2
 9 148 9 148 9 312 c 0,3,4
 9 471 9 471 52 551.5 c 128,-1,5
 95 632 95 632 173 632 c 0,6,7
 194 632 194 632 214.5 623.5 c 128,-1,8
 235 615 235 615 253 595 c 1,9,-1
 253 624 l 1,10,-1
 484 624 l 1,11,-1
 484 562 l 1,12,-1
 315 562 l 1,13,-1
 315 357 l 1,14,-1
 458 357 l 1,15,-1
 458 293 l 1,16,-1
 315 293 l 1,17,-1
 315 62 l 1,18,-1
 482 62 l 1,19,-1
 482 0 l 1,20,-1
 252 0 l 1,21,-1
 252 31 l 1,22,23
 235 11 235 11 215 2 c 128,-1,24
 195 -7 195 -7 172 -7 c 0,0,1
179 54 m 0,25,26
 205 54 205 54 225 75 c 128,-1,27
 245 96 245 96 252 129 c 1,28,-1
 252 485 l 1,29,30
 240 519 240 519 221 546.5 c 128,-1,31
 202 574 202 574 171 574 c 0,32,33
 145 574 145 574 122.5 551 c 128,-1,34
 100 528 100 528 86.5 471 c 128,-1,35
 73 414 73 414 73 313 c 0,36,37
 73 190 73 190 100.5 122 c 128,-1,38
 128 54 128 54 179 54 c 0,25,26
EndSplineSet
EndChar

StartChar: oe
Encoding: 339 339 276
Width: 500
GlyphClass: 2
Flags: W
LayerCount: 2
Fore
SplineSet
372 -12 m 0,0,1
 303 -12 303 -12 253 29 c 1,2,3
 210 -11 210 -11 154 -11 c 0,4,5
 129 -11 129 -11 103 -0.5 c 128,-1,6
 77 10 77 10 55 36.5 c 128,-1,7
 33 63 33 63 19.5 109.5 c 128,-1,8
 6 156 6 156 6 228 c 0,9,10
 6 316 6 316 28 368 c 128,-1,11
 50 420 50 420 85.5 443 c 128,-1,12
 121 466 121 466 161 466 c 0,13,14
 221 466 221 466 255 420 c 1,15,16
 294 466 294 466 356 466 c 0,17,18
 419 466 419 466 454.5 420 c 128,-1,19
 490 374 490 374 490 283 c 2,20,-1
 490 221 l 1,21,-1
 262 221 l 1,22,23
 264 150 264 150 275.5 112 c 128,-1,24
 287 74 287 74 309 60.5 c 128,-1,25
 331 47 331 47 363 47 c 0,26,27
 424 47 424 47 459 85 c 1,28,-1
 494 42 l 1,29,30
 442 -12 442 -12 372 -12 c 0,0,1
263 278 m 1,31,-1
 431 278 l 1,32,33
 431 349 431 349 412.5 380 c 128,-1,34
 394 411 394 411 350 411 c 0,35,36
 311 411 311 411 287 377 c 128,-1,37
 263 343 263 343 263 278 c 1,31,-1
163 50 m 0,38,39
 183 50 183 50 198 60.5 c 128,-1,40
 213 71 213 71 213 89 c 0,41,42
 213 93 213 93 210 112 c 0,43,44
 204 147 204 147 202 179 c 128,-1,45
 200 211 200 211 200 238 c 0,46,47
 200 296 200 296 204.5 325.5 c 128,-1,48
 209 355 209 355 209 362 c 0,49,50
 209 381 209 381 195 393.5 c 128,-1,51
 181 406 181 406 161 406 c 0,52,53
 138 406 138 406 116 389.5 c 128,-1,54
 94 373 94 373 80 336.5 c 128,-1,55
 66 300 66 300 66 239 c 0,56,57
 66 143 66 143 92 96.5 c 128,-1,58
 118 50 118 50 163 50 c 0,38,39
EndSplineSet
EndChar

StartChar: Tbar
Encoding: 358 358 295
Width: 500
GlyphClass: 2
Flags: W
AnchorPoint: "Anchor-4" 244 312 basechar 0
AnchorPoint: "Anchor-2" 250 0 basechar 0
AnchorPoint: "Anchor-0" 250 623 basechar 0
LayerCount: 2
Fore
SplineSet
208 0 m 1,0,-1
 208 283 l 1,1,-1
 88 283 l 1,2,-1
 88 340 l 1,3,-1
 208 340 l 1,4,-1
 208 561 l 1,5,-1
 31 561 l 1,6,-1
 31 624 l 1,7,-1
 463 624 l 1,8,-1
 463 561 l 1,9,-1
 279 561 l 1,10,-1
 279 340 l 1,11,-1
 412 340 l 1,12,-1
 412 283 l 1,13,-1
 279 283 l 1,14,-1
 279 0 l 1,15,-1
 208 0 l 1,0,-1
EndSplineSet
EndChar

StartChar: tbar
Encoding: 359 359 296
Width: 500
GlyphClass: 2
Flags: W
AnchorPoint: "Anchor-4" 213 312 basechar 0
AnchorPoint: "Anchor-2" 250 0 basechar 0
AnchorPoint: "Anchor-1" 310 457 basechar 0
AnchorPoint: "Anchor-0" 235 583 basechar 0
LayerCount: 2
Fore
SplineSet
61 220 m 1,0,-1
 61 277 l 1,1,-1
 163 277 l 1,2,-1
 168 398 l 1,3,-1
 70 398 l 1,4,-1
 70 457 l 1,5,-1
 170 457 l 1,6,-1
 174 574 l 1,7,-1
 249 583 l 1,8,-1
 259 584 l 1,9,-1
 260 577 l 1,10,11
 255 570 255 570 251.5 563 c 128,-1,12
 248 556 248 556 246 539 c 2,13,-1
 239 457 l 1,14,-1
 399 457 l 1,15,-1
 399 398 l 1,16,-1
 240 398 l 1,17,-1
 234 277 l 1,18,-1
 390 277 l 1,19,-1
 390 220 l 1,20,-1
 232 220 l 1,21,22
 231 153 231 153 238.5 117 c 128,-1,23
 246 81 246 81 263.5 67 c 128,-1,24
 281 53 281 53 310 53 c 0,25,26
 343 53 343 53 368.5 66 c 128,-1,27
 394 79 394 79 422 99 c 1,28,-1
 444 42 l 1,29,30
 410 17 410 17 374 5 c 128,-1,31
 338 -7 338 -7 299 -7 c 0,32,33
 243 -7 243 -7 213 17 c 128,-1,34
 183 41 183 41 171.5 91.5 c 128,-1,35
 160 142 160 142 161 220 c 1,36,-1
 61 220 l 1,0,-1
EndSplineSet
EndChar

StartChar: florin
Encoding: 402 402 321
Width: 500
GlyphClass: 2
Flags: W
LayerCount: 2
Fore
SplineSet
100 -175 m 0,0,1
 51 -175 51 -175 18 -140 c 1,2,-1
 59 -76 l 1,3,4
 64 -77 64 -77 66.5 -85 c 128,-1,5
 69 -93 69 -93 78 -100.5 c 128,-1,6
 87 -108 87 -108 109 -108 c 0,7,8
 137 -108 137 -108 155.5 -74 c 128,-1,9
 174 -40 174 -40 179 27 c 2,10,-1
 201 326 l 1,11,-1
 80 326 l 1,12,-1
 80 383 l 1,13,-1
 205 383 l 1,14,-1
 212 475 l 2,15,16
 220 578 220 578 261 625.5 c 128,-1,17
 302 673 302 673 368 673 c 0,18,19
 436 673 436 673 480 620 c 1,20,-1
 447 554 l 1,21,22
 439 554 439 554 438 564 c 0,23,24
 434 587 434 587 413 601.5 c 128,-1,25
 392 616 392 616 369 616 c 0,26,27
 345 616 345 616 326.5 604 c 128,-1,28
 308 592 308 592 296.5 559.5 c 128,-1,29
 285 527 285 527 281 465 c 2,30,-1
 275 383 l 1,31,-1
 398 383 l 1,32,-1
 398 326 l 1,33,-1
 270 326 l 1,34,-1
 246 24 l 2,35,36
 236 -86 236 -86 196 -130.5 c 128,-1,37
 156 -175 156 -175 100 -175 c 0,0,1
EndSplineSet
EndChar

StartChar: uni0198
Encoding: 408 408 322
Width: 500
GlyphClass: 2
Flags: W
LayerCount: 2
Fore
SplineSet
42 623 m 1,0,-1
 126 623 l 1,1,-1
 126 616 l 1,2,3
 120 610 120 610 118.5 603 c 128,-1,4
 117 596 117 596 117 579 c 2,5,-1
 117 326 l 1,6,7
 182 439 182 439 237 504.5 c 128,-1,8
 292 570 292 570 340.5 598.5 c 128,-1,9
 389 627 389 627 431 627 c 0,10,11
 440 627 440 627 449 626 c 128,-1,12
 458 625 458 625 466 623 c 1,13,-1
 465 551 l 1,14,-1
 465 541 l 1,15,-1
 458 541 l 1,16,17
 452 547 452 547 445 551 c 128,-1,18
 438 555 438 555 421 556 c 2,19,-1
 418 556 l 2,20,21
 407 556 407 556 390.5 550.5 c 128,-1,22
 374 545 374 545 350 527 c 128,-1,23
 326 509 326 509 291 471.5 c 128,-1,24
 256 434 256 434 208 370 c 1,25,-1
 471 0 l 1,26,-1
 381 -4 l 1,27,-1
 166 311 l 1,28,29
 143 277 143 277 117 238 c 1,30,-1
 117 0 l 1,31,-1
 42 0 l 1,32,-1
 42 623 l 1,0,-1
EndSplineSet
EndChar

StartChar: uni01B8
Encoding: 440 440 327
Width: 500
GlyphClass: 2
Flags: W
LayerCount: 2
Fore
SplineSet
268 -11 m 0,0,1
 203 -11 203 -11 159 14.5 c 128,-1,2
 115 40 115 40 93 81.5 c 128,-1,3
 71 123 71 123 71 172 c 0,4,5
 71 225 71 225 95.5 269.5 c 128,-1,6
 120 314 120 314 163.5 341.5 c 128,-1,7
 207 369 207 369 264 372 c 1,8,-1
 88 560 l 1,9,-1
 88 623 l 1,10,-1
 393 623 l 1,11,-1
 393 560 l 1,12,-1
 166 560 l 1,13,-1
 338 372 l 1,14,-1
 338 320 l 1,15,16
 250 325 250 325 196.5 291 c 128,-1,17
 143 257 143 257 143 177 c 0,18,19
 143 120 143 120 177.5 84.5 c 128,-1,20
 212 49 212 49 275 49 c 0,21,22
 304 49 304 49 323 57 c 128,-1,23
 342 65 342 65 358 81 c 0,24,25
 369 94 369 94 372.5 100.5 c 128,-1,26
 376 107 376 107 375 115 c 1,27,-1
 380 121 l 1,28,-1
 387 114 l 1,29,-1
 429 60 l 1,30,31
 364 -11 364 -11 268 -11 c 0,0,1
EndSplineSet
EndChar

StartChar: uni01C7
Encoding: 455 455 329
Width: 500
GlyphClass: 2
Flags: W
LayerCount: 2
Fore
SplineSet
286 -151 m 0,0,1
 198 -151 198 -151 139 -82 c 1,2,-1
 186 -25 l 1,3,4
 195 -32 195 -32 195.5 -39.5 c 128,-1,5
 196 -47 196 -47 205 -57 c 0,6,7
 213 -67 213 -67 234 -78 c 128,-1,8
 255 -89 255 -89 285 -89 c 0,9,10
 332 -89 332 -89 357 -54 c 128,-1,11
 382 -19 382 -19 382 68 c 2,12,-1
 382 564 l 1,13,-1
 252 564 l 1,14,-1
 252 623 l 1,15,-1
 451 623 l 1,16,-1
 451 69 l 2,17,18
 454 -11 454 -11 430.5 -59.5 c 128,-1,19
 407 -108 407 -108 368.5 -129.5 c 128,-1,20
 330 -151 330 -151 286 -151 c 0,0,1
66 0 m 1,21,-1
 66 623 l 1,22,-1
 148 623 l 1,23,24
 148 616 148 616 145.5 614.5 c 128,-1,25
 143 613 143 613 141 609 c 128,-1,26
 139 605 139 605 139 589 c 2,27,-1
 139 61 l 1,28,-1
 309 61 l 1,29,-1
 309 0 l 1,30,-1
 66 0 l 1,21,-1
EndSplineSet
EndChar

StartChar: uni01C8
Encoding: 456 456 330
Width: 500
GlyphClass: 2
Flags: W
LayerCount: 2
Fore
SplineSet
383 552 m 256,0,1
 362 552 362 552 347 567 c 128,-1,2
 332 582 332 582 332 603 c 0,3,4
 332 625 332 625 346.5 640 c 128,-1,5
 361 655 361 655 383 655 c 0,6,7
 404 655 404 655 419.5 639.5 c 128,-1,8
 435 624 435 624 435 603 c 256,9,10
 435 582 435 582 419.5 567 c 128,-1,11
 404 552 404 552 383 552 c 256,0,1
66 0 m 1,12,-1
 66 623 l 1,13,-1
 148 623 l 1,14,15
 148 613 148 613 143.5 605.5 c 128,-1,16
 139 598 139 598 139 589 c 2,17,-1
 139 61 l 1,18,-1
 299 61 l 1,19,-1
 299 0 l 1,20,-1
 66 0 l 1,12,-1
248 -174 m 0,21,22
 160 -174 160 -174 108 -110 c 1,23,-1
 155 -48 l 1,24,25
 162 -55 162 -55 164 -63 c 128,-1,26
 166 -71 166 -71 173.5 -80 c 128,-1,27
 181 -89 181 -89 206 -101 c 0,28,29
 230 -112 230 -112 253 -112 c 0,30,31
 298 -112 298 -112 327 -81.5 c 128,-1,32
 356 -51 356 -51 356 18 c 2,33,-1
 356 398 l 1,34,-1
 216 398 l 1,35,-1
 216 457 l 1,36,-1
 429 457 l 1,37,-1
 429 22 l 2,38,39
 429 -47 429 -47 405 -89.5 c 128,-1,40
 381 -132 381 -132 340 -151.5 c 128,-1,41
 299 -171 299 -171 248 -174 c 0,21,22
EndSplineSet
EndChar

StartChar: uni01C9
Encoding: 457 457 331
Width: 500
GlyphClass: 2
Flags: W
LayerCount: 2
Fore
SplineSet
19 0 m 1,0,-1
 19 58 l 1,1,-1
 84 58 l 1,2,-1
 84 607 l 1,3,-1
 25 607 l 1,4,-1
 25 665 l 1,5,-1
 157 665 l 1,6,-1
 157 58 l 1,7,-1
 281 58 l 1,8,-1
 281 0 l 1,9,-1
 19 0 l 1,0,-1
382 553 m 256,10,11
 361 553 361 553 346 568 c 128,-1,12
 331 583 331 583 331 604 c 0,13,14
 331 626 331 626 345.5 641 c 128,-1,15
 360 656 360 656 382 656 c 0,16,17
 403 656 403 656 418.5 640.5 c 128,-1,18
 434 625 434 625 434 604 c 256,19,20
 434 583 434 583 418.5 568 c 128,-1,21
 403 553 403 553 382 553 c 256,10,11
248 -174 m 0,22,23
 160 -174 160 -174 108 -110 c 1,24,-1
 155 -48 l 1,25,26
 162 -55 162 -55 164 -63 c 128,-1,27
 166 -71 166 -71 173.5 -80 c 128,-1,28
 181 -89 181 -89 206 -101 c 0,29,30
 230 -112 230 -112 253 -112 c 0,31,32
 298 -112 298 -112 327 -81.5 c 128,-1,33
 356 -51 356 -51 356 18 c 2,34,-1
 356 398 l 1,35,-1
 216 398 l 1,36,-1
 216 457 l 1,37,-1
 429 457 l 1,38,-1
 429 22 l 2,39,40
 429 -47 429 -47 405 -89.5 c 128,-1,41
 381 -132 381 -132 340 -151.5 c 128,-1,42
 299 -171 299 -171 248 -174 c 0,22,23
EndSplineSet
EndChar

StartChar: uni0237
Encoding: 567 567 378
Width: 500
GlyphClass: 2
Flags: W
AnchorPoint: "Anchor-2" 250 -190 basechar 0
AnchorPoint: "Anchor-0" 328 457 basechar 0
LayerCount: 2
Fore
SplineSet
194 -174 m 0,0,1
 151 -174 151 -174 112.5 -158 c 128,-1,2
 74 -142 74 -142 48 -110 c 1,3,-1
 88 -56 l 1,4,-1
 94 -48 l 1,5,-1
 100 -52 l 1,6,7
 102 -60 102 -60 105 -67.5 c 128,-1,8
 108 -75 108 -75 119 -87 c 0,9,10
 133 -98 133 -98 151.5 -105 c 128,-1,11
 170 -112 170 -112 193 -112 c 0,12,13
 238 -112 238 -112 267 -81.5 c 128,-1,14
 296 -51 296 -51 296 18 c 2,15,-1
 296 398 l 1,16,-1
 126 398 l 1,17,-1
 126 457 l 1,18,-1
 369 457 l 1,19,-1
 369 22 l 2,20,21
 369 -47 369 -47 345 -90.5 c 128,-1,22
 321 -134 321 -134 281.5 -154 c 128,-1,23
 242 -174 242 -174 194 -174 c 0,0,1
EndSplineSet
EndChar

StartChar: uni024D
Encoding: 589 589 379
Width: 500
GlyphClass: 2
Flags: W
AnchorPoint: "Anchor-2" 270 0 basechar 0
AnchorPoint: "Anchor-0" 290 457 basechar 0
LayerCount: 2
Fore
SplineSet
35 172 m 1,0,-1
 35 229 l 1,1,-1
 119 229 l 1,2,-1
 119 457 l 1,3,-1
 194 457 l 1,4,-1
 192 373 l 1,5,6
 211 419 211 419 251 443.5 c 128,-1,7
 291 468 291 468 337 468 c 0,8,9
 410 468 410 468 458 418 c 1,10,-1
 426 362 l 1,11,-1
 422 353 l 1,12,-1
 415 357 l 1,13,14
 413 365 413 365 409 372 c 128,-1,15
 405 379 405 379 392 389 c 0,16,17
 376 399 376 399 362.5 402.5 c 128,-1,18
 349 406 349 406 332 406 c 0,19,20
 299 406 299 406 266.5 389 c 128,-1,21
 234 372 234 372 213 336 c 128,-1,22
 192 300 192 300 192 242 c 2,23,-1
 192 229 l 1,24,-1
 305 229 l 1,25,-1
 305 172 l 1,26,-1
 192 172 l 1,27,-1
 192 -1 l 1,28,-1
 119 -1 l 1,29,-1
 119 172 l 1,30,-1
 35 172 l 1,0,-1
EndSplineSet
EndChar

StartChar: uni027B
Encoding: 635 635 381
Width: 500
GlyphClass: 2
Flags: W
LayerCount: 2
Fore
SplineSet
396 -177 m 0,0,1
 367 -177 367 -177 337 -165 c 128,-1,2
 307 -153 307 -153 287.5 -123.5 c 128,-1,3
 268 -94 268 -94 268 -41 c 2,4,-1
 269 86 l 1,5,6
 251 39 251 39 213.5 14 c 128,-1,7
 176 -11 176 -11 133 -11 c 0,8,9
 101 -11 101 -11 76 1.5 c 128,-1,10
 51 14 51 14 25 39 c 1,11,-1
 55 95 l 1,12,-1
 59 104 l 1,13,-1
 65 101 l 1,14,15
 68 93 68 93 71.5 85 c 128,-1,16
 75 77 75 77 87 66 c 0,17,18
 107 51 107 51 138 51 c 256,19,20
 169 51 169 51 199 68 c 128,-1,21
 229 85 229 85 248.5 121.5 c 128,-1,22
 268 158 268 158 268 215 c 2,23,-1
 268 458 l 1,24,-1
 341 458 l 1,25,-1
 341 -41 l 2,26,27
 341 -77 341 -77 360.5 -96 c 128,-1,28
 380 -115 380 -115 407 -115 c 0,29,30
 417 -115 417 -115 427 -113 c 128,-1,31
 437 -111 437 -111 448 -104 c 0,32,33
 456 -99 456 -99 457 -93.5 c 128,-1,34
 458 -88 458 -88 463 -84 c 1,35,-1
 488 -139 l 1,36,37
 472 -157 472 -157 449 -167 c 128,-1,38
 426 -177 426 -177 396 -177 c 0,0,1
EndSplineSet
EndChar

StartChar: uni029A
Encoding: 666 666 383
Width: 500
GlyphClass: 2
Flags: W
LayerCount: 2
Fore
SplineSet
236 -8 m 0,0,1
 180 -7 180 -7 136.5 13 c 128,-1,2
 93 33 93 33 69 67.5 c 128,-1,3
 45 102 45 102 45 143 c 0,4,5
 45 185 45 185 69 214 c 128,-1,6
 93 243 93 243 133 252 c 1,7,8
 73 286 73 286 73 344 c 0,9,10
 73 380 73 380 95.5 407.5 c 128,-1,11
 118 435 118 435 157 451 c 128,-1,12
 196 467 196 467 244 467 c 0,13,14
 307 467 307 467 354 436.5 c 128,-1,15
 401 406 401 406 427 352.5 c 128,-1,16
 453 299 453 299 453 229 c 0,17,18
 453 160 453 160 426 106 c 128,-1,19
 399 52 399 52 350 22 c 128,-1,20
 301 -8 301 -8 236 -8 c 0,0,1
236 52 m 0,21,22
 300 52 300 52 338.5 98.5 c 128,-1,23
 377 145 377 145 377 230 c 0,24,25
 377 308 377 308 340.5 357.5 c 128,-1,26
 304 407 304 407 241 407 c 0,27,28
 195 407 195 407 172.5 387.5 c 128,-1,29
 150 368 150 368 150 339 c 0,30,31
 150 311 150 311 170 294 c 128,-1,32
 190 277 190 277 241 277 c 0,33,34
 247 277 247 277 253 277 c 128,-1,35
 259 277 259 277 265 278 c 1,36,-1
 265 211 l 1,37,38
 255 212 255 212 247 213 c 128,-1,39
 239 214 239 214 229 214 c 0,40,41
 183 214 183 214 153 195 c 128,-1,42
 123 176 123 176 123 137 c 0,43,44
 123 99 123 99 155.5 75.5 c 128,-1,45
 188 52 188 52 236 52 c 0,21,22
EndSplineSet
EndChar

StartChar: uni02BC
Encoding: 700 700 387
Width: 500
GlyphClass: 2
Flags: W
LayerCount: 2
Fore
SplineSet
208 454 m 1,0,-1
 180 478 l 1,1,2
 203 499 203 499 217.5 523.5 c 128,-1,3
 232 548 232 548 232 563 c 0,4,5
 232 574 232 574 222 582 c 128,-1,6
 212 590 212 590 201.5 600 c 128,-1,7
 191 610 191 610 191 624 c 0,8,9
 191 644 191 644 204.5 657.5 c 128,-1,10
 218 671 218 671 239 671 c 256,11,12
 260 671 260 671 276.5 652.5 c 128,-1,13
 293 634 293 634 293 605 c 0,14,15
 293 539 293 539 208 454 c 1,0,-1
EndSplineSet
EndChar

StartChar: uni02BF
Encoding: 703 703 389
Width: 500
GlyphClass: 2
Flags: W
LayerCount: 2
Fore
SplineSet
304 450 m 1,0,1
 259 450 259 450 227.5 481 c 128,-1,2
 196 512 196 512 196 557 c 0,3,4
 196 603 196 603 228.5 634 c 128,-1,5
 261 665 261 665 304 665 c 1,6,-1
 305 619 l 1,7,8
 282 619 282 619 265 600.5 c 128,-1,9
 248 582 248 582 248 558 c 256,10,11
 248 534 248 534 264.5 516 c 128,-1,12
 281 498 281 498 304 498 c 1,13,-1
 304 450 l 1,0,1
EndSplineSet
EndChar

StartChar: circumflex
Encoding: 710 710 390
Width: 500
GlyphClass: 2
Flags: W
LayerCount: 2
Fore
SplineSet
343 518 m 1,0,-1
 255 621 l 1,1,-1
 160 515 l 1,2,-1
 124 545 l 1,3,-1
 245 685 l 1,4,-1
 267 685 l 1,5,-1
 387 544 l 1,6,-1
 343 518 l 1,0,-1
EndSplineSet
EndChar

StartChar: caron
Encoding: 711 711 391
Width: 500
GlyphClass: 2
Flags: W
LayerCount: 2
Fore
SplineSet
244 518 m 1,0,-1
 134 659 l 1,1,-1
 180 694 l 1,2,-1
 258 591 l 1,3,-1
 339 693 l 1,4,-1
 377 658 l 1,5,-1
 266 518 l 1,6,-1
 244 518 l 1,0,-1
EndSplineSet
Substitution2: "'case' Case-Sensitive Forms in Latin lookup 74 subtable" caron.case
Substitution2: "Single Substitution lookup 50 subtable" caron.case
Substitution2: "Single Substitution lookup 49 subtable" caron.case
Substitution2: "Single Substitution lookup 47 subtable" caron.case
Substitution2: "Single Substitution lookup 46 subtable" caron.case
Substitution2: "'aalt' Access All Alternates in Latin lookup 43 subtable" caron.case
EndChar

StartChar: uni02C8
Encoding: 712 712 392
Width: 500
GlyphClass: 2
Flags: W
LayerCount: 2
Fore
SplineSet
292 445 m 1,0,-1
 221 445 l 1,1,-1
 221 665 l 1,2,-1
 292 665 l 1,3,-1
 292 445 l 1,0,-1
EndSplineSet
EndChar

StartChar: uni02C9
Encoding: 713 713 393
Width: 500
GlyphClass: 2
Flags: W
LayerCount: 2
Fore
SplineSet
123 565 m 1,0,-1
 123 621 l 1,1,-1
 377 621 l 1,2,-1
 377 565 l 1,3,-1
 123 565 l 1,0,-1
EndSplineSet
EndChar

StartChar: uni02CA
Encoding: 714 714 394
Width: 500
GlyphClass: 2
Flags: W
LayerCount: 2
Fore
SplineSet
241 558 m 1,0,-1
 184 558 l 1,1,-1
 275 704 l 1,2,-1
 354 704 l 1,3,-1
 241 558 l 1,0,-1
EndSplineSet
EndChar

StartChar: uni02CB
Encoding: 715 715 395
Width: 500
GlyphClass: 2
Flags: W
LayerCount: 2
Fore
SplineSet
281 522 m 1,0,-1
 180 657 l 1,1,-1
 243 699 l 1,2,-1
 331 552 l 1,3,-1
 281 522 l 1,0,-1
EndSplineSet
EndChar

StartChar: uni02CC
Encoding: 716 716 396
Width: 500
GlyphClass: 2
Flags: W
LayerCount: 2
Fore
SplineSet
287 -190 m 1,0,-1
 214 -190 l 1,1,-1
 214 30 l 1,2,-1
 287 30 l 1,3,-1
 287 -190 l 1,0,-1
EndSplineSet
EndChar

StartChar: breve
Encoding: 728 728 397
Width: 500
GlyphClass: 2
Flags: W
LayerCount: 2
Fore
SplineSet
251 524 m 0,0,1
 166 524 166 524 101 601 c 1,2,-1
 137 646 l 1,3,4
 156 616 156 616 185.5 596 c 128,-1,5
 215 576 215 576 250 576 c 0,6,7
 314 576 314 576 369 646 c 1,8,-1
 397 604 l 1,9,10
 370 568 370 568 331.5 546 c 128,-1,11
 293 524 293 524 251 524 c 0,0,1
EndSplineSet
Substitution2: "'case' Case-Sensitive Forms in Latin lookup 74 subtable" breve.case
Substitution2: "Single Substitution lookup 50 subtable" breve.case
Substitution2: "Single Substitution lookup 49 subtable" breve.case
Substitution2: "Single Substitution lookup 47 subtable" breve.case
Substitution2: "Single Substitution lookup 46 subtable" breve.case
Substitution2: "'aalt' Access All Alternates in Latin lookup 43 subtable" breve.case
EndChar

StartChar: dotaccent
Encoding: 729 729 398
Width: 500
GlyphClass: 2
Flags: W
LayerCount: 2
Fore
SplineSet
254 553 m 256,0,1
 233 553 233 553 218 568 c 128,-1,2
 203 583 203 583 203 604 c 0,3,4
 203 626 203 626 217.5 641 c 128,-1,5
 232 656 232 656 254 656 c 0,6,7
 275 656 275 656 290.5 640.5 c 128,-1,8
 306 625 306 625 306 604 c 256,9,10
 306 583 306 583 290.5 568 c 128,-1,11
 275 553 275 553 254 553 c 256,0,1
EndSplineSet
Substitution2: "'case' Case-Sensitive Forms in Latin lookup 74 subtable" dotaccent.case
Substitution2: "Single Substitution lookup 50 subtable" dotaccent.case
Substitution2: "Single Substitution lookup 49 subtable" dotaccent.case
Substitution2: "Single Substitution lookup 47 subtable" dotaccent.case
Substitution2: "Single Substitution lookup 46 subtable" dotaccent.case
Substitution2: "'aalt' Access All Alternates in Latin lookup 43 subtable" dotaccent.case
EndChar

StartChar: ring
Encoding: 730 730 399
Width: 500
GlyphClass: 2
Flags: W
LayerCount: 2
Fore
SplineSet
256 517 m 0,0,1
 220 517 220 517 192.5 543 c 128,-1,2
 165 569 165 569 165 605 c 256,3,4
 165 641 165 641 192.5 667 c 128,-1,5
 220 693 220 693 256 693 c 0,6,7
 294 693 294 693 321 667.5 c 128,-1,8
 348 642 348 642 348 605 c 0,9,10
 348 569 348 569 320.5 543 c 128,-1,11
 293 517 293 517 256 517 c 0,0,1
257 560 m 256,12,13
 274 560 274 560 286.5 573.5 c 128,-1,14
 299 587 299 587 299 606 c 256,15,16
 299 625 299 625 286.5 638.5 c 128,-1,17
 274 652 274 652 257 652 c 256,18,19
 240 652 240 652 228 638.5 c 128,-1,20
 216 625 216 625 216 606 c 256,21,22
 216 587 216 587 228 573.5 c 128,-1,23
 240 560 240 560 257 560 c 256,12,13
EndSplineSet
Substitution2: "'case' Case-Sensitive Forms in Latin lookup 74 subtable" ring.case
Substitution2: "Single Substitution lookup 50 subtable" ring.case
Substitution2: "Single Substitution lookup 49 subtable" ring.case
Substitution2: "Single Substitution lookup 47 subtable" ring.case
Substitution2: "Single Substitution lookup 46 subtable" ring.case
Substitution2: "'aalt' Access All Alternates in Latin lookup 43 subtable" ring.case
EndChar

StartChar: ogonek
Encoding: 731 731 400
Width: 500
GlyphClass: 2
Flags: W
LayerCount: 2
Fore
SplineSet
379 -179 m 1,0,-1
 363 -227 l 1,1,2
 314 -220 314 -220 282.5 -197.5 c 128,-1,3
 251 -175 251 -175 251 -137 c 0,4,5
 251 -97 251 -97 282.5 -57 c 128,-1,6
 314 -17 314 -17 372 17 c 1,7,-1
 399 0 l 1,8,9
 361 -30 361 -30 339 -63 c 128,-1,10
 317 -96 317 -96 317 -123 c 0,11,12
 317 -144 317 -144 332 -159 c 128,-1,13
 347 -174 347 -174 379 -179 c 1,0,-1
EndSplineSet
EndChar

StartChar: hungarumlaut
Encoding: 733 733 402
Width: 500
GlyphClass: 2
Flags: W
LayerCount: 2
Fore
SplineSet
331 522 m 1,0,-1
 281 552 l 1,1,-1
 369 699 l 1,2,-1
 432 657 l 1,3,-1
 331 522 l 1,0,-1
176 522 m 1,4,-1
 126 552 l 1,5,-1
 214 699 l 1,6,-1
 277 657 l 1,7,-1
 176 522 l 1,4,-1
EndSplineSet
Substitution2: "'case' Case-Sensitive Forms in Latin lookup 74 subtable" hungarumlaut.case
Substitution2: "Single Substitution lookup 50 subtable" hungarumlaut.case
Substitution2: "Single Substitution lookup 49 subtable" hungarumlaut.case
Substitution2: "Single Substitution lookup 47 subtable" hungarumlaut.case
Substitution2: "Single Substitution lookup 46 subtable" hungarumlaut.case
Substitution2: "'aalt' Access All Alternates in Latin lookup 43 subtable" hungarumlaut.case
EndChar

StartChar: uni0302
Encoding: 770 770 405
Width: 0
GlyphClass: 4
Flags: W
AnchorPoint: "Anchor-6" 395 568 basemark 0
AnchorPoint: "Anchor-6" 250 457 mark 0
AnchorPoint: "Anchor-0" 250 457 mark 0
LayerCount: 2
Fore
SplineSet
139 511 m 1,0,-1
 99 545 l 1,1,-1
 238 685 l 1,2,-1
 262 685 l 1,3,-1
 401 545 l 1,4,-1
 361 511 l 1,5,-1
 250 621 l 1,6,-1
 139 511 l 1,0,-1
EndSplineSet
Substitution2: "'case' Case-Sensitive Forms in Latin lookup 74 subtable" uni0302.case
Substitution2: "Single Substitution lookup 50 subtable" uni0302.case
Substitution2: "Single Substitution lookup 49 subtable" uni0302.case
Substitution2: "Single Substitution lookup 47 subtable" uni0302.case
Substitution2: "Single Substitution lookup 46 subtable" uni0302.case
Substitution2: "'aalt' Access All Alternates in Latin lookup 43 subtable" uni0302.case
EndChar

StartChar: tildecomb
Encoding: 771 771 406
Width: 0
GlyphClass: 4
Flags: W
AnchorPoint: "Anchor-6" 260 636 basemark 0
AnchorPoint: "Anchor-6" 260 457 mark 0
AnchorPoint: "Anchor-0" 260 457 mark 0
LayerCount: 2
Fore
SplineSet
385 677 m 1,0,-1
 431 649 l 1,1,2
 409 607 409 607 388.5 590.5 c 128,-1,3
 368 574 368 574 338 574 c 256,4,5
 308 574 308 574 287 587.5 c 128,-1,6
 266 601 266 601 247.5 614.5 c 128,-1,7
 229 628 229 628 206 628 c 0,8,9
 189 628 189 628 175.5 618 c 128,-1,10
 162 608 162 608 150 581 c 1,11,-1
 101 603 l 1,12,13
 115 637 115 637 140 660 c 128,-1,14
 165 683 165 683 204 683 c 0,15,16
 234 683 234 683 254 669.5 c 128,-1,17
 274 656 274 656 292 642.5 c 128,-1,18
 310 629 310 629 334 629 c 0,19,20
 350 629 350 629 360.5 639 c 128,-1,21
 371 649 371 649 385 677 c 1,0,-1
EndSplineSet
Substitution2: "'case' Case-Sensitive Forms in Latin lookup 74 subtable" tildecomb.case
Substitution2: "Single Substitution lookup 50 subtable" tildecomb.case
Substitution2: "Single Substitution lookup 49 subtable" tildecomb.case
Substitution2: "Single Substitution lookup 47 subtable" tildecomb.case
Substitution2: "Single Substitution lookup 46 subtable" tildecomb.case
Substitution2: "'aalt' Access All Alternates in Latin lookup 43 subtable" tildecomb.case
EndChar

StartChar: uni0306
Encoding: 774 774 408
Width: 0
GlyphClass: 4
Flags: W
AnchorPoint: "Anchor-6" 258 654 basemark 0
AnchorPoint: "Anchor-6" 258 457 mark 0
AnchorPoint: "Anchor-0" 258 457 mark 0
LayerCount: 2
Fore
SplineSet
348 654 m 1,0,-1
 400 630 l 1,1,2
 378 586 378 586 341.5 562 c 128,-1,3
 305 538 305 538 258 538 c 0,4,5
 212 538 212 538 175.5 562 c 128,-1,6
 139 586 139 586 116 630 c 1,7,-1
 168 654 l 1,8,9
 200 586 200 586 258 586 c 256,10,11
 316 586 316 586 348 654 c 1,0,-1
EndSplineSet
Substitution2: "'case' Case-Sensitive Forms in Latin lookup 74 subtable" uni0306.case
Substitution2: "Single Substitution lookup 50 subtable" uni0306.case
Substitution2: "Single Substitution lookup 49 subtable" uni0306.case
Substitution2: "Single Substitution lookup 47 subtable" uni0306.case
Substitution2: "Single Substitution lookup 46 subtable" uni0306.case
Substitution2: "'aalt' Access All Alternates in Latin lookup 43 subtable" uni0306.case
EndChar

StartChar: hookabovecomb
Encoding: 777 777 411
Width: 0
GlyphClass: 4
Flags: W
AnchorPoint: "Anchor-6" 241 671 basemark 0
AnchorPoint: "Anchor-6" 235 457 mark 0
AnchorPoint: "Anchor-0" 235 457 mark 0
LayerCount: 2
Fore
SplineSet
320 630 m 0,0,1
 320 609 320 609 311.5 597.5 c 128,-1,2
 303 586 303 586 292 578 c 128,-1,3
 281 570 281 570 272.5 559.5 c 128,-1,4
 264 549 264 549 264 530 c 2,5,-1
 264 523 l 1,6,-1
 213 523 l 1,7,-1
 213 551 l 2,8,9
 213 568 213 568 226 581 c 128,-1,10
 239 594 239 594 252 605 c 128,-1,11
 265 616 265 616 265 628 c 0,12,13
 265 642 265 642 256 649 c 128,-1,14
 247 656 247 656 234 656 c 256,15,16
 221 656 221 656 208.5 650 c 128,-1,17
 196 644 196 644 190 624 c 1,18,-1
 153 662 l 1,19,20
 171 685 171 685 191.5 694.5 c 128,-1,21
 212 704 212 704 239 704 c 0,22,23
 272 704 272 704 296 684.5 c 128,-1,24
 320 665 320 665 320 630 c 0,0,1
EndSplineSet
EndChar

StartChar: uni030C
Encoding: 780 780 414
Width: 0
GlyphClass: 4
Flags: W
AnchorPoint: "Anchor-6" 256 604 basemark 0
AnchorPoint: "Anchor-6" 256 457 mark 0
AnchorPoint: "Anchor-0" 256 457 mark 0
LayerCount: 2
Fore
SplineSet
144 688 m 1,0,-1
 255 578 l 1,1,-1
 366 688 l 1,2,-1
 406 654 l 1,3,-1
 267 514 l 1,4,-1
 243 514 l 1,5,-1
 104 654 l 1,6,-1
 144 688 l 1,0,-1
EndSplineSet
Substitution2: "'case' Case-Sensitive Forms in Latin lookup 74 subtable" uni030C.case
Substitution2: "Single Substitution lookup 50 subtable" uni030C.case
Substitution2: "Single Substitution lookup 49 subtable" uni030C.case
Substitution2: "Single Substitution lookup 47 subtable" uni030C.case
Substitution2: "Single Substitution lookup 46 subtable" uni030C.case
Substitution2: "'aalt' Access All Alternates in Latin lookup 43 subtable" uni030C.case
EndChar

StartChar: uni031B
Encoding: 795 795 418
Width: 0
GlyphClass: 4
Flags: W
AnchorPoint: "Anchor-7" 396 457 basemark 0
AnchorPoint: "Anchor-7" 396 457 mark 0
AnchorPoint: "Anchor-1" 396 457 mark 0
LayerCount: 2
Fore
SplineSet
490 541 m 1,0,1
 490 493 490 493 483 463.5 c 128,-1,2
 476 434 476 434 456 421 c 128,-1,3
 436 408 436 408 396 408 c 1,4,-1
 396 457 l 1,5,6
 412 457 412 457 419 473 c 128,-1,7
 426 489 426 489 426 541 c 1,8,-1
 490 541 l 1,0,1
EndSplineSet
Substitution2: "'case' Case-Sensitive Forms in Latin lookup 74 subtable" uni031B.case
Substitution2: "Single Substitution lookup 50 subtable" uni031B.case
Substitution2: "Single Substitution lookup 49 subtable" uni031B.case
Substitution2: "Single Substitution lookup 47 subtable" uni031B.case
Substitution2: "Single Substitution lookup 46 subtable" uni031B.case
Substitution2: "'aalt' Access All Alternates in Latin lookup 43 subtable" uni031B.case
EndChar

StartChar: uni0328
Encoding: 808 808 423
Width: 0
GlyphClass: 4
Flags: W
AnchorPoint: "Anchor-3" 249 0 mark 0
LayerCount: 2
Fore
SplineSet
279 -179 m 1,0,-1
 263 -227 l 1,1,2
 214 -220 214 -220 182.5 -197.5 c 128,-1,3
 151 -175 151 -175 151 -137 c 0,4,5
 151 -97 151 -97 182.5 -57 c 128,-1,6
 214 -17 214 -17 272 17 c 1,7,-1
 299 0 l 1,8,9
 261 -30 261 -30 239 -63 c 128,-1,10
 217 -96 217 -96 217 -123 c 0,11,12
 217 -144 217 -144 232 -159 c 128,-1,13
 247 -174 247 -174 279 -179 c 1,0,-1
EndSplineSet
EndChar

StartChar: uni0335
Encoding: 821 821 426
Width: 0
GlyphClass: 4
Flags: W
AnchorPoint: "Anchor-4" 251 315 mark 0
LayerCount: 2
Fore
SplineSet
121 286 m 1,0,-1
 121 343 l 1,1,-1
 391 343 l 1,2,-1
 391 286 l 1,3,-1
 121 286 l 1,0,-1
EndSplineSet
EndChar

StartChar: uni0375
Encoding: 885 885 428
Width: 500
GlyphClass: 2
Flags: W
LayerCount: 2
Fore
SplineSet
217 -76 m 1,0,-1
 173 -76 l 1,1,-1
 235 104 l 1,2,-1
 306 104 l 1,3,-1
 217 -76 l 1,0,-1
EndSplineSet
EndChar

StartChar: uni1E9E
Encoding: 7838 7838 502
Width: 500
GlyphClass: 2
Flags: W
LayerCount: 2
Fore
SplineSet
283 -10 m 0,0,1
 223 -10 223 -10 177 21 c 1,2,-1
 199 77 l 1,3,4
 217 65 217 65 237.5 59 c 128,-1,5
 258 53 258 53 276 53 c 0,6,7
 326 53 326 53 362 89 c 128,-1,8
 398 125 398 125 398 190 c 0,9,10
 398 221 398 221 386 251.5 c 128,-1,11
 374 282 374 282 341 302.5 c 128,-1,12
 308 323 308 323 244 323 c 2,13,-1
 214 323 l 1,14,-1
 214 380 l 1,15,-1
 352 501 l 1,16,17
 352 544 352 544 328.5 577.5 c 128,-1,18
 305 611 305 611 247 611 c 0,19,20
 216 611 216 611 187.5 598 c 128,-1,21
 159 585 159 585 141 555.5 c 128,-1,22
 123 526 123 526 123 475 c 2,23,-1
 123 0 l 1,24,-1
 55 0 l 1,25,-1
 55 462 l 2,26,27
 55 540 55 540 83.5 585 c 128,-1,28
 112 630 112 630 156 649.5 c 128,-1,29
 200 669 200 669 246 669 c 0,30,31
 305 669 305 669 343.5 644.5 c 128,-1,32
 382 620 382 620 401 580 c 128,-1,33
 420 540 420 540 420 493 c 1,34,-1
 284 378 l 1,35,36
 369 368 369 368 416.5 319.5 c 128,-1,37
 464 271 464 271 464 181 c 0,38,39
 464 114 464 114 439 71.5 c 128,-1,40
 414 29 414 29 373 9.5 c 128,-1,41
 332 -10 332 -10 283 -10 c 0,0,1
EndSplineSet
EndChar

StartChar: endash
Encoding: 8211 8211 600
Width: 500
GlyphClass: 2
Flags: W
LayerCount: 2
Fore
SplineSet
71 281 m 1,0,-1
 71 348 l 1,1,-1
 431 348 l 1,2,-1
 431 281 l 1,3,-1
 71 281 l 1,0,-1
EndSplineSet
EndChar

StartChar: emdash
Encoding: 8212 8212 601
Width: 500
GlyphClass: 2
Flags: W
LayerCount: 2
Fore
SplineSet
10 281 m 1,0,-1
 10 348 l 1,1,-1
 490 348 l 1,2,-1
 490 281 l 1,3,-1
 10 281 l 1,0,-1
EndSplineSet
EndChar

StartChar: quoteleft
Encoding: 8216 8216 603
Width: 500
GlyphClass: 2
Flags: W
LayerCount: 2
Fore
SplineSet
287 638 m 1,0,-1
 321 608 l 1,1,2
 293 582 293 582 274.5 552 c 128,-1,3
 256 522 256 522 256 503 c 0,4,5
 256 489 256 489 269 478 c 128,-1,6
 282 467 282 467 294.5 455.5 c 128,-1,7
 307 444 307 444 307 426 c 0,8,9
 307 401 307 401 290.5 384 c 128,-1,10
 274 367 274 367 248 367 c 256,11,12
 222 367 222 367 201 390 c 128,-1,13
 180 413 180 413 180 450 c 0,14,15
 180 528 180 528 287 638 c 1,0,-1
EndSplineSet
EndChar

StartChar: quoteright
Encoding: 8217 8217 604
Width: 500
GlyphClass: 2
Flags: W
LayerCount: 2
Fore
SplineSet
199 367 m 1,0,-1
 165 397 l 1,1,2
 193 423 193 423 211.5 453 c 128,-1,3
 230 483 230 483 230 502 c 0,4,5
 230 516 230 516 217.5 527 c 128,-1,6
 205 538 205 538 192 550 c 128,-1,7
 179 562 179 562 179 579 c 0,8,9
 179 604 179 604 195.5 621 c 128,-1,10
 212 638 212 638 238 638 c 256,11,12
 264 638 264 638 285 615 c 128,-1,13
 306 592 306 592 306 555 c 0,14,15
 306 477 306 477 199 367 c 1,0,-1
EndSplineSet
EndChar

StartChar: quotedblleft
Encoding: 8220 8220 606
Width: 500
GlyphClass: 2
Flags: W
LayerCount: 2
Fore
SplineSet
392 638 m 1,0,-1
 426 608 l 1,1,2
 398 582 398 582 379.5 552 c 128,-1,3
 361 522 361 522 361 503 c 0,4,5
 361 489 361 489 374 478 c 128,-1,6
 387 467 387 467 399.5 455.5 c 128,-1,7
 412 444 412 444 412 426 c 0,8,9
 412 401 412 401 395.5 384 c 128,-1,10
 379 367 379 367 353 367 c 256,11,12
 327 367 327 367 306 390 c 128,-1,13
 285 413 285 413 285 450 c 0,14,15
 285 528 285 528 392 638 c 1,0,-1
187 638 m 1,16,-1
 221 608 l 1,17,18
 193 582 193 582 174.5 552 c 128,-1,19
 156 522 156 522 156 503 c 0,20,21
 156 489 156 489 169 478 c 128,-1,22
 182 467 182 467 194.5 455.5 c 128,-1,23
 207 444 207 444 207 426 c 0,24,25
 207 401 207 401 190.5 384 c 128,-1,26
 174 367 174 367 148 367 c 256,27,28
 122 367 122 367 101 390 c 128,-1,29
 80 413 80 413 80 450 c 0,30,31
 80 528 80 528 187 638 c 1,16,-1
EndSplineSet
EndChar

StartChar: dagger
Encoding: 8224 8224 609
Width: 500
GlyphClass: 2
Flags: W
LayerCount: 2
Fore
SplineSet
217 -151 m 1,0,-1
 217 397 l 1,1,-1
 49 397 l 1,2,-1
 49 457 l 1,3,-1
 217 457 l 1,4,-1
 217 652 l 1,5,-1
 284 652 l 1,6,-1
 284 457 l 1,7,-1
 450 457 l 1,8,-1
 450 397 l 1,9,-1
 284 397 l 1,10,-1
 284 -151 l 1,11,-1
 217 -151 l 1,0,-1
EndSplineSet
EndChar

StartChar: daggerdbl
Encoding: 8225 8225 610
Width: 500
GlyphClass: 2
Flags: W
LayerCount: 2
Fore
SplineSet
217 -151 m 1,0,-1
 217 61 l 1,1,-1
 49 61 l 1,2,-1
 49 121 l 1,3,-1
 217 121 l 1,4,-1
 217 397 l 1,5,-1
 49 397 l 1,6,-1
 49 457 l 1,7,-1
 217 457 l 1,8,-1
 217 652 l 1,9,-1
 284 652 l 1,10,-1
 284 457 l 1,11,-1
 450 457 l 1,12,-1
 450 397 l 1,13,-1
 284 397 l 1,14,-1
 284 121 l 1,15,-1
 450 121 l 1,16,-1
 450 61 l 1,17,-1
 284 61 l 1,18,-1
 284 -151 l 1,19,-1
 217 -151 l 1,0,-1
EndSplineSet
EndChar

StartChar: bullet
Encoding: 8226 8226 611
Width: 500
GlyphClass: 2
Flags: W
LayerCount: 2
Fore
SplineSet
250 213 m 256,0,1
 215 213 215 213 190 237.5 c 128,-1,2
 165 262 165 262 165 296 c 0,3,4
 165 331 165 331 190.5 355.5 c 128,-1,5
 216 380 216 380 250 380 c 0,6,7
 285 380 285 380 310 355.5 c 128,-1,8
 335 331 335 331 335 296 c 0,9,10
 335 262 335 262 310 237.5 c 128,-1,11
 285 213 285 213 250 213 c 256,0,1
EndSplineSet
EndChar

StartChar: ellipsis
Encoding: 8230 8230 612
Width: 500
GlyphClass: 2
Flags: W
LayerCount: 2
Fore
SplineSet
412 -11 m 0,0,1
 388 -11 388 -11 371 6 c 128,-1,2
 354 23 354 23 354 46 c 256,3,4
 354 69 354 69 371 86 c 128,-1,5
 388 103 388 103 412 103 c 0,6,7
 435 103 435 103 452 86 c 128,-1,8
 469 69 469 69 469 46 c 256,9,10
 469 23 469 23 452 6 c 128,-1,11
 435 -11 435 -11 412 -11 c 0,0,1
238 -11 m 0,12,13
 214 -11 214 -11 197 6 c 128,-1,14
 180 23 180 23 180 46 c 256,15,16
 180 69 180 69 197 86 c 128,-1,17
 214 103 214 103 238 103 c 0,18,19
 261 103 261 103 278 86 c 128,-1,20
 295 69 295 69 295 46 c 256,21,22
 295 23 295 23 278 6 c 128,-1,23
 261 -11 261 -11 238 -11 c 0,12,13
66 -11 m 0,24,25
 42 -11 42 -11 25 6 c 128,-1,26
 8 23 8 23 8 46 c 256,27,28
 8 69 8 69 25 86 c 128,-1,29
 42 103 42 103 66 103 c 0,30,31
 89 103 89 103 106 86 c 128,-1,32
 123 69 123 69 123 46 c 256,33,34
 123 23 123 23 106 6 c 128,-1,35
 89 -11 89 -11 66 -11 c 0,24,25
EndSplineSet
EndChar

StartChar: perthousand
Encoding: 8240 8240 613
Width: 500
GlyphClass: 2
Flags: W
LayerCount: 2
Fore
SplineSet
130 389 m 0,0,1
 87 389 87 389 56.5 424 c 128,-1,2
 26 459 26 459 26 511 c 0,3,4
 26 562 26 562 56.5 597 c 128,-1,5
 87 632 87 632 130 632 c 0,6,7
 159 632 159 632 182.5 615.5 c 128,-1,8
 206 599 206 599 220 571.5 c 128,-1,9
 234 544 234 544 234 510 c 0,10,11
 234 457 234 457 204 423 c 128,-1,12
 174 389 174 389 130 389 c 0,0,1
130 441 m 256,13,14
 147 441 147 441 160.5 457 c 128,-1,15
 174 473 174 473 174 511 c 256,16,17
 174 549 174 549 159.5 565 c 128,-1,18
 145 581 145 581 128 581 c 0,19,20
 112 581 112 581 98 565 c 128,-1,21
 84 549 84 549 84 511 c 256,22,23
 84 473 84 473 98.5 457 c 128,-1,24
 113 441 113 441 130 441 c 256,13,14
20 226 m 1,25,-1
 20 282 l 1,26,-1
 480 542 l 1,27,-1
 480 486 l 1,28,-1
 20 226 l 1,25,-1
130 -11 m 0,29,30
 87 -11 87 -11 56.5 24 c 128,-1,31
 26 59 26 59 26 111 c 0,32,33
 26 162 26 162 56.5 197 c 128,-1,34
 87 232 87 232 130 232 c 0,35,36
 159 232 159 232 182.5 215.5 c 128,-1,37
 206 199 206 199 220 171.5 c 128,-1,38
 234 144 234 144 234 110 c 0,39,40
 234 57 234 57 204 23 c 128,-1,41
 174 -11 174 -11 130 -11 c 0,29,30
375 -11 m 0,42,43
 332 -11 332 -11 301.5 24 c 128,-1,44
 271 59 271 59 271 111 c 0,45,46
 271 162 271 162 301.5 197 c 128,-1,47
 332 232 332 232 375 232 c 0,48,49
 404 232 404 232 427.5 215.5 c 128,-1,50
 451 199 451 199 465 171.5 c 128,-1,51
 479 144 479 144 479 110 c 0,52,53
 479 58 479 58 449.5 23.5 c 128,-1,54
 420 -11 420 -11 375 -11 c 0,42,43
130 41 m 256,55,56
 147 41 147 41 160.5 57 c 128,-1,57
 174 73 174 73 174 111 c 256,58,59
 174 149 174 149 159.5 165 c 128,-1,60
 145 181 145 181 128 181 c 0,61,62
 112 181 112 181 98 165 c 128,-1,63
 84 149 84 149 84 111 c 256,64,65
 84 73 84 73 98.5 57 c 128,-1,66
 113 41 113 41 130 41 c 256,55,56
375 41 m 0,67,68
 392 41 392 41 405.5 57 c 128,-1,69
 419 73 419 73 419 111 c 256,70,71
 419 149 419 149 404.5 165 c 128,-1,72
 390 181 390 181 373 181 c 0,73,74
 357 181 357 181 343 165 c 128,-1,75
 329 149 329 149 329 111 c 256,76,77
 329 73 329 73 344 57 c 128,-1,78
 359 41 359 41 375 41 c 0,67,68
EndSplineSet
EndChar

StartChar: minute
Encoding: 8242 8242 614
Width: 500
GlyphClass: 2
Flags: W
LayerCount: 2
Fore
SplineSet
243 514 m 1,0,-1
 199 514 l 1,1,-1
 221 694 l 1,2,-1
 292 694 l 1,3,-1
 243 514 l 1,0,-1
EndSplineSet
EndChar

StartChar: guilsinglleft
Encoding: 8249 8249 616
Width: 500
GlyphClass: 2
Flags: W
LayerCount: 2
Fore
SplineSet
303 61 m 1,0,-1
 145 230 l 1,1,-1
 145 253 l 1,2,-1
 297 400 l 1,3,-1
 336 359 l 1,4,-1
 215 241 l 1,5,-1
 343 101 l 1,6,-1
 303 61 l 1,0,-1
EndSplineSet
EndChar

StartChar: guilsinglright
Encoding: 8250 8250 617
Width: 500
GlyphClass: 2
Flags: W
LayerCount: 2
Fore
SplineSet
185 61 m 1,0,-1
 145 101 l 1,1,-1
 273 241 l 1,2,-1
 152 359 l 1,3,-1
 191 400 l 1,4,-1
 343 253 l 1,5,-1
 343 230 l 1,6,-1
 185 61 l 1,0,-1
EndSplineSet
EndChar

StartChar: fraction
Encoding: 8260 8260 618
Width: 500
GlyphClass: 2
Flags: W
LayerCount: 2
Fore
SplineSet
123 -42 m 1,0,-1
 76 -16 l 1,1,-1
 389 665 l 1,2,-1
 437 638 l 1,3,-1
 123 -42 l 1,0,-1
EndSplineSet
EndChar

StartChar: uni2070
Encoding: 8304 8304 619
Width: 500
GlyphClass: 2
Flags: W
LayerCount: 2
Fore
SplineSet
250 239 m 0,0,1
 186 239 186 239 150 291 c 128,-1,2
 114 343 114 343 114 437 c 0,3,4
 114 529 114 529 150 582.5 c 128,-1,5
 186 636 186 636 250 636 c 0,6,7
 315 636 315 636 350.5 582.5 c 128,-1,8
 386 529 386 529 386 437 c 0,9,10
 386 343 386 343 350.5 291 c 128,-1,11
 315 239 315 239 250 239 c 0,0,1
168 437 m 0,12,13
 168 401 168 401 173 373 c 1,14,-1
 317 535 l 1,15,16
 295 590 295 590 250 590 c 0,17,18
 211 590 211 590 189.5 549 c 128,-1,19
 168 508 168 508 168 437 c 0,12,13
250 284 m 0,20,21
 289 284 289 284 310.5 324 c 128,-1,22
 332 364 332 364 332 437 c 0,23,24
 332 469 332 469 328 495 c 1,25,-1
 184 335 l 1,26,27
 206 284 206 284 250 284 c 0,20,21
EndSplineSet
Substitution2: "'ss02' Style Set 2 in Latin lookup 79 subtable" uni2070.ss02
Substitution2: "'zero' Slashed Zero in Latin lookup 76 subtable" uni2070.zero
AlternateSubs2: "'aalt' Access All Alternates in Latin lookup 44 subtable" uni2070.ss02 uni2070.zero
EndChar

StartChar: uni2074
Encoding: 8308 8308 620
Width: 500
GlyphClass: 2
Flags: W
LayerCount: 2
Fore
SplineSet
290 246 m 1,0,-1
 290 339 l 1,1,-1
 110 339 l 1,2,-1
 110 376 l 1,3,-1
 302 633 l 1,4,-1
 346 633 l 1,5,-1
 346 384 l 1,6,-1
 402 384 l 1,7,-1
 402 338 l 1,8,-1
 346 338 l 1,9,-1
 346 246 l 1,10,-1
 290 246 l 1,0,-1
173 384 m 1,11,-1
 291 384 l 1,12,-1
 291 543 l 1,13,-1
 173 384 l 1,11,-1
EndSplineSet
EndChar

StartChar: uni2075
Encoding: 8309 8309 621
Width: 500
GlyphClass: 2
Flags: W
LayerCount: 2
Fore
SplineSet
250 239 m 0,0,1
 210 239 210 239 175.5 254.5 c 128,-1,2
 141 270 141 270 121 299 c 1,3,-1
 162 331 l 1,4,-1
 170 338 l 1,5,-1
 174 332 l 1,6,7
 173 324 173 324 177.5 318 c 128,-1,8
 182 312 182 312 194 300 c 0,9,10
 217 285 217 285 252 285 c 0,11,12
 284 285 284 285 308 307.5 c 128,-1,13
 332 330 332 330 332 369 c 0,14,15
 332 410 332 410 307.5 432 c 128,-1,16
 283 454 283 454 248 454 c 0,17,18
 202 454 202 454 171 420 c 1,19,-1
 136 432 l 1,20,-1
 150 632 l 1,21,-1
 370 632 l 1,22,-1
 370 586 l 1,23,-1
 197 586 l 1,24,-1
 191 484 l 1,25,26
 206 492 206 492 224 495.5 c 128,-1,27
 242 499 242 499 259 499 c 0,28,29
 315 499 315 499 351 465 c 128,-1,30
 387 431 387 431 387 370 c 256,31,32
 387 309 387 309 348 274 c 128,-1,33
 309 239 309 239 250 239 c 0,0,1
EndSplineSet
EndChar

StartChar: uni2076
Encoding: 8310 8310 622
Width: 500
GlyphClass: 2
Flags: W
LayerCount: 2
Fore
SplineSet
257 240 m 0,0,1
 192 240 192 240 157 289.5 c 128,-1,2
 122 339 122 339 122 422 c 0,3,4
 122 526 122 526 164 581.5 c 128,-1,5
 206 637 206 637 275 637 c 0,6,7
 302 637 302 637 327 628.5 c 128,-1,8
 352 620 352 620 373 601 c 1,9,-1
 341 565 l 1,10,-1
 334 557 l 1,11,-1
 329 562 l 1,12,13
 328 570 328 570 322.5 574.5 c 128,-1,14
 317 579 317 579 303 587 c 0,15,16
 291 590 291 590 278 590 c 0,17,18
 260 590 260 590 236.5 580 c 128,-1,19
 213 570 213 570 195.5 541.5 c 128,-1,20
 178 513 178 513 176 456 c 1,21,22
 190 476 190 476 214.5 487 c 128,-1,23
 239 498 239 498 264 498 c 0,24,25
 313 498 313 498 347.5 464 c 128,-1,26
 382 430 382 430 382 371 c 0,27,28
 382 313 382 313 346 276.5 c 128,-1,29
 310 240 310 240 257 240 c 0,0,1
259 286 m 0,30,31
 287 286 287 286 308 308 c 128,-1,32
 329 330 329 330 329 370 c 0,33,34
 329 413 329 413 306 432.5 c 128,-1,35
 283 452 283 452 258 452 c 0,36,37
 235 452 235 452 213.5 438 c 128,-1,38
 192 424 192 424 178 404 c 1,39,40
 176 375 176 375 185 348 c 128,-1,41
 194 321 194 321 213.5 303.5 c 128,-1,42
 233 286 233 286 259 286 c 0,30,31
EndSplineSet
EndChar

StartChar: uni2077
Encoding: 8311 8311 623
Width: 500
GlyphClass: 2
Flags: W
LayerCount: 2
Fore
SplineSet
180 246 m 1,0,1
 210 333 210 333 242.5 416.5 c 128,-1,2
 275 500 275 500 310 583 c 1,3,-1
 130 583 l 1,4,-1
 130 632 l 1,5,-1
 377 632 l 1,6,-1
 377 602 l 1,7,8
 338 514 338 514 303.5 426 c 128,-1,9
 269 338 269 338 240 246 c 1,10,-1
 180 246 l 1,0,1
EndSplineSet
EndChar

StartChar: uni2078
Encoding: 8312 8312 624
Width: 500
GlyphClass: 2
Flags: W
LayerCount: 2
Fore
SplineSet
250 240 m 0,0,1
 189 240 189 240 153 270 c 128,-1,2
 117 300 117 300 117 344 c 0,3,4
 117 379 117 379 139.5 407.5 c 128,-1,5
 162 436 162 436 199 452 c 1,6,7
 171 466 171 466 154 489.5 c 128,-1,8
 137 513 137 513 137 540 c 0,9,10
 137 581 137 581 167 609.5 c 128,-1,11
 197 638 197 638 254 638 c 0,12,13
 313 638 313 638 341.5 610.5 c 128,-1,14
 370 583 370 583 370 544 c 0,15,16
 370 515 370 515 353 490.5 c 128,-1,17
 336 466 336 466 307 451 c 1,18,19
 342 436 342 436 363 408.5 c 128,-1,20
 384 381 384 381 384 347 c 0,21,22
 384 301 384 301 348 270.5 c 128,-1,23
 312 240 312 240 250 240 c 0,0,1
262 469 m 1,24,25
 285 482 285 482 301 501 c 128,-1,26
 317 520 317 520 317 541 c 256,27,28
 317 562 317 562 300 577 c 128,-1,29
 283 592 283 592 252 592 c 256,30,31
 221 592 221 592 205 577.5 c 128,-1,32
 189 563 189 563 189 543 c 0,33,34
 189 516 189 516 210.5 499.5 c 128,-1,35
 232 483 232 483 262 469 c 1,24,25
251 287 m 0,36,37
 289 287 289 287 309 304.5 c 128,-1,38
 329 322 329 322 329 348 c 0,39,40
 329 375 329 375 304.5 397 c 128,-1,41
 280 419 280 419 240 430 c 1,42,43
 212 418 212 418 192 397.5 c 128,-1,44
 172 377 172 377 172 350 c 256,45,46
 172 323 172 323 193.5 305 c 128,-1,47
 215 287 215 287 251 287 c 0,36,37
EndSplineSet
EndChar

StartChar: uni2079
Encoding: 8313 8313 625
Width: 500
GlyphClass: 2
Flags: W
LayerCount: 2
Fore
SplineSet
234 240 m 0,0,1
 203 240 203 240 176 248 c 128,-1,2
 149 256 149 256 127 275 c 1,3,-1
 159 314 l 1,4,-1
 166 322 l 1,5,-1
 171 317 l 1,6,7
 172 309 172 309 177.5 304 c 128,-1,8
 183 299 183 299 196 290 c 1,9,10
 213 285 213 285 230 285 c 0,11,12
 274 285 274 285 298.5 323 c 128,-1,13
 323 361 323 361 328 414 c 1,14,15
 312 402 312 402 292 395 c 128,-1,16
 272 388 272 388 247 388 c 0,17,18
 193 388 193 388 157 421 c 128,-1,19
 121 454 121 454 121 508 c 0,20,21
 121 545 121 545 138 574 c 128,-1,22
 155 603 155 603 184.5 619.5 c 128,-1,23
 214 636 214 636 249 636 c 0,24,25
 312 636 312 636 346.5 590 c 128,-1,26
 381 544 381 544 381 467 c 0,27,28
 381 353 381 353 342.5 297 c 128,-1,29
 304 241 304 241 234 240 c 0,0,1
174 507 m 0,30,31
 174 473 174 473 196.5 453.5 c 128,-1,32
 219 434 219 434 249 434 c 0,33,34
 276 434 276 434 294.5 441 c 128,-1,35
 313 448 313 448 329 465 c 1,36,37
 326 530 326 530 306 560 c 128,-1,38
 286 590 286 590 249 590 c 0,39,40
 216 590 216 590 195 568.5 c 128,-1,41
 174 547 174 547 174 507 c 0,30,31
EndSplineSet
EndChar

StartChar: colonmonetary
Encoding: 8353 8353 638
Width: 500
GlyphClass: 2
Flags: W
AnchorPoint: "Anchor-2" 280 0 basechar 0
AnchorPoint: "Anchor-0" 270 623 basechar 0
LayerCount: 2
Fore
SplineSet
103 -71 m 1,0,-1
 134 44 l 1,1,2
 92 82 92 82 66.5 147.5 c 128,-1,3
 41 213 41 213 41 308 c 0,4,5
 41 400 41 400 62.5 461.5 c 128,-1,6
 84 523 84 523 119 559.5 c 128,-1,7
 154 596 154 596 196.5 612 c 128,-1,8
 239 628 239 628 281 628 c 0,9,10
 286 628 286 628 290 628 c 2,11,-1
 303 675 l 1,12,-1
 340 675 l 1,13,-1
 326 624 l 1,14,15
 342 620 342 620 356 615 c 1,16,-1
 372 675 l 1,17,-1
 409 675 l 1,18,-1
 389 599 l 1,19,20
 442 567 442 567 469 505 c 1,21,-1
 409 477 l 1,22,-1
 400 473 l 1,23,-1
 397 480 l 1,24,25
 400 488 400 488 397 494.5 c 128,-1,26
 394 501 394 501 386 515 c 0,27,28
 379 525 379 525 371 533 c 1,29,-1
 243 56 l 1,30,31
 262 50 262 50 282 50 c 0,32,33
 320 50 320 50 353.5 70.5 c 128,-1,34
 387 91 387 91 408 126 c 1,35,-1
 460 92 l 1,36,37
 430 42 430 42 388 16 c 128,-1,38
 346 -10 346 -10 285 -10 c 0,39,40
 255 -10 255 -10 227 -4 c 1,41,-1
 209 -71 l 1,42,-1
 172 -71 l 1,43,-1
 193 7 l 1,44,45
 178 13 178 13 165 22 c 1,46,-1
 140 -71 l 1,47,-1
 103 -71 l 1,0,-1
109 313 m 0,48,49
 109 256 109 256 121.5 209 c 128,-1,50
 134 162 134 162 156 128 c 1,51,-1
 275 572 l 1,52,53
 198 570 198 570 153.5 502 c 128,-1,54
 109 434 109 434 109 313 c 0,48,49
184 93 m 1,55,56
 196 81 196 81 210 72 c 1,57,-1
 340 557 l 1,58,59
 327 565 327 565 311 568 c 1,60,-1
 184 93 l 1,55,56
EndSplineSet
EndChar

StartChar: uni20A6
Encoding: 8358 8358 641
Width: 500
GlyphClass: 2
Flags: W
AnchorPoint: "Anchor-2" 249 0 basechar 0
AnchorPoint: "Anchor-0" 249 623 basechar 0
LayerCount: 2
Fore
SplineSet
14 275 m 1,0,-1
 14 326 l 1,1,-1
 69 326 l 1,2,-1
 69 623 l 1,3,-1
 130 623 l 1,4,-1
 282 326 l 1,5,-1
 366 326 l 1,6,-1
 366 623 l 1,7,-1
 434 623 l 1,8,-1
 434 616 l 1,9,10
 429 610 429 610 427.5 603 c 128,-1,11
 426 596 426 596 426 579 c 2,12,-1
 426 326 l 1,13,-1
 489 326 l 1,14,-1
 489 275 l 1,15,-1
 426 275 l 1,16,-1
 426 0 l 1,17,-1
 377 0 l 1,18,-1
 238 275 l 1,19,-1
 129 275 l 1,20,-1
 129 0 l 1,21,-1
 69 0 l 1,22,-1
 69 275 l 1,23,-1
 14 275 l 1,0,-1
129 490 m 1,24,-1
 129 326 l 1,25,-1
 212 326 l 1,26,-1
 129 490 l 1,24,-1
366 161 m 1,27,-1
 366 275 l 1,28,-1
 308 275 l 1,29,-1
 366 161 l 1,27,-1
EndSplineSet
EndChar

StartChar: peseta
Encoding: 8359 8359 642
Width: 500
GlyphClass: 2
Flags: W
LayerCount: 2
Fore
SplineSet
54 623 m 1,0,-1
 129 623 l 2,1,2
 178 623 178 623 209 602.5 c 128,-1,3
 240 582 240 582 255.5 548 c 128,-1,4
 271 514 271 514 271 474 c 0,5,6
 271 407 271 407 237.5 361 c 128,-1,7
 204 315 204 315 134 315 c 2,8,-1
 111 315 l 1,9,-1
 111 0 l 1,10,-1
 54 0 l 1,11,-1
 54 623 l 1,0,-1
126 367 m 2,12,13
 173 367 173 367 193.5 395 c 128,-1,14
 214 423 214 423 214 472 c 0,15,16
 214 510 214 510 193.5 538.5 c 128,-1,17
 173 567 173 567 127 567 c 2,18,-1
 111 567 l 1,19,-1
 111 367 l 1,20,-1
 126 367 l 2,12,13
251 -12 m 0,21,22
 205 -12 205 -12 188.5 19.5 c 128,-1,23
 172 51 172 51 175 120 c 2,24,-1
 179 211 l 1,25,-1
 127 211 l 1,26,-1
 134 259 l 1,27,-1
 180 259 l 1,28,-1
 180 305 l 1,29,-1
 232 315 l 1,30,-1
 242 317 l 1,31,-1
 243 310 l 1,32,33
 239 303 239 303 235.5 295.5 c 128,-1,34
 232 288 232 288 232 271 c 2,35,-1
 232 259 l 1,36,-1
 296 259 l 1,37,-1
 288 211 l 1,38,-1
 231 211 l 1,39,-1
 227 127 l 2,40,41
 225 73 225 73 231 55 c 128,-1,42
 237 37 237 37 257 37 c 0,43,44
 272 37 272 37 291 49 c 1,45,-1
 311 86 l 1,46,-1
 315 95 l 1,47,-1
 321 92 l 1,48,49
 324 84 324 84 326.5 75 c 128,-1,50
 329 66 329 66 339 53 c 0,51,52
 348 45 348 45 360 40.5 c 128,-1,53
 372 36 372 36 390 36 c 0,54,55
 439 36 439 36 439 66 c 0,56,57
 439 80 439 80 428.5 91.5 c 128,-1,58
 418 103 418 103 387 113 c 0,59,60
 345 127 345 127 323 145 c 128,-1,61
 301 163 301 163 301 194 c 0,62,63
 301 228 301 228 326 246.5 c 128,-1,64
 351 265 351 265 389 265 c 0,65,66
 453 265 453 265 489 218 c 1,67,-1
 453 170 l 1,68,-1
 447 174 l 1,69,70
 446 182 446 182 442.5 189.5 c 128,-1,71
 439 197 439 197 428 209 c 0,72,73
 419 215 419 215 410.5 217 c 128,-1,74
 402 219 402 219 391 219 c 0,75,76
 370 219 370 219 361.5 212.5 c 128,-1,77
 353 206 353 206 353 195 c 0,78,79
 353 183 353 183 365.5 175 c 128,-1,80
 378 167 378 167 407 156 c 0,81,82
 452 139 452 139 471.5 120.5 c 128,-1,83
 491 102 491 102 491 73 c 0,84,85
 491 34 491 34 463 10 c 128,-1,86
 435 -14 435 -14 389 -14 c 0,87,88
 347 -14 347 -14 313 7 c 1,89,90
 285 -12 285 -12 251 -12 c 0,21,22
EndSplineSet
EndChar

StartChar: uni20A9
Encoding: 8361 8361 643
Width: 500
GlyphClass: 2
Flags: W
AnchorPoint: "Anchor-2" 250 0 basechar 0
AnchorPoint: "Anchor-0" 255 623 basechar 0
LayerCount: 2
Fore
SplineSet
126 0 m 1,0,-1
 85 286 l 1,1,-1
 14 286 l 1,2,-1
 14 326 l 1,3,-1
 79 326 l 1,4,-1
 36 623 l 1,5,-1
 95 623 l 1,6,-1
 137 326 l 1,7,-1
 185 326 l 1,8,-1
 245 577 l 1,9,-1
 265 577 l 1,10,-1
 325 326 l 1,11,-1
 371 326 l 1,12,-1
 407 623 l 1,13,-1
 460 623 l 1,14,-1
 418 326 l 1,15,-1
 489 326 l 1,16,-1
 489 286 l 1,17,-1
 412 286 l 1,18,-1
 371 0 l 1,19,-1
 347 0 l 1,20,-1
 279 286 l 1,21,-1
 221 286 l 1,22,-1
 152 0 l 1,23,-1
 126 0 l 1,0,-1
251 407 m 1,24,-1
 231 326 l 1,25,-1
 270 326 l 1,26,-1
 251 407 l 1,24,-1
155 202 m 1,27,-1
 175 286 l 1,28,-1
 143 286 l 1,29,-1
 155 202 l 1,27,-1
356 200 m 1,30,-1
 366 286 l 1,31,-1
 335 286 l 1,32,-1
 356 200 l 1,30,-1
EndSplineSet
EndChar

StartChar: dong
Encoding: 8363 8363 644
Width: 500
GlyphClass: 2
Flags: W
AnchorPoint: "Anchor-4" 317 546 basechar 0
AnchorPoint: "Anchor-2" 229 107 basechar 0
AnchorPoint: "Anchor-1" 405 473 basechar 0
AnchorPoint: "Anchor-0" 229 473 basechar 0
LayerCount: 2
Fore
SplineSet
216 99 m 0,0,1
 179 99 179 99 144.5 120 c 128,-1,2
 110 141 110 141 87.5 184.5 c 128,-1,3
 65 228 65 228 65 293 c 0,4,5
 65 360 65 360 88 401.5 c 128,-1,6
 111 443 111 443 146.5 462.5 c 128,-1,7
 182 482 182 482 219 482 c 0,8,9
 257 482 257 482 284.5 465 c 128,-1,10
 312 448 312 448 326 419 c 1,11,-1
 326 515 l 1,12,-1
 171 515 l 1,13,-1
 171 569 l 1,14,-1
 326 569 l 1,15,-1
 326 639 l 1,16,-1
 387 639 l 1,17,-1
 387 633 l 1,18,19
 379 626 379 626 379 604 c 2,20,-1
 379 569 l 1,21,-1
 441 569 l 1,22,-1
 441 515 l 1,23,-1
 379 515 l 1,24,-1
 380 164 l 2,25,26
 380 150 380 150 381 135.5 c 128,-1,27
 382 121 382 121 388 107 c 1,28,-1
 331 107 l 1,29,30
 325 121 325 121 324 135.5 c 128,-1,31
 323 150 323 150 323 164 c 1,32,33
 306 135 306 135 278.5 117 c 128,-1,34
 251 99 251 99 216 99 c 0,0,1
225 149 m 0,35,36
 278 149 278 149 299.5 191 c 128,-1,37
 321 233 321 233 321 292 c 0,38,39
 321 353 321 353 297 394 c 128,-1,40
 273 435 273 435 220 435 c 0,41,42
 171 435 171 435 146 399 c 128,-1,43
 121 363 121 363 121 302 c 0,44,45
 121 233 121 233 147.5 191 c 128,-1,46
 174 149 174 149 225 149 c 0,35,36
92 54 m 1,47,-1
 413 54 l 1,48,-1
 413 0 l 1,49,-1
 92 0 l 1,50,-1
 92 54 l 1,47,-1
EndSplineSet
EndChar

StartChar: Euro
Encoding: 8364 8364 645
Width: 500
GlyphClass: 2
Flags: W
LayerCount: 2
Fore
SplineSet
323 -11 m 0,0,1
 265 -11 265 -11 216 15 c 128,-1,2
 167 41 167 41 134 92 c 128,-1,3
 101 143 101 143 91 218 c 1,4,-1
 33 218 l 1,5,-1
 46 276 l 1,6,-1
 86 276 l 1,7,8
 85 291 85 291 86 315 c 128,-1,9
 87 339 87 339 88 356 c 1,10,-1
 33 356 l 1,11,-1
 46 414 l 1,12,-1
 97 414 l 1,13,14
 113 492 113 492 149.5 539 c 128,-1,15
 186 586 186 586 233.5 607 c 128,-1,16
 281 628 281 628 329 628 c 0,17,18
 412 628 412 628 464 574 c 1,19,-1
 439 506 l 1,20,21
 428 513 428 513 422 523.5 c 128,-1,22
 416 534 416 534 407 545 c 128,-1,23
 398 556 398 556 379.5 563.5 c 128,-1,24
 361 571 361 571 325 571 c 0,25,26
 269 571 269 571 222.5 533 c 128,-1,27
 176 495 176 495 159 414 c 1,28,-1
 406 414 l 1,29,-1
 384 356 l 1,30,-1
 150 356 l 1,31,32
 148 340 148 340 148 323 c 128,-1,33
 148 306 148 306 148 276 c 1,34,-1
 354 276 l 1,35,-1
 331 218 l 1,36,-1
 154 218 l 1,37,38
 168 135 168 135 215 92 c 128,-1,39
 262 49 262 49 327 49 c 0,40,41
 387 49 387 49 434 90 c 1,42,-1
 463 40 l 1,43,44
 405 -11 405 -11 323 -11 c 0,0,1
EndSplineSet
EndChar

StartChar: uni20AD
Encoding: 8365 8365 646
Width: 500
GlyphClass: 2
Flags: W
LayerCount: 2
Fore
SplineSet
14 327 m 1,0,-1
 14 378 l 1,1,-1
 62 378 l 1,2,-1
 62 623 l 1,3,-1
 146 623 l 1,4,-1
 146 616 l 1,5,6
 140 610 140 610 138.5 603 c 128,-1,7
 137 596 137 596 137 579 c 2,8,-1
 137 336 l 1,9,-1
 397 628 l 1,10,11
 408 626 408 626 421 624.5 c 128,-1,12
 434 623 434 623 449 623 c 2,13,-1
 475 623 l 1,14,-1
 260 378 l 1,15,-1
 449 378 l 1,16,-1
 449 327 l 1,17,-1
 258 327 l 1,18,-1
 491 0 l 1,19,-1
 401 -4 l 1,20,-1
 186 312 l 1,21,-1
 137 258 l 1,22,-1
 137 0 l 1,23,-1
 62 0 l 1,24,-1
 62 327 l 1,25,-1
 14 327 l 1,0,-1
EndSplineSet
EndChar

StartChar: uni20B1
Encoding: 8369 8369 647
Width: 500
GlyphClass: 2
Flags: W
AnchorPoint: "Anchor-2" 93 0 basechar 0
AnchorPoint: "Anchor-0" 250 623 basechar 0
LayerCount: 2
Fore
SplineSet
59 0 m 1,0,-1
 59 385 l 1,1,-1
 13 385 l 1,2,-1
 13 426 l 1,3,-1
 59 426 l 1,4,-1
 59 466 l 1,5,-1
 13 466 l 1,6,-1
 13 507 l 1,7,-1
 59 507 l 1,8,-1
 59 623 l 1,9,-1
 259 623 l 2,10,11
 341 623 341 623 386.5 590.5 c 128,-1,12
 432 558 432 558 448 507 c 1,13,-1
 498 507 l 1,14,-1
 498 466 l 1,15,-1
 455 466 l 1,16,17
 456 457 456 457 456 447 c 0,18,19
 456 436 456 436 455 426 c 1,20,-1
 498 426 l 1,21,-1
 498 385 l 1,22,-1
 447 385 l 1,23,24
 431 336 431 336 386.5 305.5 c 128,-1,25
 342 275 342 275 264 275 c 2,26,-1
 131 275 l 1,27,-1
 131 0 l 1,28,-1
 59 0 l 1,0,-1
131 557 m 1,29,-1
 131 507 l 1,30,-1
 367 507 l 1,31,32
 353 529 353 529 326 543 c 128,-1,33
 299 557 299 557 257 557 c 2,34,-1
 131 557 l 1,29,-1
384 445 m 0,35,36
 384 456 384 456 382 466 c 1,37,-1
 131 466 l 1,38,-1
 131 426 l 1,39,-1
 383 426 l 1,40,41
 384 435 384 435 384 445 c 0,35,36
131 337 m 1,42,-1
 256 337 l 2,43,44
 300 337 300 337 327.5 349.5 c 128,-1,45
 355 362 355 362 369 385 c 1,46,-1
 131 385 l 1,47,-1
 131 337 l 1,42,-1
EndSplineSet
EndChar

StartChar: uni20B2
Encoding: 8370 8370 648
Width: 500
GlyphClass: 2
Flags: W
LayerCount: 2
Fore
SplineSet
232 -71 m 1,0,-1
 232 -6 l 1,1,2
 140 11 140 11 88 94 c 128,-1,3
 36 177 36 177 36 304 c 0,4,5
 35 392 35 392 53 451.5 c 128,-1,6
 71 511 71 511 101 547.5 c 128,-1,7
 131 584 131 584 165.5 602.5 c 128,-1,8
 200 621 200 621 232 627 c 1,9,-1
 232 675 l 1,10,-1
 289 675 l 1,11,-1
 289 629 l 1,12,13
 338 627 338 627 369.5 613.5 c 128,-1,14
 401 600 401 600 421.5 577 c 128,-1,15
 442 554 442 554 458 525 c 1,16,-1
 420 480 l 1,17,18
 413 484 413 484 406.5 496.5 c 128,-1,19
 400 509 400 509 387.5 524 c 128,-1,20
 375 539 375 539 352 551.5 c 128,-1,21
 329 564 329 564 289 567 c 1,22,-1
 289 52 l 1,23,24
 347 56 347 56 395 90 c 1,25,-1
 395 238 l 1,26,-1
 332 238 l 1,27,-1
 332 299 l 1,28,-1
 460 299 l 1,29,-1
 460 55 l 1,30,31
 377 -6 377 -6 289 -10 c 1,32,-1
 289 -71 l 1,33,-1
 232 -71 l 1,0,-1
105 319 m 0,34,35
 105 210 105 210 140 144 c 128,-1,36
 175 78 175 78 232 59 c 1,37,-1
 232 564 l 1,38,39
 199 556 199 556 170 529.5 c 128,-1,40
 141 503 141 503 123 452 c 128,-1,41
 105 401 105 401 105 319 c 0,34,35
EndSplineSet
EndChar

StartChar: uni20B5
Encoding: 8373 8373 649
Width: 500
GlyphClass: 2
Flags: W
AnchorPoint: "Anchor-2" 280 0 basechar 0
AnchorPoint: "Anchor-0" 270 623 basechar 0
LayerCount: 2
Fore
SplineSet
245 -71 m 1,0,-1
 245 -7 l 1,1,2
 187 2 187 2 141 38.5 c 128,-1,3
 95 75 95 75 68 142 c 128,-1,4
 41 209 41 209 41 308 c 0,5,6
 41 418 41 418 71 485 c 128,-1,7
 101 552 101 552 147.5 585 c 128,-1,8
 194 618 194 618 245 625 c 1,9,-1
 245 675 l 1,10,-1
 302 675 l 1,11,-1
 302 627 l 1,12,13
 361 622 361 622 404 589 c 128,-1,14
 447 556 447 556 469 505 c 1,15,-1
 409 477 l 1,16,-1
 400 473 l 1,17,-1
 397 480 l 1,18,19
 400 488 400 488 397 494.5 c 128,-1,20
 394 501 394 501 386 515 c 0,21,22
 366 542 366 542 345 554.5 c 128,-1,23
 324 567 324 567 302 570 c 1,24,-1
 302 52 l 1,25,26
 370 62 370 62 408 126 c 1,27,-1
 460 92 l 1,28,29
 432 45 432 45 394 19.5 c 128,-1,30
 356 -6 356 -6 302 -9 c 1,31,-1
 302 -71 l 1,32,-1
 245 -71 l 1,0,-1
109 313 m 0,33,34
 109 211 109 211 147.5 142 c 128,-1,35
 186 73 186 73 245 55 c 1,36,-1
 245 568 l 1,37,38
 181 554 181 554 145 487.5 c 128,-1,39
 109 421 109 421 109 313 c 0,33,34
EndSplineSet
EndChar

StartChar: uni20B9
Encoding: 8377 8377 650
Width: 500
GlyphClass: 2
Flags: W
LayerCount: 2
Fore
SplineSet
52 337 m 1,0,-1
 188 337 l 2,1,2
 242 337 242 337 272 357 c 128,-1,3
 302 377 302 377 311 411 c 1,4,-1
 51 411 l 1,5,-1
 51 472 l 1,6,-1
 312 472 l 1,7,8
 305 509 305 509 275 533 c 128,-1,9
 245 557 245 557 188 557 c 2,10,-1
 51 557 l 1,11,-1
 51 623 l 1,12,-1
 462 623 l 1,13,-1
 462 562 l 1,14,-1
 321 562 l 1,15,16
 372 531 372 531 384 472 c 1,17,-1
 462 472 l 1,18,-1
 462 411 l 1,19,-1
 385 411 l 1,20,21
 377 366 377 366 344 328 c 128,-1,22
 311 290 311 290 260 278 c 1,23,-1
 404 0 l 1,24,-1
 326 0 l 1,25,-1
 188 275 l 1,26,-1
 52 275 l 1,27,-1
 52 337 l 1,0,-1
EndSplineSet
EndChar

StartChar: uni20BA
Encoding: 8378 8378 651
Width: 500
GlyphClass: 2
Flags: W
LayerCount: 2
Fore
SplineSet
106 0 m 1,0,-1
 106 279 l 1,1,-1
 25 250 l 1,2,-1
 25 311 l 1,3,-1
 106 340 l 1,4,-1
 106 396 l 1,5,-1
 25 367 l 1,6,-1
 25 428 l 1,7,-1
 106 457 l 1,8,-1
 106 623 l 1,9,-1
 188 623 l 1,10,11
 188 613 188 613 183.5 608 c 128,-1,12
 179 603 179 603 179 589 c 2,13,-1
 179 482 l 1,14,-1
 366 548 l 1,15,-1
 366 487 l 1,16,-1
 179 421 l 1,17,-1
 179 365 l 1,18,-1
 366 431 l 1,19,-1
 366 370 l 1,20,-1
 179 304 l 1,21,-1
 179 61 l 1,22,23
 236 61 236 61 282.5 75 c 128,-1,24
 329 89 329 89 356.5 126 c 128,-1,25
 384 163 384 163 384 230 c 1,26,-1
 443 230 l 1,27,28
 443 152 443 152 409.5 101 c 128,-1,29
 376 50 376 50 317 25 c 128,-1,30
 258 0 258 0 179 0 c 2,31,-1
 106 0 l 1,0,-1
EndSplineSet
EndChar

StartChar: uni20BC
Encoding: 8380 8380 652
Width: 500
GlyphClass: 2
Flags: W
LayerCount: 2
Fore
SplineSet
217 99 m 1,0,-1
 217 522 l 1,1,2
 163 511 163 511 141 468 c 128,-1,3
 119 425 119 425 119 359 c 2,4,-1
 119 32 l 2,5,6
 119 19 119 19 122.5 12.5 c 128,-1,7
 126 6 126 6 126 0 c 1,8,-1
 50 0 l 1,9,-1
 50 358 l 2,10,11
 50 456 50 456 92 514 c 128,-1,12
 134 572 134 572 217 582 c 1,13,-1
 217 665 l 1,14,-1
 284 665 l 1,15,-1
 284 582 l 1,16,17
 362 573 362 573 408 518 c 128,-1,18
 454 463 454 463 454 355 c 2,19,-1
 454 0 l 1,20,-1
 387 0 l 1,21,-1
 387 356 l 2,22,23
 387 426 387 426 364 469.5 c 128,-1,24
 341 513 341 513 284 522 c 1,25,-1
 284 99 l 1,26,-1
 217 99 l 1,0,-1
EndSplineSet
EndChar

StartChar: uni20BD
Encoding: 8381 8381 653
Width: 500
GlyphClass: 2
Flags: W
AnchorPoint: "Anchor-2" 103 0 basechar 0
AnchorPoint: "Anchor-0" 260 623 basechar 0
LayerCount: 2
Fore
SplineSet
69 0 m 1,0,-1
 69 157 l 1,1,-1
 19 157 l 1,2,-1
 19 219 l 1,3,-1
 69 219 l 1,4,-1
 69 275 l 1,5,-1
 19 275 l 1,6,-1
 19 337 l 1,7,-1
 69 337 l 1,8,-1
 69 623 l 1,9,-1
 269 623 l 2,10,11
 339 623 339 623 382 599 c 128,-1,12
 425 575 425 575 445.5 535.5 c 128,-1,13
 466 496 466 496 466 447 c 0,14,15
 466 399 466 399 446 360 c 128,-1,16
 426 321 426 321 384 298 c 128,-1,17
 342 275 342 275 274 275 c 2,18,-1
 141 275 l 1,19,-1
 141 219 l 1,20,-1
 299 219 l 1,21,-1
 299 157 l 1,22,-1
 141 157 l 1,23,-1
 141 0 l 1,24,-1
 69 0 l 1,0,-1
141 337 m 1,25,-1
 266 337 l 2,26,27
 334 337 334 337 364 366.5 c 128,-1,28
 394 396 394 396 394 445 c 0,29,30
 394 491 394 491 364 524 c 128,-1,31
 334 557 334 557 267 557 c 2,32,-1
 141 557 l 1,33,-1
 141 337 l 1,25,-1
EndSplineSet
EndChar

StartChar: uni2113
Encoding: 8467 8467 654
Width: 500
GlyphClass: 2
Flags: W
LayerCount: 2
Fore
SplineSet
280 52 m 0,0,1
 323 52 323 52 340.5 82.5 c 128,-1,2
 358 113 358 113 361 165 c 1,3,-1
 429 165 l 1,4,5
 427 113 427 113 411.5 74 c 128,-1,6
 396 35 396 35 361.5 13.5 c 128,-1,7
 327 -8 327 -8 267 -8 c 0,8,9
 191 -8 191 -8 154 40 c 128,-1,10
 117 88 117 88 117 167 c 2,11,-1
 117 234 l 1,12,13
 92 225 92 225 69 217.5 c 128,-1,14
 46 210 46 210 23 205 c 1,15,-1
 23 265 l 1,16,17
 49 272 49 272 72 279 c 128,-1,18
 95 286 95 286 117 295 c 1,19,-1
 117 518 l 2,20,21
 117 598 117 598 155 639.5 c 128,-1,22
 193 681 193 681 264 681 c 0,23,24
 334 681 334 681 370 641 c 128,-1,25
 406 601 406 601 406 524 c 0,26,27
 406 439 406 439 357.5 371 c 128,-1,28
 309 303 309 303 199 259 c 1,29,-1
 199 170 l 2,30,31
 199 107 199 107 219.5 79.5 c 128,-1,32
 240 52 240 52 280 52 c 0,0,1
329 526 m 0,33,34
 329 624 329 624 264 624 c 0,35,36
 236 624 236 624 217.5 603.5 c 128,-1,37
 199 583 199 583 199 530 c 2,38,-1
 199 322 l 1,39,40
 329 386 329 386 329 526 c 0,33,34
EndSplineSet
EndChar

StartChar: uni2116
Encoding: 8470 8470 655
Width: 500
GlyphClass: 3
Flags: W
LayerCount: 2
Fore
SplineSet
380 429 m 256,0,1
 346 429 346 429 321.5 456.5 c 128,-1,2
 297 484 297 484 297 529 c 0,3,4
 297 576 297 576 323 605 c 128,-1,5
 349 634 349 634 383 634 c 0,6,7
 418 634 418 634 442 608 c 128,-1,8
 466 582 466 582 466 533 c 256,9,10
 466 484 466 484 440 456.5 c 128,-1,11
 414 429 414 429 380 429 c 256,0,1
48 0 m 1,12,-1
 48 623 l 1,13,-1
 111 623 l 1,14,-1
 199 222 l 1,15,-1
 199 623 l 1,16,-1
 266 623 l 1,17,18
 266 617 266 617 262.5 612 c 128,-1,19
 259 607 259 607 259 596 c 2,20,-1
 259 0 l 1,21,-1
 211 0 l 1,22,-1
 110 434 l 1,23,-1
 110 0 l 1,24,-1
 48 0 l 1,12,-1
381 471 m 0,25,26
 399 471 399 471 412 486.5 c 128,-1,27
 425 502 425 502 425 531 c 256,28,29
 425 560 425 560 412 576.5 c 128,-1,30
 399 593 399 593 382 593 c 0,31,32
 364 593 364 593 350.5 576.5 c 128,-1,33
 337 560 337 560 337 531 c 256,34,35
 337 502 337 502 350.5 486.5 c 128,-1,36
 364 471 364 471 381 471 c 0,25,26
297 355 m 1,37,-1
 297 397 l 1,38,-1
 466 397 l 1,39,-1
 466 355 l 1,40,-1
 297 355 l 1,37,-1
EndSplineSet
Ligature2: "'ordn' Ordinals in Latin lookup 73 subtable" N o period
EndChar

StartChar: trademark
Encoding: 8482 8482 656
Width: 500
GlyphClass: 2
Flags: W
LayerCount: 2
Fore
SplineSet
104 320 m 1,0,-1
 104 595 l 1,1,-1
 18 595 l 1,2,-1
 18 635 l 1,3,-1
 239 635 l 1,4,-1
 239 595 l 1,5,-1
 149 595 l 1,6,-1
 149 320 l 1,7,-1
 104 320 l 1,0,-1
268 320 m 1,8,-1
 268 635 l 1,9,-1
 303 635 l 1,10,-1
 375 490 l 1,11,-1
 450 635 l 1,12,-1
 483 635 l 1,13,-1
 483 320 l 1,14,-1
 441 320 l 1,15,-1
 441 535 l 1,16,-1
 381 428 l 1,17,-1
 365 428 l 1,18,-1
 310 535 l 1,19,-1
 310 320 l 1,20,-1
 268 320 l 1,8,-1
EndSplineSet
EndChar

StartChar: uni2124
Encoding: 8484 8484 657
Width: 500
GlyphClass: 2
Flags: W
LayerCount: 2
Fore
SplineSet
464 623 m 1,0,-1
 464 574 l 1,1,-1
 209 42 l 1,2,-1
 419 42 l 2,3,4
 436 42 436 42 443 44 c 128,-1,5
 450 46 450 46 456 52 c 1,6,-1
 463 52 l 1,7,-1
 463 0 l 1,8,-1
 50 0 l 1,9,-1
 50 49 l 1,10,-1
 309 580 l 1,11,-1
 52 580 l 1,12,-1
 52 623 l 1,13,-1
 464 623 l 1,0,-1
417 580 m 1,14,-1
 358 580 l 1,15,-1
 98 42 l 1,16,-1
 159 42 l 1,17,-1
 417 580 l 1,14,-1
EndSplineSet
EndChar

StartChar: uni2126
Encoding: 8486 8486 658
Width: 500
GlyphClass: 2
Flags: W
LayerCount: 2
Fore
SplineSet
256 608 m 0,0,1
 177 608 177 608 132 541 c 128,-1,2
 87 474 87 474 87 344 c 0,3,4
 87 280 87 280 105.5 225 c 128,-1,5
 124 170 124 170 154.5 130 c 128,-1,6
 185 90 185 90 221 69 c 1,7,-1
 221 0 l 1,8,-1
 41 0 l 1,9,-1
 41 67 l 1,10,-1
 156 67 l 1,11,12
 98 105 98 105 59 177.5 c 128,-1,13
 20 250 20 250 20 353 c 0,14,15
 20 514 20 514 83.5 594.5 c 128,-1,16
 147 675 147 675 256 675 c 0,17,18
 362 675 362 675 425 595.5 c 128,-1,19
 488 516 488 516 488 352 c 0,20,21
 488 252 488 252 451 178 c 128,-1,22
 414 104 414 104 352 67 c 1,23,-1
 468 67 l 1,24,-1
 468 0 l 1,25,-1
 286 0 l 1,26,-1
 286 69 l 1,27,28
 354 104 354 104 388 176 c 128,-1,29
 422 248 422 248 422 343 c 0,30,31
 422 476 422 476 378 542 c 128,-1,32
 334 608 334 608 256 608 c 0,0,1
EndSplineSet
EndChar

StartChar: estimated
Encoding: 8494 8494 659
Width: 500
GlyphClass: 2
Flags: W
LayerCount: 2
Fore
SplineSet
252 -7 m 0,0,1
 178 -7 178 -7 127.5 27 c 128,-1,2
 77 61 77 61 51 116.5 c 128,-1,3
 25 172 25 172 25 235 c 256,4,5
 25 298 25 298 45 343.5 c 128,-1,6
 65 389 65 389 98 419 c 128,-1,7
 131 449 131 449 171.5 463 c 128,-1,8
 212 477 212 477 252 477 c 0,9,10
 317 477 317 477 368 447.5 c 128,-1,11
 419 418 419 418 449 364 c 128,-1,12
 479 310 479 310 479 235 c 1,13,-1
 125 235 l 1,14,-1
 125 82 l 1,15,16
 145 62 145 62 179 45.5 c 128,-1,17
 213 29 213 29 252 29 c 0,18,19
 316 29 316 29 354 55.5 c 128,-1,20
 392 82 392 82 422 129 c 1,21,-1
 452 112 l 1,22,23
 432 80 432 80 406 52.5 c 128,-1,24
 380 25 380 25 343.5 9 c 128,-1,25
 307 -7 307 -7 252 -7 c 0,0,1
380 271 m 1,26,-1
 380 390 l 1,27,28
 364 407 364 407 330.5 424 c 128,-1,29
 297 441 297 441 251 441 c 0,30,31
 208 441 208 441 176.5 426 c 128,-1,32
 145 411 145 411 125 391 c 1,33,-1
 125 271 l 1,34,-1
 380 271 l 1,26,-1
EndSplineSet
EndChar

StartChar: arrowup
Encoding: 8593 8593 661
Width: 500
GlyphClass: 2
Flags: W
LayerCount: 2
Fore
SplineSet
218 7 m 1,0,-1
 218 454 l 1,1,-1
 102 310 l 1,2,-1
 59 345 l 1,3,-1
 246 581 l 1,4,-1
 268 581 l 1,5,-1
 441 343 l 1,6,-1
 391 310 l 1,7,-1
 285 453 l 1,8,-1
 285 7 l 1,9,-1
 218 7 l 1,0,-1
EndSplineSet
EndChar

StartChar: arrowright
Encoding: 8594 8594 662
Width: 500
GlyphClass: 2
Flags: W
LayerCount: 2
Fore
SplineSet
16 328 m 1,0,-1
 346 328 l 1,1,-1
 202 444 l 1,2,-1
 237 487 l 1,3,-1
 473 300 l 1,4,-1
 473 278 l 1,5,-1
 235 105 l 1,6,-1
 202 155 l 1,7,-1
 345 261 l 1,8,-1
 16 261 l 1,9,-1
 16 328 l 1,0,-1
EndSplineSet
EndChar

StartChar: arrowboth
Encoding: 8596 8596 664
Width: 500
GlyphClass: 2
Flags: W
LayerCount: 2
Fore
SplineSet
319 488 m 1,0,-1
 490 306 l 1,1,-1
 490 284 l 1,2,-1
 317 106 l 1,3,-1
 279 156 l 1,4,-1
 377 262 l 1,5,-1
 118 262 l 1,6,-1
 221 156 l 1,7,-1
 183 106 l 1,8,-1
 10 284 l 1,9,-1
 10 306 l 1,10,-1
 181 488 l 1,11,-1
 221 445 l 1,12,-1
 117 329 l 1,13,-1
 378 329 l 1,14,-1
 279 445 l 1,15,-1
 319 488 l 1,0,-1
EndSplineSet
EndChar

StartChar: arrowupdn
Encoding: 8597 8597 665
Width: 500
GlyphClass: 2
Flags: W
LayerCount: 2
Fore
SplineSet
441 227 m 1,0,-1
 259 56 l 1,1,-1
 237 56 l 1,2,-1
 59 229 l 1,3,-1
 109 267 l 1,4,-1
 215 169 l 1,5,-1
 215 428 l 1,6,-1
 109 325 l 1,7,-1
 59 363 l 1,8,-1
 237 536 l 1,9,-1
 259 536 l 1,10,-1
 441 365 l 1,11,-1
 398 325 l 1,12,-1
 282 429 l 1,13,-1
 282 168 l 1,14,-1
 398 267 l 1,15,-1
 441 227 l 1,0,-1
EndSplineSet
EndChar

StartChar: uni2197
Encoding: 8599 8599 667
Width: 500
GlyphClass: 2
Flags: W
LayerCount: 2
Fore
SplineSet
14 153 m 1,0,-1
 352 490 l 1,1,-1
 168 470 l 1,2,-1
 162 525 l 1,3,-1
 461 560 l 1,4,-1
 477 544 l 1,5,-1
 431 254 l 1,6,-1
 372 266 l 1,7,-1
 398 442 l 1,8,-1
 62 105 l 1,9,-1
 14 153 l 1,0,-1
EndSplineSet
EndChar

StartChar: uni21E7
Encoding: 8679 8679 671
Width: 500
GlyphClass: 2
Flags: W
LayerCount: 2
Fore
SplineSet
140 0 m 1,0,-1
 140 365 l 1,1,-1
 34 365 l 1,2,-1
 34 409 l 1,3,-1
 238 636 l 1,4,-1
 265 636 l 1,5,-1
 468 409 l 1,6,-1
 468 365 l 1,7,-1
 363 365 l 1,8,-1
 363 0 l 1,9,-1
 140 0 l 1,0,-1
180 40 m 1,10,-1
 323 40 l 1,11,-1
 323 406 l 1,12,-1
 417 406 l 1,13,-1
 251 591 l 1,14,-1
 86 406 l 1,15,-1
 180 406 l 1,16,-1
 180 40 l 1,10,-1
EndSplineSet
EndChar

StartChar: uni21E8
Encoding: 8680 8680 672
Width: 500
GlyphClass: 2
Flags: W
LayerCount: 2
Fore
SplineSet
10 395 m 1,0,-1
 219 395 l 1,1,-1
 219 501 l 1,2,-1
 263 501 l 1,3,-1
 490 297 l 1,4,-1
 490 270 l 1,5,-1
 263 67 l 1,6,-1
 219 67 l 1,7,-1
 219 172 l 1,8,-1
 10 172 l 1,9,-1
 10 395 l 1,0,-1
50 355 m 1,10,-1
 50 212 l 1,11,-1
 260 212 l 1,12,-1
 260 120 l 1,13,-1
 445 284 l 1,14,-1
 260 448 l 1,15,-1
 260 355 l 1,16,-1
 50 355 l 1,10,-1
EndSplineSet
EndChar

StartChar: uni21EA
Encoding: 8682 8682 674
Width: 500
GlyphClass: 2
Flags: W
LayerCount: 2
Fore
SplineSet
140 208 m 1,0,-1
 140 365 l 1,1,-1
 34 365 l 1,2,-1
 34 409 l 1,3,-1
 238 636 l 1,4,-1
 265 636 l 1,5,-1
 468 409 l 1,6,-1
 468 365 l 1,7,-1
 363 365 l 1,8,-1
 363 208 l 1,9,-1
 140 208 l 1,0,-1
180 248 m 1,10,-1
 323 248 l 1,11,-1
 323 406 l 1,12,-1
 416 406 l 1,13,-1
 251 591 l 1,14,-1
 86 406 l 1,15,-1
 180 406 l 1,16,-1
 180 248 l 1,10,-1
140 -40 m 1,17,-1
 140 115 l 1,18,-1
 363 115 l 1,19,-1
 363 -40 l 1,20,-1
 140 -40 l 1,17,-1
180 0 m 1,21,-1
 323 0 l 1,22,-1
 323 75 l 1,23,-1
 180 75 l 1,24,-1
 180 0 l 1,21,-1
EndSplineSet
EndChar

StartChar: partialdiff
Encoding: 8706 8706 675
Width: 500
GlyphClass: 2
Flags: W
LayerCount: 2
Fore
SplineSet
224 -11 m 0,0,1
 137 -11 137 -11 91.5 39.5 c 128,-1,2
 46 90 46 90 37 169 c 0,3,4
 31 218 31 218 40.5 267.5 c 128,-1,5
 50 317 50 317 75 358.5 c 128,-1,6
 100 400 100 400 142 425 c 128,-1,7
 184 450 184 450 243 450 c 0,8,9
 293 450 293 450 329.5 427.5 c 128,-1,10
 366 405 366 405 392 364 c 1,11,12
 394 378 394 378 392.5 392.5 c 128,-1,13
 391 407 391 407 389 420 c 0,14,15
 383 474 383 474 366 516 c 128,-1,16
 349 558 349 558 317 582 c 128,-1,17
 285 606 285 606 233 606 c 0,18,19
 205 606 205 606 173.5 599 c 128,-1,20
 142 592 142 592 118 578 c 1,21,-1
 111 637 l 1,22,23
 141 650 141 650 172.5 655.5 c 128,-1,24
 204 661 204 661 233 661 c 0,25,26
 343 661 343 661 396.5 595.5 c 128,-1,27
 450 530 450 530 463 416 c 0,28,29
 469 361 469 361 465.5 302 c 128,-1,30
 462 243 462 243 447 187.5 c 128,-1,31
 432 132 432 132 403.5 87 c 128,-1,32
 375 42 375 42 330.5 15.5 c 128,-1,33
 286 -11 286 -11 224 -11 c 0,0,1
226 44 m 0,34,35
 268 44 268 44 298 67.5 c 128,-1,36
 328 91 328 91 347 129 c 128,-1,37
 366 167 366 167 376 211.5 c 128,-1,38
 386 256 386 256 389 299 c 1,39,40
 366 351 366 351 333.5 373.5 c 128,-1,41
 301 396 301 396 260 396 c 0,42,43
 217 396 217 396 186.5 374.5 c 128,-1,44
 156 353 156 353 138.5 318.5 c 128,-1,45
 121 284 121 284 114.5 244 c 128,-1,46
 108 204 108 204 112 167 c 0,47,48
 119 106 119 106 149.5 75 c 128,-1,49
 180 44 180 44 226 44 c 0,34,35
EndSplineSet
EndChar

StartChar: emptyset
Encoding: 8709 8709 676
Width: 500
GlyphClass: 2
Flags: W
LayerCount: 2
Fore
SplineSet
39 104 m 1,0,-1
 13 132 l 1,1,-1
 77 191 l 1,2,3
 56 219 56 219 43.5 253.5 c 128,-1,4
 31 288 31 288 31 326 c 0,5,6
 31 387 31 387 61 436.5 c 128,-1,7
 91 486 91 486 140.5 515.5 c 128,-1,8
 190 545 190 545 250 545 c 0,9,10
 292 545 292 545 330 530 c 128,-1,11
 368 515 368 515 398 489 c 1,12,-1
 464 550 l 1,13,-1
 489 522 l 1,14,-1
 424 461 l 1,15,16
 446 433 446 433 458.5 398.5 c 128,-1,17
 471 364 471 364 471 326 c 0,18,19
 471 266 471 266 441 216 c 128,-1,20
 411 166 411 166 361 136 c 128,-1,21
 311 106 311 106 250 106 c 0,22,23
 208 106 208 106 170 121.5 c 128,-1,24
 132 137 132 137 103 163 c 1,25,-1
 39 104 l 1,0,-1
86 326 m 0,26,27
 86 272 86 272 117 229 c 1,28,-1
 357 451 l 1,29,30
 336 469 336 469 308.5 479.5 c 128,-1,31
 281 490 281 490 250 490 c 0,32,33
 205 490 205 490 167.5 468 c 128,-1,34
 130 446 130 446 108 408.5 c 128,-1,35
 86 371 86 371 86 326 c 0,26,27
250 160 m 0,36,37
 296 160 296 160 333.5 182.5 c 128,-1,38
 371 205 371 205 393.5 243 c 128,-1,39
 416 281 416 281 416 326 c 0,40,41
 416 380 416 380 383 424 c 1,42,-1
 143 200 l 1,43,44
 164 182 164 182 191.5 171 c 128,-1,45
 219 160 219 160 250 160 c 0,36,37
EndSplineSet
EndChar

StartChar: uni2206
Encoding: 8710 8710 677
Width: 500
GlyphClass: 2
Flags: W
LayerCount: 2
Fore
SplineSet
294 665 m 1,0,-1
 467 46 l 1,1,-1
 467 1 l 1,2,-1
 32 1 l 1,3,-1
 32 47 l 1,4,-1
 207 665 l 1,5,-1
 294 665 l 1,0,-1
395 60 m 1,6,-1
 251 606 l 1,7,-1
 104 60 l 1,8,-1
 395 60 l 1,6,-1
EndSplineSet
EndChar

StartChar: element
Encoding: 8712 8712 678
Width: 500
GlyphClass: 2
Flags: W
LayerCount: 2
Fore
SplineSet
270 4 m 2,0,1
 163 4 163 4 101.5 63 c 128,-1,2
 40 122 40 122 40 225 c 0,3,4
 40 294 40 294 68.5 345 c 128,-1,5
 97 396 97 396 148.5 424.5 c 128,-1,6
 200 453 200 453 268 453 c 2,7,-1
 445 453 l 1,8,-1
 445 413 l 1,9,-1
 284 413 l 2,10,11
 192 413 192 413 140 370 c 128,-1,12
 88 327 88 327 82 246 c 1,13,-1
 445 246 l 1,14,-1
 445 206 l 1,15,-1
 82 206 l 1,16,17
 92 44 92 44 284 44 c 2,18,-1
 445 44 l 1,19,-1
 445 4 l 1,20,-1
 270 4 l 2,0,1
EndSplineSet
EndChar

StartChar: product
Encoding: 8719 8719 679
Width: 500
GlyphClass: 2
Flags: W
LayerCount: 2
Fore
SplineSet
54 -190 m 1,0,-1
 54 623 l 1,1,-1
 447 623 l 1,2,3
 447 616 447 616 444.5 611 c 128,-1,4
 442 606 442 606 441 601 c 2,5,-1
 441 -190 l 1,6,-1
 370 -190 l 1,7,-1
 370 564 l 1,8,-1
 127 564 l 1,9,-1
 127 -190 l 1,10,-1
 54 -190 l 1,0,-1
EndSplineSet
EndChar

StartChar: summation
Encoding: 8721 8721 680
Width: 500
GlyphClass: 2
Flags: W
LayerCount: 2
Fore
SplineSet
39 -171 m 1,0,-1
 39 -120 l 1,1,-1
 234 249 l 1,2,-1
 39 611 l 1,3,-1
 39 668 l 1,4,-1
 461 668 l 1,5,-1
 461 609 l 1,6,-1
 120 609 l 1,7,-1
 309 251 l 1,8,-1
 114 -112 l 1,9,-1
 461 -112 l 1,10,-1
 461 -171 l 1,11,-1
 39 -171 l 1,0,-1
EndSplineSet
EndChar

StartChar: minus
Encoding: 8722 8722 681
Width: 500
GlyphClass: 2
Flags: W
LayerCount: 2
Fore
SplineSet
45 291 m 1,0,-1
 45 352 l 1,1,-1
 456 352 l 1,2,-1
 456 291 l 1,3,-1
 45 291 l 1,0,-1
EndSplineSet
Substitution2: "'sups' Superscript in Latin lookup 63 subtable" uni207B
Substitution2: "'aalt' Access All Alternates in Latin lookup 43 subtable" uni207B
EndChar

StartChar: uni2215
Encoding: 8725 8725 682
Width: 500
GlyphClass: 2
Flags: W
LayerCount: 2
Fore
SplineSet
101 -154 m 1,0,-1
 51 -134 l 1,1,-1
 379 777 l 1,2,-1
 429 756 l 1,3,-1
 101 -154 l 1,0,-1
EndSplineSet
EndChar

StartChar: asteriskmath
Encoding: 8727 8727 683
Width: 500
GlyphClass: 2
Flags: W
LayerCount: 2
Fore
SplineSet
138 136 m 1,0,-1
 84 180 l 1,1,-1
 214 330 l 1,2,-1
 41 383 l 1,3,-1
 67 448 l 1,4,-1
 229 372 l 1,5,-1
 213 549 l 1,6,-1
 291 549 l 1,7,-1
 273 372 l 1,8,-1
 432 444 l 1,9,-1
 458 383 l 1,10,-1
 287 331 l 1,11,-1
 413 180 l 1,12,-1
 358 137 l 1,13,-1
 250 303 l 1,14,-1
 138 136 l 1,0,-1
EndSplineSet
EndChar

StartChar: radical
Encoding: 8730 8730 685
Width: 500
GlyphClass: 2
Flags: W
LayerCount: 2
Fore
SplineSet
208 -7 m 1,0,-1
 101 284 l 1,1,-1
 12 284 l 1,2,-1
 12 339 l 1,3,-1
 138 339 l 1,4,-1
 233 80 l 1,5,-1
 432 675 l 1,6,-1
 490 675 l 1,7,-1
 260 -7 l 1,8,-1
 208 -7 l 1,0,-1
EndSplineSet
EndChar

StartChar: infinity
Encoding: 8734 8734 686
Width: 500
GlyphClass: 2
Flags: W
LayerCount: 2
Fore
SplineSet
492 302 m 0,0,1
 492 248 492 248 457.5 211 c 128,-1,2
 423 174 423 174 370 174 c 0,3,4
 334 174 334 174 304.5 193 c 128,-1,5
 275 212 275 212 250 253 c 1,6,7
 199 174 199 174 132 174 c 0,8,9
 80 174 80 174 45 210.5 c 128,-1,10
 10 247 10 247 10 302 c 0,11,12
 10 358 10 358 45 394.5 c 128,-1,13
 80 431 80 431 132 431 c 0,14,15
 167 431 167 431 197 413.5 c 128,-1,16
 227 396 227 396 252 352 c 1,17,18
 299 431 299 431 371 431 c 0,19,20
 424 431 424 431 458 396 c 128,-1,21
 492 361 492 361 492 302 c 0,0,1
218 303 m 1,22,23
 198 342 198 342 178 357.5 c 128,-1,24
 158 373 158 373 134 373 c 0,25,26
 105 373 105 373 87.5 353.5 c 128,-1,27
 70 334 70 334 70 303 c 256,28,29
 70 272 70 272 87.5 252.5 c 128,-1,30
 105 233 105 233 134 233 c 0,31,32
 162 233 162 233 182 251.5 c 128,-1,33
 202 270 202 270 218 303 c 1,22,23
432 302 m 0,34,35
 432 334 432 334 414.5 353 c 128,-1,36
 397 372 397 372 369 372 c 0,37,38
 343 372 343 372 323 355 c 128,-1,39
 303 338 303 338 284 302 c 1,40,41
 321 232 321 232 368 232 c 0,42,43
 398 232 398 232 415 252 c 128,-1,44
 432 272 432 272 432 302 c 0,34,35
EndSplineSet
EndChar

StartChar: integral
Encoding: 8747 8747 687
Width: 500
GlyphClass: 2
Flags: W
LayerCount: 2
Fore
SplineSet
144 -240 m 0,0,1
 106 -240 106 -240 73 -227 c 1,2,-1
 73 -165 l 1,3,4
 87 -171 87 -171 102 -174.5 c 128,-1,5
 117 -178 117 -178 135 -178 c 0,6,7
 173 -178 173 -178 196.5 -149.5 c 128,-1,8
 220 -121 220 -121 220 -55 c 2,9,-1
 220 574 l 2,10,11
 220 670 220 670 259 715 c 128,-1,12
 298 760 298 760 371 760 c 0,13,14
 391 760 391 760 407 756.5 c 128,-1,15
 423 753 423 753 436 748 c 1,16,-1
 436 687 l 1,17,18
 408 698 408 698 377 698 c 0,19,20
 336 698 336 698 314 671 c 128,-1,21
 292 644 292 644 292 566 c 2,22,-1
 292 -62 l 2,23,24
 292 -153 292 -153 251 -196.5 c 128,-1,25
 210 -240 210 -240 144 -240 c 0,0,1
EndSplineSet
EndChar

StartChar: notequal
Encoding: 8800 8800 689
Width: 500
GlyphClass: 2
Flags: W
LayerCount: 2
Fore
SplineSet
45 182 m 1,0,-1
 45 243 l 1,1,-1
 179 243 l 1,2,-1
 263 389 l 1,3,-1
 45 389 l 1,4,-1
 45 450 l 1,5,-1
 298 450 l 1,6,-1
 383 597 l 1,7,-1
 426 572 l 1,8,-1
 356 450 l 1,9,-1
 456 450 l 1,10,-1
 456 389 l 1,11,-1
 321 389 l 1,12,-1
 236 243 l 1,13,-1
 456 243 l 1,14,-1
 456 182 l 1,15,-1
 201 182 l 1,16,-1
 117 36 l 1,17,-1
 74 60 l 1,18,-1
 144 182 l 1,19,-1
 45 182 l 1,0,-1
EndSplineSet
EndChar

StartChar: lessequal
Encoding: 8804 8804 690
Width: 500
GlyphClass: 2
Flags: W
LayerCount: 2
Fore
SplineSet
458 107 m 1,0,-1
 35 306 l 1,1,-1
 35 354 l 1,2,-1
 458 527 l 1,3,-1
 458 456 l 1,4,-1
 111 329 l 1,5,-1
 458 173 l 1,6,-1
 458 107 l 1,0,-1
46 17 m 1,7,-1
 46 80 l 1,8,-1
 457 80 l 1,9,-1
 457 17 l 1,10,-1
 46 17 l 1,7,-1
EndSplineSet
EndChar

StartChar: circleplus
Encoding: 8853 8853 692
Width: 500
GlyphClass: 2
Flags: W
LayerCount: 2
Fore
SplineSet
249 99 m 0,0,1
 192 99 192 99 144.5 127.5 c 128,-1,2
 97 156 97 156 69 203.5 c 128,-1,3
 41 251 41 251 41 308 c 0,4,5
 41 366 41 366 69 413 c 128,-1,6
 97 460 97 460 144.5 488.5 c 128,-1,7
 192 517 192 517 249 517 c 0,8,9
 307 517 307 517 354 488.5 c 128,-1,10
 401 460 401 460 429.5 413 c 128,-1,11
 458 366 458 366 458 308 c 0,12,13
 458 251 458 251 429.5 203.5 c 128,-1,14
 401 156 401 156 354 127.5 c 128,-1,15
 307 99 307 99 249 99 c 0,0,1
249 139 m 0,16,17
 296 139 296 139 334 162 c 128,-1,18
 372 185 372 185 395 223.5 c 128,-1,19
 418 262 418 262 418 308 c 256,20,21
 418 354 418 354 395 392 c 128,-1,22
 372 430 372 430 334 453 c 128,-1,23
 296 476 296 476 249 476 c 0,24,25
 203 476 203 476 165 453 c 128,-1,26
 127 430 127 430 104 392 c 128,-1,27
 81 354 81 354 81 308 c 256,28,29
 81 262 81 262 104 223.5 c 128,-1,30
 127 185 127 185 165 162 c 128,-1,31
 203 139 203 139 249 139 c 0,16,17
231 170 m 1,32,-1
 231 291 l 1,33,-1
 116 291 l 1,34,-1
 116 331 l 1,35,-1
 231 331 l 1,36,-1
 231 442 l 1,37,-1
 272 442 l 1,38,-1
 272 331 l 1,39,-1
 384 331 l 1,40,-1
 384 291 l 1,41,-1
 272 291 l 1,42,-1
 272 170 l 1,43,-1
 231 170 l 1,32,-1
EndSplineSet
EndChar

StartChar: house
Encoding: 8962 8962 693
Width: 500
GlyphClass: 2
Flags: W
LayerCount: 2
Fore
SplineSet
472 328 m 1,0,-1
 472 0 l 1,1,-1
 28 0 l 1,2,-1
 28 328 l 1,3,-1
 250 463 l 1,4,-1
 472 328 l 1,0,-1
68 304 m 1,5,-1
 68 40 l 1,6,-1
 432 40 l 1,7,-1
 432 304 l 1,8,-1
 250 413 l 1,9,-1
 68 304 l 1,5,-1
EndSplineSet
EndChar

StartChar: uni2318
Encoding: 8984 8984 694
Width: 500
GlyphClass: 2
Flags: W
LayerCount: 2
Fore
SplineSet
117 8 m 256,0,1
 79 8 79 8 51.5 35.5 c 128,-1,2
 24 63 24 63 24 101 c 256,3,4
 24 139 24 139 51.5 166 c 128,-1,5
 79 193 79 193 117 193 c 2,6,-1
 169 193 l 1,7,-1
 169 274 l 1,8,-1
 117 274 l 2,9,10
 79 274 79 274 51.5 301 c 128,-1,11
 24 328 24 328 24 366 c 256,12,13
 24 404 24 404 51.5 431.5 c 128,-1,14
 79 459 79 459 117 459 c 256,15,16
 155 459 155 459 182 431.5 c 128,-1,17
 209 404 209 404 209 366 c 2,18,-1
 209 314 l 1,19,-1
 291 314 l 1,20,-1
 291 366 l 2,21,22
 291 404 291 404 318 431.5 c 128,-1,23
 345 459 345 459 383 459 c 256,24,25
 421 459 421 459 448.5 431.5 c 128,-1,26
 476 404 476 404 476 366 c 256,27,28
 476 328 476 328 448.5 301 c 128,-1,29
 421 274 421 274 383 274 c 2,30,-1
 331 274 l 1,31,-1
 331 193 l 1,32,-1
 383 193 l 2,33,34
 421 193 421 193 448.5 166 c 128,-1,35
 476 139 476 139 476 101 c 256,36,37
 476 63 476 63 448.5 35.5 c 128,-1,38
 421 8 421 8 383 8 c 256,39,40
 345 8 345 8 318 35.5 c 128,-1,41
 291 63 291 63 291 101 c 2,42,-1
 291 153 l 1,43,-1
 209 153 l 1,44,-1
 209 101 l 2,45,46
 209 63 209 63 182 35.5 c 128,-1,47
 155 8 155 8 117 8 c 256,0,1
117 314 m 2,48,-1
 169 314 l 1,49,-1
 169 366 l 2,50,51
 169 388 169 388 154 403.5 c 128,-1,52
 139 419 139 419 117 419 c 256,53,54
 95 419 95 419 79.5 403.5 c 128,-1,55
 64 388 64 388 64 366 c 256,56,57
 64 344 64 344 79.5 329 c 128,-1,58
 95 314 95 314 117 314 c 2,48,-1
331 314 m 1,59,-1
 383 314 l 2,60,61
 405 314 405 314 420.5 329 c 128,-1,62
 436 344 436 344 436 366 c 256,63,64
 436 388 436 388 420.5 403.5 c 128,-1,65
 405 419 405 419 383 419 c 256,66,67
 361 419 361 419 346 403.5 c 128,-1,68
 331 388 331 388 331 366 c 2,69,-1
 331 314 l 1,59,-1
209 193 m 1,70,-1
 291 193 l 1,71,-1
 291 274 l 1,72,-1
 209 274 l 1,73,-1
 209 193 l 1,70,-1
117 48 m 256,74,75
 139 48 139 48 154 63.5 c 128,-1,76
 169 79 169 79 169 101 c 2,77,-1
 169 153 l 1,78,-1
 117 153 l 2,79,80
 95 153 95 153 79.5 138 c 128,-1,81
 64 123 64 123 64 101 c 256,82,83
 64 79 64 79 79.5 63.5 c 128,-1,84
 95 48 95 48 117 48 c 256,74,75
383 48 m 256,85,86
 405 48 405 48 420.5 63.5 c 128,-1,87
 436 79 436 79 436 101 c 256,88,89
 436 123 436 123 420.5 138 c 128,-1,90
 405 153 405 153 383 153 c 2,91,-1
 331 153 l 1,92,-1
 331 101 l 2,93,94
 331 79 331 79 346 63.5 c 128,-1,95
 361 48 361 48 383 48 c 256,85,86
EndSplineSet
EndChar

StartChar: uni2325
Encoding: 8997 8997 695
Width: 500
GlyphClass: 2
Flags: W
LayerCount: 2
Fore
SplineSet
343 0 m 1,0,-1
 129 414 l 1,1,-1
 0 414 l 1,2,-1
 0 457 l 1,3,-1
 156 457 l 1,4,-1
 370 43 l 1,5,-1
 500 43 l 1,6,-1
 500 0 l 1,7,-1
 343 0 l 1,0,-1
323 414 m 1,8,-1
 323 457 l 1,9,-1
 500 457 l 1,10,-1
 500 414 l 1,11,-1
 323 414 l 1,8,-1
EndSplineSet
EndChar

